<?xml version="1.0" encoding="us-ascii" standalone="no"?><svg xmlns="http://www.w3.org/2000/svg" xmlns:xlink="http://www.w3.org/1999/xlink" contentStyleType="text/css" height="492px" preserveAspectRatio="none" style="width:696px;height:492px;background:#FFFFFF;" version="1.1" viewBox="0 0 696 492" width="696px" zoomAndPan="magnify"><defs><filter height="300%" id="f927r15xhn7dg" width="300%" x="-1" y="-1"><feGaussianBlur result="blurOut" stdDeviation="2.0"/><feColorMatrix in="blurOut" result="blurOut2" type="matrix" values="0 0 0 0 0 0 0 0 0 0 0 0 0 0 0 0 0 0 .4 0"/><feOffset dx="4.0" dy="4.0" in="blurOut2" result="blurOut3"/><feBlend in="SourceGraphic" in2="blurOut3" mode="normal"/></filter></defs><g><rect fill="none" filter="url(#f927r15xhn7dg)" height="257.8125" style="stroke:#000000;stroke-width:2.0;" width="672" x="10" y="172.6641"/><line style="stroke:#A80036;stroke-width:1.0;stroke-dasharray:5.0,5.0;" x1="100" x2="100" y1="41.6094" y2="447.4766"/><line style="stroke:#A80036;stroke-width:1.0;stroke-dasharray:5.0,5.0;" x1="299.5" x2="299.5" y1="41.6094" y2="447.4766"/><rect fill="#FEFECE" filter="url(#f927r15xhn7dg)" height="31.6094" style="stroke:#A80036;stroke-width:1.5;" width="156" x="20" y="5"/><text fill="#000000" font-family="sans-serif" font-size="14" lengthAdjust="spacing" textLength="142" x="27" y="26.5332">SystemStateTransition</text><rect fill="#FEFECE" filter="url(#f927r15xhn7dg)" height="31.6094" style="stroke:#A80036;stroke-width:1.5;" width="156" x="20" y="446.4766"/><text fill="#000000" font-family="sans-serif" font-size="14" lengthAdjust="spacing" textLength="142" x="27" y="468.0098">SystemStateTransition</text><rect fill="#FEFECE" filter="url(#f927r15xhn7dg)" height="31.6094" style="stroke:#A80036;stroke-width:1.5;" width="141" x="227.5" y="5"/><text fill="#000000" font-family="sans-serif" font-size="14" lengthAdjust="spacing" textLength="127" x="234.5" y="26.5332">ThrowOnErrorPolicy</text><rect fill="#FEFECE" filter="url(#f927r15xhn7dg)" height="31.6094" style="stroke:#A80036;stroke-width:1.5;" width="141" x="227.5" y="446.4766"/><text fill="#000000" font-family="sans-serif" font-size="14" lengthAdjust="spacing" textLength="127" x="234.5" y="468.0098">ThrowOnErrorPolicy</text><polygon fill="#A80036" points="288,69.9609,298,73.9609,288,77.9609,292,73.9609" style="stroke:#A80036;stroke-width:1.0;"/><line style="stroke:#A80036;stroke-width:1.0;" x1="100" x2="294" y1="73.9609" y2="73.9609"/><text fill="#000000" font-family="sans-serif" font-size="13" lengthAdjust="spacing" textLength="176" x="107" y="69.1045">operator(transition_meta_data)</text><line style="stroke:#A80036;stroke-width:1.0;" x1="300" x2="342" y1="104.3125" y2="104.3125"/><line style="stroke:#A80036;stroke-width:1.0;" x1="342" x2="342" y1="104.3125" y2="117.3125"/><line style="stroke:#A80036;stroke-width:1.0;" x1="301" x2="342" y1="117.3125" y2="117.3125"/><polygon fill="#A80036" points="311,113.3125,301,117.3125,311,121.3125,307,117.3125" style="stroke:#A80036;stroke-width:1.0;"/><text fill="#000000" font-family="sans-serif" font-size="13" lengthAdjust="spacing" textLength="191" x="307" y="99.4561">transition_meta_data_with_errors</text><path d="M162,130.3125 L162,156.3125 L434,156.3125 L434,140.3125 L424,130.3125 L162,130.3125 " fill="#FBFB77" filter="url(#f927r15xhn7dg)" style="stroke:#A80036;stroke-width:1.0;"/><path d="M424,130.3125 L424,140.3125 L434,140.3125 L424,130.3125 " fill="#FBFB77" style="stroke:#A80036;stroke-width:1.0;"/><text fill="#000000" font-family="sans-serif" font-size="13" lengthAdjust="spacing" textLength="251" x="168" y="148.8076">boost::adaptors::filter(transition_meta_data)</text><path d="M10,172.6641 L71,172.6641 L71,181.0156 L61,191.0156 L10,191.0156 L10,172.6641 " fill="#EEEEEE" style="stroke:#000000;stroke-width:1.0;"/><rect fill="none" height="257.8125" style="stroke:#000000;stroke-width:2.0;" width="672" x="10" y="172.6641"/><text fill="#000000" font-family="sans-serif" font-size="13" font-weight="bold" lengthAdjust="spacing" textLength="16" x="25" y="187.1592">alt</text><text fill="#000000" font-family="sans-serif" font-size="11" font-weight="bold" lengthAdjust="spacing" textLength="247" x="86" y="186.083">[transition_meta_data_with_errors is empty]</text><path d="M150,196.0156 L150,222.0156 L446,222.0156 L446,206.0156 L436,196.0156 L150,196.0156 " fill="#FBFB77" filter="url(#f927r15xhn7dg)" style="stroke:#A80036;stroke-width:1.0;"/><path d="M436,196.0156 L436,206.0156 L446,206.0156 L436,196.0156 " fill="#FBFB77" style="stroke:#A80036;stroke-width:1.0;"/><text fill="#000000" font-family="sans-serif" font-size="13" lengthAdjust="spacing" textLength="275" x="156" y="214.5107">boost::empty(transition_meta_data_with_errors)</text><polygon fill="#A80036" points="111,254.7188,101,258.7188,111,262.7188,107,258.7188" style="stroke:#A80036;stroke-width:1.0;"/><line style="stroke:#A80036;stroke-width:1.0;stroke-dasharray:2.0,2.0;" x1="105" x2="299" y1="258.7188" y2="258.7188"/><text fill="#000000" font-family="sans-serif" font-size="13" lengthAdjust="spacing" textLength="49" x="117" y="253.8623">continue</text><path d="M305,236.3672 L305,262.3672 L530,262.3672 L530,246.3672 L520,236.3672 L305,236.3672 " fill="#FBFB77" filter="url(#f927r15xhn7dg)" style="stroke:#A80036;stroke-width:1.0;"/><path d="M520,236.3672 L520,246.3672 L530,246.3672 L520,236.3672 " fill="#FBFB77" style="stroke:#A80036;stroke-width:1.0;"/><text fill="#000000" font-family="sans-serif" font-size="13" lengthAdjust="spacing" textLength="204" x="311" y="254.8623">further participants can be triggered</text><line style="stroke:#000000;stroke-width:1.0;stroke-dasharray:2.0,2.0;" x1="10" x2="682" y1="272.7188" y2="272.7188"/><line style="stroke:#A80036;stroke-width:1.0;" x1="300" x2="342" y1="296.0703" y2="296.0703"/><line style="stroke:#A80036;stroke-width:1.0;" x1="342" x2="342" y1="296.0703" y2="309.0703"/><line style="stroke:#A80036;stroke-width:1.0;" x1="301" x2="342" y1="309.0703" y2="309.0703"/><polygon fill="#A80036" points="311,305.0703,301,309.0703,311,313.0703,307,309.0703" style="stroke:#A80036;stroke-width:1.0;"/><text fill="#000000" font-family="sans-serif" font-size="13" lengthAdjust="spacing" textLength="363" x="307" y="291.2139">exception_result.append(data._exec_result._error_description);</text><path d="M207,322.0703 L207,364.0703 L388,364.0703 L388,332.0703 L378,322.0703 L207,322.0703 " fill="#FBFB77" filter="url(#f927r15xhn7dg)" style="stroke:#A80036;stroke-width:1.0;"/><path d="M378,322.0703 L378,332.0703 L388,332.0703 L378,322.0703 " fill="#FBFB77" style="stroke:#A80036;stroke-width:1.0;"/><text fill="#000000" font-family="sans-serif" font-size="13" lengthAdjust="spacing" textLength="160" x="213" y="340.5654">gather exception messages</text><text fill="#000000" font-family="sans-serif" font-size="13" lengthAdjust="spacing" textLength="4" x="213" y="356.917">&#160;</text><polygon fill="#A80036" points="111,405.3008,101,409.3008,111,413.3008,107,409.3008" style="stroke:#A80036;stroke-width:1.0;"/><line style="stroke:#A80036;stroke-width:1.0;stroke-dasharray:2.0,2.0;" x1="105" x2="299" y1="409.3008" y2="409.3008"/><text fill="#000000" font-family="sans-serif" font-size="13" lengthAdjust="spacing" textLength="56" x="117" y="404.4443">exception</text><path d="M305,378.7734 L305,420.7734 L548,420.7734 L548,388.7734 L538,378.7734 L305,378.7734 " fill="#FBFB77" filter="url(#f927r15xhn7dg)" style="stroke:#A80036;stroke-width:1.0;"/><path d="M538,378.7734 L538,388.7734 L548,388.7734 L538,378.7734 " fill="#FBFB77" style="stroke:#A80036;stroke-width:1.0;"/><text fill="#000000" font-family="sans-serif" font-size="13" lengthAdjust="spacing" textLength="222" x="311" y="397.2686">no further participants can be triggered</text><text fill="#000000" font-family="sans-serif" font-size="13" lengthAdjust="spacing" textLength="221" x="311" y="413.6201">system stays in inhomogeneous state</text><!--SRC=[dLBBSeCm3BpxAtHC3kG3Q2UtdjkPzCueHW5FmVP8eWb_Nw21aWbfcdfyy6DNMgqa7yu31o4JaTLP5z4hx5fHgdUAIk-CNfowu2yGxoM7uwj_OGxy5YfdMsCMMP1iOG4DAOH8Z1fufHCugqanor5nRQuvoNOnpX8zEpejC-fnOdnGWl19lAHw7u9eccAEiTCYQNfmbT8jKUJpFfenMEdTnE04g8xQ6ZYlNvMCeBEYWRcwbsCzqKPfutsv6yz9SgCTDdXrlg5BiUoAKbCuDAnb9tis0W8MFUofiy4L1J7b0vCg-Gan7VxQJ3fPYaErJD9Kki4Oky9MVTcRZ4vanu_l-hESnB8RAEkdntmkS2XfIWarYM11Oguz_RUhK_G5MsTF3nZSBnbKW2YstPJvRfUX3WLv2etqpxCvcCz5TpPV]--></g></svg>