<?xml version="1.0" encoding="us-ascii" standalone="no"?><svg xmlns="http://www.w3.org/2000/svg" xmlns:xlink="http://www.w3.org/1999/xlink" contentStyleType="text/css" height="689px" preserveAspectRatio="none" style="width:789px;height:689px;background:#FFFFFF;" version="1.1" viewBox="0 0 789 689" width="789px" zoomAndPan="magnify"><defs><filter height="300%" id="fa04piz8b8knu" width="300%" x="-1" y="-1"><feGaussianBlur result="blurOut" stdDeviation="2.0"/><feColorMatrix in="blurOut" result="blurOut2" type="matrix" values="0 0 0 0 0 0 0 0 0 0 0 0 0 0 0 0 0 0 .4 0"/><feOffset dx="4.0" dy="4.0" in="blurOut2" result="blurOut3"/><feBlend in="SourceGraphic" in2="blurOut3" mode="normal"/></filter></defs><g><rect fill="none" filter="url(#fa04piz8b8knu)" height="113.4063" style="stroke:#000000;stroke-width:2.0;" width="337" x="10" y="102.9609"/><rect fill="none" filter="url(#fa04piz8b8knu)" height="81.0547" style="stroke:#000000;stroke-width:2.0;" width="317" x="20" y="128.3125"/><rect fill="none" filter="url(#fa04piz8b8knu)" height="236.1094" style="stroke:#000000;stroke-width:2.0;" width="624" x="146" y="335.4219"/><line style="stroke:#A80036;stroke-width:1.0;stroke-dasharray:5.0,5.0;" x1="88" x2="88" y1="41.6094" y2="645.2344"/><line style="stroke:#A80036;stroke-width:1.0;stroke-dasharray:5.0,5.0;" x1="241" x2="241" y1="41.6094" y2="645.2344"/><line style="stroke:#A80036;stroke-width:1.0;stroke-dasharray:5.0,5.0;" x1="383" x2="383" y1="41.6094" y2="645.2344"/><line style="stroke:#A80036;stroke-width:1.0;stroke-dasharray:5.0,5.0;" x1="475" x2="475" y1="41.6094" y2="645.2344"/><line style="stroke:#A80036;stroke-width:1.0;stroke-dasharray:5.0,5.0;" x1="557" x2="557" y1="41.6094" y2="645.2344"/><line style="stroke:#A80036;stroke-width:1.0;stroke-dasharray:5.0,5.0;" x1="639" x2="639" y1="41.6094" y2="645.2344"/><line style="stroke:#A80036;stroke-width:1.0;stroke-dasharray:5.0,5.0;" x1="721" x2="721" y1="41.6094" y2="645.2344"/><rect fill="#FEFECE" filter="url(#fa04piz8b8knu)" height="31.6094" style="stroke:#A80036;stroke-width:1.5;" width="112" x="30" y="5"/><text fill="#000000" font-family="sans-serif" font-size="14" lengthAdjust="spacing" textLength="98" x="37" y="26.5332">ExecutionPolicy</text><rect fill="#FEFECE" filter="url(#fa04piz8b8knu)" height="31.6094" style="stroke:#A80036;stroke-width:1.5;" width="112" x="30" y="644.2344"/><text fill="#000000" font-family="sans-serif" font-size="14" lengthAdjust="spacing" textLength="98" x="37" y="665.7676">ExecutionPolicy</text><rect fill="#FEFECE" filter="url(#fa04piz8b8knu)" height="31.6094" style="stroke:#A80036;stroke-width:1.5;" width="167" x="156" y="5"/><text fill="#000000" font-family="sans-serif" font-size="14" lengthAdjust="spacing" textLength="153" x="163" y="26.5332">ParticipantStateMachine</text><rect fill="#FEFECE" filter="url(#fa04piz8b8knu)" height="31.6094" style="stroke:#A80036;stroke-width:1.5;" width="167" x="156" y="644.2344"/><text fill="#000000" font-family="sans-serif" font-size="14" lengthAdjust="spacing" textLength="153" x="163" y="665.7676">ParticipantStateMachine</text><rect fill="#FEFECE" filter="url(#fa04piz8b8knu)" height="31.6094" style="stroke:#A80036;stroke-width:1.5;" width="88" x="337" y="5"/><text fill="#000000" font-family="sans-serif" font-size="14" lengthAdjust="spacing" textLength="74" x="344" y="26.5332">ThreadPool</text><rect fill="#FEFECE" filter="url(#fa04piz8b8knu)" height="31.6094" style="stroke:#A80036;stroke-width:1.5;" width="88" x="337" y="644.2344"/><text fill="#000000" font-family="sans-serif" font-size="14" lengthAdjust="spacing" textLength="74" x="344" y="665.7676">ThreadPool</text><rect fill="#FEFECE" filter="url(#fa04piz8b8knu)" height="31.6094" style="stroke:#A80036;stroke-width:1.5;" width="68" x="439" y="5"/><text fill="#000000" font-family="sans-serif" font-size="14" lengthAdjust="spacing" textLength="54" x="446" y="26.5332">Thread1</text><rect fill="#FEFECE" filter="url(#fa04piz8b8knu)" height="31.6094" style="stroke:#A80036;stroke-width:1.5;" width="68" x="439" y="644.2344"/><text fill="#000000" font-family="sans-serif" font-size="14" lengthAdjust="spacing" textLength="54" x="446" y="665.7676">Thread1</text><rect fill="#FEFECE" filter="url(#fa04piz8b8knu)" height="31.6094" style="stroke:#A80036;stroke-width:1.5;" width="68" x="521" y="5"/><text fill="#000000" font-family="sans-serif" font-size="14" lengthAdjust="spacing" textLength="54" x="528" y="26.5332">Thread2</text><rect fill="#FEFECE" filter="url(#fa04piz8b8knu)" height="31.6094" style="stroke:#A80036;stroke-width:1.5;" width="68" x="521" y="644.2344"/><text fill="#000000" font-family="sans-serif" font-size="14" lengthAdjust="spacing" textLength="54" x="528" y="665.7676">Thread2</text><rect fill="#FEFECE" filter="url(#fa04piz8b8knu)" height="31.6094" style="stroke:#A80036;stroke-width:1.5;" width="68" x="603" y="5"/><text fill="#000000" font-family="sans-serif" font-size="14" lengthAdjust="spacing" textLength="54" x="610" y="26.5332">Thread3</text><rect fill="#FEFECE" filter="url(#fa04piz8b8knu)" height="31.6094" style="stroke:#A80036;stroke-width:1.5;" width="68" x="603" y="644.2344"/><text fill="#000000" font-family="sans-serif" font-size="14" lengthAdjust="spacing" textLength="54" x="610" y="665.7676">Thread3</text><rect fill="#FEFECE" filter="url(#fa04piz8b8knu)" height="31.6094" style="stroke:#A80036;stroke-width:1.5;" width="69" x="685" y="5"/><text fill="#000000" font-family="sans-serif" font-size="14" lengthAdjust="spacing" textLength="55" x="692" y="26.5332">ThreadN</text><rect fill="#FEFECE" filter="url(#fa04piz8b8knu)" height="31.6094" style="stroke:#A80036;stroke-width:1.5;" width="69" x="685" y="644.2344"/><text fill="#000000" font-family="sans-serif" font-size="14" lengthAdjust="spacing" textLength="55" x="692" y="665.7676">ThreadN</text><rect fill="#EEEEEE" filter="url(#fa04piz8b8knu)" height="3" style="stroke:#EEEEEE;stroke-width:1.0;" width="780" x="0" y="72.7852"/><line style="stroke:#000000;stroke-width:1.0;" x1="0" x2="780" y1="72.7852" y2="72.7852"/><line style="stroke:#000000;stroke-width:1.0;" x1="0" x2="780" y1="75.7852" y2="75.7852"/><rect fill="#EEEEEE" filter="url(#fa04piz8b8knu)" height="24.3516" style="stroke:#000000;stroke-width:2.0;" width="99" x="340.5" y="61.6094"/><text fill="#000000" font-family="sans-serif" font-size="13" font-weight="bold" lengthAdjust="spacing" textLength="81" x="346.5" y="79.1045">Serial Policy</text><path d="M10,102.9609 L83,102.9609 L83,111.3125 L73,121.3125 L10,121.3125 L10,102.9609 " fill="#EEEEEE" style="stroke:#000000;stroke-width:1.0;"/><rect fill="none" height="113.4063" style="stroke:#000000;stroke-width:2.0;" width="337" x="10" y="102.9609"/><text fill="#000000" font-family="sans-serif" font-size="13" font-weight="bold" lengthAdjust="spacing" textLength="28" x="25" y="117.4561">loop</text><text fill="#000000" font-family="sans-serif" font-size="11" font-weight="bold" lengthAdjust="spacing" textLength="212" x="98" y="116.3799">[while not all participants transitioned]</text><path d="M20,128.3125 L81,128.3125 L81,136.6641 L71,146.6641 L20,146.6641 L20,128.3125 " fill="#EEEEEE" style="stroke:#000000;stroke-width:1.0;"/><rect fill="none" height="81.0547" style="stroke:#000000;stroke-width:2.0;" width="317" x="20" y="128.3125"/><text fill="#000000" font-family="sans-serif" font-size="13" font-weight="bold" lengthAdjust="spacing" textLength="16" x="35" y="142.8076">alt</text><text fill="#000000" font-family="sans-serif" font-size="11" font-weight="bold" lengthAdjust="spacing" textLength="151" x="96" y="141.7314">[last Transition successful]</text><polygon fill="#A80036" points="229.5,165.0156,239.5,169.0156,229.5,173.0156,233.5,169.0156" style="stroke:#A80036;stroke-width:1.0;"/><line style="stroke:#A80036;stroke-width:1.0;" x1="88" x2="235.5" y1="169.0156" y2="169.0156"/><text fill="#000000" font-family="sans-serif" font-size="13" lengthAdjust="spacing" textLength="117" x="95" y="164.1592">RPC state transition</text><line style="stroke:#000000;stroke-width:1.0;stroke-dasharray:2.0,2.0;" x1="20" x2="337" y1="178.0156" y2="178.0156"/><polygon fill="#A80036" points="99,197.3672,89,201.3672,99,205.3672,95,201.3672" style="stroke:#A80036;stroke-width:1.0;"/><line style="stroke:#A80036;stroke-width:1.0;stroke-dasharray:2.0,2.0;" x1="93" x2="240.5" y1="201.3672" y2="201.3672"/><text fill="#000000" font-family="sans-serif" font-size="13" lengthAdjust="spacing" textLength="27" x="105" y="196.5107">false</text><polygon fill="#A80036" points="99,241.7188,89,245.7188,99,249.7188,95,245.7188" style="stroke:#A80036;stroke-width:1.0;"/><line style="stroke:#A80036;stroke-width:1.0;stroke-dasharray:2.0,2.0;" x1="93" x2="240.5" y1="245.7188" y2="245.7188"/><text fill="#000000" font-family="sans-serif" font-size="13" lengthAdjust="spacing" textLength="22" x="105" y="240.8623">true</text><rect fill="#EEEEEE" filter="url(#fa04piz8b8knu)" height="3" style="stroke:#EEEEEE;stroke-width:1.0;" width="780" x="0" y="274.8945"/><line style="stroke:#000000;stroke-width:1.0;" x1="0" x2="780" y1="274.8945" y2="274.8945"/><line style="stroke:#000000;stroke-width:1.0;" x1="0" x2="780" y1="277.8945" y2="277.8945"/><rect fill="#EEEEEE" filter="url(#fa04piz8b8knu)" height="24.3516" style="stroke:#000000;stroke-width:2.0;" width="111" x="334.5" y="263.7188"/><text fill="#000000" font-family="sans-serif" font-size="13" font-weight="bold" lengthAdjust="spacing" textLength="93" x="340.5" y="281.2139">Parallel Policy</text><polygon fill="#A80036" points="371,316.4219,381,320.4219,371,324.4219,375,320.4219" style="stroke:#A80036;stroke-width:1.0;"/><line style="stroke:#A80036;stroke-width:1.0;" x1="88" x2="377" y1="320.4219" y2="320.4219"/><text fill="#000000" font-family="sans-serif" font-size="13" lengthAdjust="spacing" textLength="129" x="95" y="315.5654">Post State Transitions</text><path d="M146,335.4219 L219,335.4219 L219,343.7734 L209,353.7734 L146,353.7734 L146,335.4219 " fill="#EEEEEE" style="stroke:#000000;stroke-width:1.0;"/><rect fill="none" height="236.1094" style="stroke:#000000;stroke-width:2.0;" width="624" x="146" y="335.4219"/><text fill="#000000" font-family="sans-serif" font-size="13" font-weight="bold" lengthAdjust="spacing" textLength="28" x="161" y="349.917">loop</text><text fill="#000000" font-family="sans-serif" font-size="11" font-weight="bold" lengthAdjust="spacing" textLength="212" x="234" y="348.8408">[while not all participants transitioned]</text><path d="M344,358.7734 L344,384.7734 L760,384.7734 L760,368.7734 L750,358.7734 L344,358.7734 " fill="#FBFB77" filter="url(#fa04piz8b8knu)" style="stroke:#A80036;stroke-width:1.0;"/><path d="M750,358.7734 L750,368.7734 L760,368.7734 L750,358.7734 " fill="#FBFB77" style="stroke:#A80036;stroke-width:1.0;"/><text fill="#000000" font-family="sans-serif" font-size="13" lengthAdjust="spacing" textLength="298" x="396.5" y="377.2686">Post state transitions if not previous transition failed</text><polygon fill="#A80036" points="463,396.125,473,400.125,463,404.125,467,400.125" style="stroke:#A80036;stroke-width:1.0;"/><line style="stroke:#A80036;stroke-width:1.0;" x1="383" x2="469" y1="400.125" y2="400.125"/><polygon fill="#A80036" points="252.5,426.4766,242.5,430.4766,252.5,434.4766,248.5,430.4766" style="stroke:#A80036;stroke-width:1.0;"/><line style="stroke:#A80036;stroke-width:1.0;" x1="246.5" x2="474" y1="430.4766" y2="430.4766"/><text fill="#000000" font-family="sans-serif" font-size="13" lengthAdjust="spacing" textLength="117" x="258.5" y="425.6201">RPC state transition</text><polygon fill="#A80036" points="545,440.4766,555,444.4766,545,448.4766,549,444.4766" style="stroke:#A80036;stroke-width:1.0;"/><line style="stroke:#A80036;stroke-width:1.0;" x1="383" x2="551" y1="444.4766" y2="444.4766"/><polygon fill="#A80036" points="252.5,470.8281,242.5,474.8281,252.5,478.8281,248.5,474.8281" style="stroke:#A80036;stroke-width:1.0;"/><line style="stroke:#A80036;stroke-width:1.0;" x1="246.5" x2="556" y1="474.8281" y2="474.8281"/><text fill="#000000" font-family="sans-serif" font-size="13" lengthAdjust="spacing" textLength="117" x="258.5" y="469.9717">RPC state transition</text><polygon fill="#A80036" points="627,484.8281,637,488.8281,627,492.8281,631,488.8281" style="stroke:#A80036;stroke-width:1.0;"/><line style="stroke:#A80036;stroke-width:1.0;" x1="383" x2="633" y1="488.8281" y2="488.8281"/><polygon fill="#A80036" points="252.5,515.1797,242.5,519.1797,252.5,523.1797,248.5,519.1797" style="stroke:#A80036;stroke-width:1.0;"/><line style="stroke:#A80036;stroke-width:1.0;" x1="246.5" x2="638" y1="519.1797" y2="519.1797"/><text fill="#000000" font-family="sans-serif" font-size="13" lengthAdjust="spacing" textLength="117" x="258.5" y="514.3232">RPC state transition</text><polygon fill="#A80036" points="709.5,529.1797,719.5,533.1797,709.5,537.1797,713.5,533.1797" style="stroke:#A80036;stroke-width:1.0;"/><line style="stroke:#A80036;stroke-width:1.0;" x1="383" x2="715.5" y1="533.1797" y2="533.1797"/><polygon fill="#A80036" points="252.5,559.5313,242.5,563.5313,252.5,567.5313,248.5,563.5313" style="stroke:#A80036;stroke-width:1.0;"/><line style="stroke:#A80036;stroke-width:1.0;" x1="246.5" x2="720.5" y1="563.5313" y2="563.5313"/><text fill="#000000" font-family="sans-serif" font-size="13" lengthAdjust="spacing" textLength="117" x="258.5" y="558.6748">RPC state transition</text><polygon fill="#A80036" points="99,610.0586,89,614.0586,99,618.0586,95,614.0586" style="stroke:#A80036;stroke-width:1.0;"/><line style="stroke:#A80036;stroke-width:1.0;stroke-dasharray:2.0,2.0;" x1="93" x2="382" y1="614.0586" y2="614.0586"/><text fill="#000000" font-family="sans-serif" font-size="13" lengthAdjust="spacing" textLength="37" x="105" y="609.2021">Result</text><path d="M388,583.5313 L388,625.5313 L591,625.5313 L591,593.5313 L581,583.5313 L388,583.5313 " fill="#FBFB77" filter="url(#fa04piz8b8knu)" style="stroke:#A80036;stroke-width:1.0;"/><path d="M581,583.5313 L581,593.5313 L591,593.5313 L581,583.5313 " fill="#FBFB77" style="stroke:#A80036;stroke-width:1.0;"/><text fill="#000000" font-family="sans-serif" font-size="13" lengthAdjust="spacing" textLength="182" x="394" y="602.0264">True if all transitions successful</text><text fill="#000000" font-family="sans-serif" font-size="13" lengthAdjust="spacing" textLength="91" x="394" y="618.3779">False otherwise</text><!--SRC=[hLJDRi8m3BxdAVm0wu5oGokNQRiDLS0BHCLTeqL95RkmlVsS0clMbQ4XBBMg7Flxlledz6uS14y8e5Ih0vlAjDenF7zWrR7nhlJML9y_pihXUyEQyLLNZN6eL5701eFH5evPK1HAMUzRE3J68ZZFeAs518o0WtPa8XNk58ZrBsqPh2Q6xVSnK5TLI5HtjW-9Df89sVAIEbZ0kdm2Ygw4iqT2ItWHyZ7B_i2izJaNtKx5vt_v73efNAoSn4XjCArTMlHj4r3lIk_jX7isuSidVFC9tsgiE5iEN0jH8qteHIUje1lQAb48VeyX-PM7auGJpRWv1ARkqTk0U-Ex55KgBzn7w07mh7sM-6StJiLlr1mcBOdExyOrlyerlnlNwYhNwWOkMGQvL4R39TimyCTCfCwoweTZRTuQLblPYDZtE57fA2JR_nAN3Zmt60v6ra-O8i0N]--></g></svg>