<?xml version="1.0" encoding="us-ascii" standalone="no"?><svg xmlns="http://www.w3.org/2000/svg" xmlns:xlink="http://www.w3.org/1999/xlink" contentStyleType="text/css" height="607px" preserveAspectRatio="none" style="width:1058px;height:607px;background:#FFFFFF;" version="1.1" viewBox="0 0 1058 607" width="1058px" zoomAndPan="magnify"><defs><filter height="300%" id="f1u1bwym4tkw5j" width="300%" x="-1" y="-1"><feGaussianBlur result="blurOut" stdDeviation="2.0"/><feColorMatrix in="blurOut" result="blurOut2" type="matrix" values="0 0 0 0 0 0 0 0 0 0 0 0 0 0 0 0 0 0 .4 0"/><feOffset dx="4.0" dy="4.0" in="blurOut2" result="blurOut3"/><feBlend in="SourceGraphic" in2="blurOut3" mode="normal"/></filter></defs><g><line style="stroke:#A80036;stroke-width:1.0;stroke-dasharray:5.0,5.0;" x1="22" x2="22" y1="89.6094" y2="522.1797"/><line style="stroke:#A80036;stroke-width:1.0;stroke-dasharray:5.0,5.0;" x1="188.5" x2="188.5" y1="89.6094" y2="522.1797"/><line style="stroke:#A80036;stroke-width:1.0;stroke-dasharray:5.0,5.0;" x1="302.5" x2="302.5" y1="89.6094" y2="522.1797"/><line style="stroke:#A80036;stroke-width:1.0;stroke-dasharray:5.0,5.0;" x1="463.5" x2="463.5" y1="89.6094" y2="522.1797"/><line style="stroke:#A80036;stroke-width:1.0;stroke-dasharray:5.0,5.0;" x1="625.5" x2="625.5" y1="89.6094" y2="522.1797"/><line style="stroke:#A80036;stroke-width:1.0;stroke-dasharray:5.0,5.0;" x1="795.5" x2="795.5" y1="89.6094" y2="522.1797"/><text fill="#000000" font-family="sans-serif" font-size="14" lengthAdjust="spacing" textLength="29" x="5" y="86.5332">User</text><ellipse cx="22.5" cy="15" fill="#FEFECE" filter="url(#f1u1bwym4tkw5j)" rx="8" ry="8" style="stroke:#A80036;stroke-width:2.0;"/><path d="M22.5,23 L22.5,50 M9.5,31 L35.5,31 M22.5,50 L9.5,65 M22.5,50 L35.5,65 " fill="none" filter="url(#f1u1bwym4tkw5j)" style="stroke:#A80036;stroke-width:2.0;"/><text fill="#000000" font-family="sans-serif" font-size="14" lengthAdjust="spacing" textLength="29" x="5" y="535.7129">User</text><ellipse cx="22.5" cy="548.7891" fill="#FEFECE" filter="url(#f1u1bwym4tkw5j)" rx="8" ry="8" style="stroke:#A80036;stroke-width:2.0;"/><path d="M22.5,556.7891 L22.5,583.7891 M9.5,564.7891 L35.5,564.7891 M22.5,583.7891 L9.5,598.7891 M22.5,583.7891 L35.5,598.7891 " fill="none" filter="url(#f1u1bwym4tkw5j)" style="stroke:#A80036;stroke-width:2.0;"/><rect fill="#FEFECE" filter="url(#f1u1bwym4tkw5j)" height="31.6094" style="stroke:#A80036;stroke-width:1.5;" width="104" x="134.5" y="53"/><text fill="#000000" font-family="sans-serif" font-size="14" lengthAdjust="spacing" textLength="90" x="141.5" y="74.5332">SystemLibrary</text><rect fill="#FEFECE" filter="url(#f1u1bwym4tkw5j)" height="31.6094" style="stroke:#A80036;stroke-width:1.5;" width="104" x="134.5" y="521.1797"/><text fill="#000000" font-family="sans-serif" font-size="14" lengthAdjust="spacing" textLength="90" x="141.5" y="542.7129">SystemLibrary</text><rect fill="#FEFECE" filter="url(#f1u1bwym4tkw5j)" height="31.6094" style="stroke:#A80036;stroke-width:1.5;" width="97" x="252.5" y="53"/><text fill="#000000" font-family="sans-serif" font-size="14" lengthAdjust="spacing" textLength="83" x="259.5" y="74.5332">Participant_1</text><rect fill="#FEFECE" filter="url(#f1u1bwym4tkw5j)" height="31.6094" style="stroke:#A80036;stroke-width:1.5;" width="97" x="252.5" y="521.1797"/><text fill="#000000" font-family="sans-serif" font-size="14" lengthAdjust="spacing" textLength="83" x="259.5" y="542.7129">Participant_1</text><rect fill="#FEFECE" filter="url(#f1u1bwym4tkw5j)" height="31.6094" style="stroke:#A80036;stroke-width:1.5;" width="97" x="413.5" y="53"/><text fill="#000000" font-family="sans-serif" font-size="14" lengthAdjust="spacing" textLength="83" x="420.5" y="74.5332">Participant_2</text><rect fill="#FEFECE" filter="url(#f1u1bwym4tkw5j)" height="31.6094" style="stroke:#A80036;stroke-width:1.5;" width="97" x="413.5" y="521.1797"/><text fill="#000000" font-family="sans-serif" font-size="14" lengthAdjust="spacing" textLength="83" x="420.5" y="542.7129">Participant_2</text><rect fill="#FEFECE" filter="url(#f1u1bwym4tkw5j)" height="31.6094" style="stroke:#A80036;stroke-width:1.5;" width="97" x="575.5" y="53"/><text fill="#000000" font-family="sans-serif" font-size="14" lengthAdjust="spacing" textLength="83" x="582.5" y="74.5332">Participant_3</text><rect fill="#FEFECE" filter="url(#f1u1bwym4tkw5j)" height="31.6094" style="stroke:#A80036;stroke-width:1.5;" width="97" x="575.5" y="521.1797"/><text fill="#000000" font-family="sans-serif" font-size="14" lengthAdjust="spacing" textLength="83" x="582.5" y="542.7129">Participant_3</text><rect fill="#FEFECE" filter="url(#f1u1bwym4tkw5j)" height="31.6094" style="stroke:#A80036;stroke-width:1.5;" width="97" x="745.5" y="53"/><text fill="#000000" font-family="sans-serif" font-size="14" lengthAdjust="spacing" textLength="83" x="752.5" y="74.5332">Participant_4</text><rect fill="#FEFECE" filter="url(#f1u1bwym4tkw5j)" height="31.6094" style="stroke:#A80036;stroke-width:1.5;" width="97" x="745.5" y="521.1797"/><text fill="#000000" font-family="sans-serif" font-size="14" lengthAdjust="spacing" textLength="83" x="752.5" y="542.7129">Participant_4</text><path d="M224,104.6094 L224,130.6094 L378,130.6094 L378,114.6094 L368,104.6094 L224,104.6094 " fill="#FFFAFA" filter="url(#f1u1bwym4tkw5j)" style="stroke:#A80036;stroke-width:1.0;"/><path d="M368,104.6094 L368,114.6094 L378,114.6094 L368,104.6094 " fill="#FFFAFA" style="stroke:#A80036;stroke-width:1.0;"/><text fill="#000000" font-family="sans-serif" font-size="13" lengthAdjust="spacing" textLength="133" x="230" y="123.1045">current state: unloaded</text><path d="M392,104.6094 L392,130.6094 L532,130.6094 L532,114.6094 L522,104.6094 L392,104.6094 " fill="#FFFAFA" filter="url(#f1u1bwym4tkw5j)" style="stroke:#A80036;stroke-width:1.0;"/><path d="M522,104.6094 L522,114.6094 L532,114.6094 L522,104.6094 " fill="#FFFAFA" style="stroke:#A80036;stroke-width:1.0;"/><text fill="#000000" font-family="sans-serif" font-size="13" lengthAdjust="spacing" textLength="119" x="398" y="123.1045">current state: loaded</text><path d="M546,104.6094 L546,130.6094 L702,130.6094 L702,114.6094 L692,104.6094 L546,104.6094 " fill="#FFFAFA" filter="url(#f1u1bwym4tkw5j)" style="stroke:#A80036;stroke-width:1.0;"/><path d="M692,104.6094 L692,114.6094 L702,114.6094 L692,104.6094 " fill="#FFFAFA" style="stroke:#A80036;stroke-width:1.0;"/><text fill="#000000" font-family="sans-serif" font-size="13" lengthAdjust="spacing" textLength="135" x="552" y="123.1045">current state: initialized</text><path d="M722,104.6094 L722,130.6094 L866,130.6094 L866,114.6094 L856,104.6094 L722,104.6094 " fill="#FFFAFA" filter="url(#f1u1bwym4tkw5j)" style="stroke:#A80036;stroke-width:1.0;"/><path d="M856,104.6094 L856,114.6094 L866,114.6094 L856,104.6094 " fill="#FFFAFA" style="stroke:#A80036;stroke-width:1.0;"/><text fill="#000000" font-family="sans-serif" font-size="13" lengthAdjust="spacing" textLength="123" x="728" y="123.1045">current state: running</text><polygon fill="#A80036" points="176.5,158.3125,186.5,162.3125,176.5,166.3125,180.5,162.3125" style="stroke:#A80036;stroke-width:1.0;"/><line style="stroke:#A80036;stroke-width:1.0;" x1="22.5" x2="182.5" y1="162.3125" y2="162.3125"/><text fill="#000000" font-family="sans-serif" font-size="13" lengthAdjust="spacing" textLength="94" x="29.5" y="157.4561">setSystemState</text><text fill="#000000" font-family="sans-serif" font-size="13" font-weight="bold" lengthAdjust="spacing" textLength="44" x="127.5" y="157.4561">loaded</text><polygon fill="#A80036" points="784,210.0156,794,214.0156,784,218.0156,788,214.0156" style="stroke:#A80036;stroke-width:1.0;"/><line style="stroke:#A80036;stroke-width:1.0;" x1="188.5" x2="790" y1="214.0156" y2="214.0156"/><text fill="#000000" font-family="sans-serif" font-size="13" lengthAdjust="spacing" textLength="25" x="195.5" y="209.1592">stop</text><path d="M801,175.3125 L801,234.3125 L1049,234.3125 L1049,185.3125 L1039,175.3125 L801,175.3125 " fill="#FBFB77" filter="url(#f1u1bwym4tkw5j)" style="stroke:#A80036;stroke-width:1.0;"/><path d="M1039,175.3125 L1039,185.3125 L1049,185.3125 L1039,175.3125 " fill="#FBFB77" style="stroke:#A80036;stroke-width:1.0;"/><text fill="#000000" font-family="sans-serif" font-size="13" lengthAdjust="spacing" textLength="227" x="807" y="193.8076">Transition performed regarding priorities</text><text fill="#000000" font-family="sans-serif" font-size="13" lengthAdjust="spacing" textLength="197" x="807" y="210.1592">and execution policy as described</text><a href="single_transition_example.svg" target="_top" title="single_transition_example.svg" xlink:actuate="onRequest" xlink:href="single_transition_example.svg" xlink:show="new" xlink:title="single_transition_example.svg" xlink:type="simple"><text fill="#0000FF" font-family="sans-serif" font-size="13" lengthAdjust="spacing" text-decoration="underline" textLength="25" x="807" y="226.5107">here</text></a><path d="M224,248.3672 L224,274.3672 L378,274.3672 L378,258.3672 L368,248.3672 L224,248.3672 " fill="#FFFAFA" filter="url(#f1u1bwym4tkw5j)" style="stroke:#A80036;stroke-width:1.0;"/><path d="M368,248.3672 L368,258.3672 L378,258.3672 L368,248.3672 " fill="#FFFAFA" style="stroke:#A80036;stroke-width:1.0;"/><text fill="#000000" font-family="sans-serif" font-size="13" lengthAdjust="spacing" textLength="133" x="230" y="266.8623">current state: unloaded</text><path d="M392,248.3672 L392,274.3672 L532,274.3672 L532,258.3672 L522,248.3672 L392,248.3672 " fill="#FFFAFA" filter="url(#f1u1bwym4tkw5j)" style="stroke:#A80036;stroke-width:1.0;"/><path d="M522,248.3672 L522,258.3672 L532,258.3672 L522,248.3672 " fill="#FFFAFA" style="stroke:#A80036;stroke-width:1.0;"/><text fill="#000000" font-family="sans-serif" font-size="13" lengthAdjust="spacing" textLength="119" x="398" y="266.8623">current state: loaded</text><path d="M546,248.3672 L546,274.3672 L702,274.3672 L702,258.3672 L692,248.3672 L546,248.3672 " fill="#FFFAFA" filter="url(#f1u1bwym4tkw5j)" style="stroke:#A80036;stroke-width:1.0;"/><path d="M692,248.3672 L692,258.3672 L702,258.3672 L692,248.3672 " fill="#FFFAFA" style="stroke:#A80036;stroke-width:1.0;"/><text fill="#000000" font-family="sans-serif" font-size="13" lengthAdjust="spacing" textLength="135" x="552" y="266.8623">current state: initialized</text><path d="M716,248.3672 L716,274.3672 L872,274.3672 L872,258.3672 L862,248.3672 L716,248.3672 " fill="#FFFAFA" filter="url(#f1u1bwym4tkw5j)" style="stroke:#A80036;stroke-width:1.0;"/><path d="M862,248.3672 L862,258.3672 L872,258.3672 L862,248.3672 " fill="#FFFAFA" style="stroke:#A80036;stroke-width:1.0;"/><text fill="#000000" font-family="sans-serif" font-size="13" lengthAdjust="spacing" textLength="135" x="722" y="266.8623">current state: initialized</text><polygon fill="#A80036" points="614,302.0703,624,306.0703,614,310.0703,618,306.0703" style="stroke:#A80036;stroke-width:1.0;"/><line style="stroke:#A80036;stroke-width:1.0;" x1="188.5" x2="620" y1="306.0703" y2="306.0703"/><text fill="#000000" font-family="sans-serif" font-size="13" lengthAdjust="spacing" textLength="61" x="195.5" y="301.2139">deinitialize</text><polygon fill="#A80036" points="784,353.7734,794,357.7734,784,361.7734,788,357.7734" style="stroke:#A80036;stroke-width:1.0;"/><line style="stroke:#A80036;stroke-width:1.0;" x1="188.5" x2="790" y1="357.7734" y2="357.7734"/><text fill="#000000" font-family="sans-serif" font-size="13" lengthAdjust="spacing" textLength="61" x="195.5" y="352.917">deinitialize</text><path d="M801,319.0703 L801,378.0703 L1049,378.0703 L1049,329.0703 L1039,319.0703 L801,319.0703 " fill="#FBFB77" filter="url(#f1u1bwym4tkw5j)" style="stroke:#A80036;stroke-width:1.0;"/><path d="M1039,319.0703 L1039,329.0703 L1049,329.0703 L1039,319.0703 " fill="#FBFB77" style="stroke:#A80036;stroke-width:1.0;"/><text fill="#000000" font-family="sans-serif" font-size="13" lengthAdjust="spacing" textLength="227" x="807" y="337.5654">Transition performed regarding priorities</text><text fill="#000000" font-family="sans-serif" font-size="13" lengthAdjust="spacing" textLength="197" x="807" y="353.917">and execution policy as described</text><a href="single_transition_example.svg" target="_top" title="single_transition_example.svg" xlink:actuate="onRequest" xlink:href="single_transition_example.svg" xlink:show="new" xlink:title="single_transition_example.svg" xlink:type="simple"><text fill="#0000FF" font-family="sans-serif" font-size="13" lengthAdjust="spacing" text-decoration="underline" textLength="25" x="807" y="370.2686">here</text></a><path d="M224,392.125 L224,418.125 L378,418.125 L378,402.125 L368,392.125 L224,392.125 " fill="#FFFAFA" filter="url(#f1u1bwym4tkw5j)" style="stroke:#A80036;stroke-width:1.0;"/><path d="M368,392.125 L368,402.125 L378,402.125 L368,392.125 " fill="#FFFAFA" style="stroke:#A80036;stroke-width:1.0;"/><text fill="#000000" font-family="sans-serif" font-size="13" lengthAdjust="spacing" textLength="133" x="230" y="410.6201">current state: unloaded</text><path d="M392,392.125 L392,418.125 L532,418.125 L532,402.125 L522,392.125 L392,392.125 " fill="#FFFAFA" filter="url(#f1u1bwym4tkw5j)" style="stroke:#A80036;stroke-width:1.0;"/><path d="M522,392.125 L522,402.125 L532,402.125 L522,392.125 " fill="#FFFAFA" style="stroke:#A80036;stroke-width:1.0;"/><text fill="#000000" font-family="sans-serif" font-size="13" lengthAdjust="spacing" textLength="119" x="398" y="410.6201">current state: loaded</text><path d="M554,392.125 L554,418.125 L694,418.125 L694,402.125 L684,392.125 L554,392.125 " fill="#FFFAFA" filter="url(#f1u1bwym4tkw5j)" style="stroke:#A80036;stroke-width:1.0;"/><path d="M684,392.125 L684,402.125 L694,402.125 L684,392.125 " fill="#FFFAFA" style="stroke:#A80036;stroke-width:1.0;"/><text fill="#000000" font-family="sans-serif" font-size="13" lengthAdjust="spacing" textLength="119" x="560" y="410.6201">current state: loaded</text><path d="M724,392.125 L724,418.125 L864,418.125 L864,402.125 L854,392.125 L724,392.125 " fill="#FFFAFA" filter="url(#f1u1bwym4tkw5j)" style="stroke:#A80036;stroke-width:1.0;"/><path d="M854,392.125 L854,402.125 L864,402.125 L854,392.125 " fill="#FFFAFA" style="stroke:#A80036;stroke-width:1.0;"/><text fill="#000000" font-family="sans-serif" font-size="13" lengthAdjust="spacing" textLength="119" x="730" y="410.6201">current state: loaded</text><polygon fill="#A80036" points="291,445.8281,301,449.8281,291,453.8281,295,449.8281" style="stroke:#A80036;stroke-width:1.0;"/><line style="stroke:#A80036;stroke-width:1.0;" x1="188.5" x2="297" y1="449.8281" y2="449.8281"/><text fill="#000000" font-family="sans-serif" font-size="13" lengthAdjust="spacing" textLength="24" x="195.5" y="444.9717">load</text><path d="M231,462.8281 L231,488.8281 L371,488.8281 L371,472.8281 L361,462.8281 L231,462.8281 " fill="#FFFAFA" filter="url(#f1u1bwym4tkw5j)" style="stroke:#A80036;stroke-width:1.0;"/><path d="M361,462.8281 L361,472.8281 L371,472.8281 L361,462.8281 " fill="#FFFAFA" style="stroke:#A80036;stroke-width:1.0;"/><text fill="#000000" font-family="sans-serif" font-size="13" lengthAdjust="spacing" textLength="119" x="237" y="481.3232">current state: loaded</text><path d="M392,462.8281 L392,488.8281 L532,488.8281 L532,472.8281 L522,462.8281 L392,462.8281 " fill="#FFFAFA" filter="url(#f1u1bwym4tkw5j)" style="stroke:#A80036;stroke-width:1.0;"/><path d="M522,462.8281 L522,472.8281 L532,472.8281 L522,462.8281 " fill="#FFFAFA" style="stroke:#A80036;stroke-width:1.0;"/><text fill="#000000" font-family="sans-serif" font-size="13" lengthAdjust="spacing" textLength="119" x="398" y="481.3232">current state: loaded</text><path d="M554,462.8281 L554,488.8281 L694,488.8281 L694,472.8281 L684,462.8281 L554,462.8281 " fill="#FFFAFA" filter="url(#f1u1bwym4tkw5j)" style="stroke:#A80036;stroke-width:1.0;"/><path d="M684,462.8281 L684,472.8281 L694,472.8281 L684,462.8281 " fill="#FFFAFA" style="stroke:#A80036;stroke-width:1.0;"/><text fill="#000000" font-family="sans-serif" font-size="13" lengthAdjust="spacing" textLength="119" x="560" y="481.3232">current state: loaded</text><path d="M724,462.8281 L724,488.8281 L864,488.8281 L864,472.8281 L854,462.8281 L724,462.8281 " fill="#FFFAFA" filter="url(#f1u1bwym4tkw5j)" style="stroke:#A80036;stroke-width:1.0;"/><path d="M854,462.8281 L854,472.8281 L864,472.8281 L854,462.8281 " fill="#FFFAFA" style="stroke:#A80036;stroke-width:1.0;"/><text fill="#000000" font-family="sans-serif" font-size="13" lengthAdjust="spacing" textLength="119" x="730" y="481.3232">current state: loaded</text><polygon fill="#A80036" points="33.5,500.1797,23.5,504.1797,33.5,508.1797,29.5,504.1797" style="stroke:#A80036;stroke-width:1.0;"/><line style="stroke:#A80036;stroke-width:1.0;stroke-dasharray:2.0,2.0;" x1="27.5" x2="187.5" y1="504.1797" y2="504.1797"/><!--SRC=[tPH1IyD048Nlyoi6l0MYjCqfI7-11w5wAgLiap4TJ7V3pAQs_detB5XJJOk8FVGMyjwtC_iUhBwoHN5A0ARmJl1PIQ0nuhdWnbYFixrwsZpmIepiUyhZuNivma5fFAXC1fKCm3fFwBOaHtDkrBetpB5eHIXWwesd75jRErDI2NVuCpcEv3SmOZZ8JGOujkpPrFn-OcOsm4fhBTiAe4ixdVOY3bTJyl7NhBDZaiGTamG0-jvqsfyNME-Qc9rmjVRm9CPgsDHPR4XUd6p2POKg8sNO01jX9q4c1MDBf1qLRJIxceiz6iMIj11UTHdDvngWcfR-yzGbxSocgUbMjnMkIMYn00edTIjSTubVsTErJF8Gui5-jiEU-N-wlBugpupBJcDd6Xn5uwzJ-5C65u-WUutkq_JeEO8F]--></g></svg>