<?xml version="1.0" encoding="us-ascii" standalone="no"?><svg xmlns="http://www.w3.org/2000/svg" xmlns:xlink="http://www.w3.org/1999/xlink" contentStyleType="text/css" height="729px" preserveAspectRatio="none" style="width:1080px;height:729px;background:#FFFFFF;" version="1.1" viewBox="0 0 1080 729" width="1080px" zoomAndPan="magnify"><defs><filter height="300%" id="fayknsu7yeig7" width="300%" x="-1" y="-1"><feGaussianBlur result="blurOut" stdDeviation="2.0"/><feColorMatrix in="blurOut" result="blurOut2" type="matrix" values="0 0 0 0 0 0 0 0 0 0 0 0 0 0 0 0 0 0 .4 0"/><feOffset dx="4.0" dy="4.0" in="blurOut2" result="blurOut3"/><feBlend in="SourceGraphic" in2="blurOut3" mode="normal"/></filter></defs><g><line style="stroke:#A80036;stroke-width:1.0;stroke-dasharray:5.0,5.0;" x1="22" x2="22" y1="89.6094" y2="643.5859"/><line style="stroke:#A80036;stroke-width:1.0;stroke-dasharray:5.0,5.0;" x1="193.5" x2="193.5" y1="89.6094" y2="643.5859"/><line style="stroke:#A80036;stroke-width:1.0;stroke-dasharray:5.0,5.0;" x1="307.5" x2="307.5" y1="89.6094" y2="643.5859"/><line style="stroke:#A80036;stroke-width:1.0;stroke-dasharray:5.0,5.0;" x1="477.5" x2="477.5" y1="89.6094" y2="643.5859"/><line style="stroke:#A80036;stroke-width:1.0;stroke-dasharray:5.0,5.0;" x1="647.5" x2="647.5" y1="89.6094" y2="643.5859"/><line style="stroke:#A80036;stroke-width:1.0;stroke-dasharray:5.0,5.0;" x1="817.5" x2="817.5" y1="89.6094" y2="643.5859"/><text fill="#000000" font-family="sans-serif" font-size="14" lengthAdjust="spacing" textLength="29" x="5" y="86.5332">User</text><ellipse cx="22.5" cy="15" fill="#FEFECE" filter="url(#fayknsu7yeig7)" rx="8" ry="8" style="stroke:#A80036;stroke-width:2.0;"/><path d="M22.5,23 L22.5,50 M9.5,31 L35.5,31 M22.5,50 L9.5,65 M22.5,50 L35.5,65 " fill="none" filter="url(#fayknsu7yeig7)" style="stroke:#A80036;stroke-width:2.0;"/><text fill="#000000" font-family="sans-serif" font-size="14" lengthAdjust="spacing" textLength="29" x="5" y="657.1191">User</text><ellipse cx="22.5" cy="670.1953" fill="#FEFECE" filter="url(#fayknsu7yeig7)" rx="8" ry="8" style="stroke:#A80036;stroke-width:2.0;"/><path d="M22.5,678.1953 L22.5,705.1953 M9.5,686.1953 L35.5,686.1953 M22.5,705.1953 L9.5,720.1953 M22.5,705.1953 L35.5,720.1953 " fill="none" filter="url(#fayknsu7yeig7)" style="stroke:#A80036;stroke-width:2.0;"/><rect fill="#FEFECE" filter="url(#fayknsu7yeig7)" height="31.6094" style="stroke:#A80036;stroke-width:1.5;" width="104" x="139.5" y="53"/><text fill="#000000" font-family="sans-serif" font-size="14" lengthAdjust="spacing" textLength="90" x="146.5" y="74.5332">SystemLibrary</text><rect fill="#FEFECE" filter="url(#fayknsu7yeig7)" height="31.6094" style="stroke:#A80036;stroke-width:1.5;" width="104" x="139.5" y="642.5859"/><text fill="#000000" font-family="sans-serif" font-size="14" lengthAdjust="spacing" textLength="90" x="146.5" y="664.1191">SystemLibrary</text><rect fill="#FEFECE" filter="url(#fayknsu7yeig7)" height="31.6094" style="stroke:#A80036;stroke-width:1.5;" width="97" x="257.5" y="53"/><text fill="#000000" font-family="sans-serif" font-size="14" lengthAdjust="spacing" textLength="83" x="264.5" y="74.5332">Participant_1</text><rect fill="#FEFECE" filter="url(#fayknsu7yeig7)" height="31.6094" style="stroke:#A80036;stroke-width:1.5;" width="97" x="257.5" y="642.5859"/><text fill="#000000" font-family="sans-serif" font-size="14" lengthAdjust="spacing" textLength="83" x="264.5" y="664.1191">Participant_1</text><rect fill="#FEFECE" filter="url(#fayknsu7yeig7)" height="31.6094" style="stroke:#A80036;stroke-width:1.5;" width="97" x="427.5" y="53"/><text fill="#000000" font-family="sans-serif" font-size="14" lengthAdjust="spacing" textLength="83" x="434.5" y="74.5332">Participant_2</text><rect fill="#FEFECE" filter="url(#fayknsu7yeig7)" height="31.6094" style="stroke:#A80036;stroke-width:1.5;" width="97" x="427.5" y="642.5859"/><text fill="#000000" font-family="sans-serif" font-size="14" lengthAdjust="spacing" textLength="83" x="434.5" y="664.1191">Participant_2</text><rect fill="#FEFECE" filter="url(#fayknsu7yeig7)" height="31.6094" style="stroke:#A80036;stroke-width:1.5;" width="97" x="597.5" y="53"/><text fill="#000000" font-family="sans-serif" font-size="14" lengthAdjust="spacing" textLength="83" x="604.5" y="74.5332">Participant_3</text><rect fill="#FEFECE" filter="url(#fayknsu7yeig7)" height="31.6094" style="stroke:#A80036;stroke-width:1.5;" width="97" x="597.5" y="642.5859"/><text fill="#000000" font-family="sans-serif" font-size="14" lengthAdjust="spacing" textLength="83" x="604.5" y="664.1191">Participant_3</text><rect fill="#FEFECE" filter="url(#fayknsu7yeig7)" height="31.6094" style="stroke:#A80036;stroke-width:1.5;" width="97" x="767.5" y="53"/><text fill="#000000" font-family="sans-serif" font-size="14" lengthAdjust="spacing" textLength="83" x="774.5" y="74.5332">Participant_4</text><rect fill="#FEFECE" filter="url(#fayknsu7yeig7)" height="31.6094" style="stroke:#A80036;stroke-width:1.5;" width="97" x="767.5" y="642.5859"/><text fill="#000000" font-family="sans-serif" font-size="14" lengthAdjust="spacing" textLength="83" x="774.5" y="664.1191">Participant_4</text><path d="M229,104.6094 L229,130.6094 L383,130.6094 L383,114.6094 L373,104.6094 L229,104.6094 " fill="#FFFAFA" filter="url(#fayknsu7yeig7)" style="stroke:#A80036;stroke-width:1.0;"/><path d="M373,104.6094 L373,114.6094 L383,114.6094 L373,104.6094 " fill="#FFFAFA" style="stroke:#A80036;stroke-width:1.0;"/><text fill="#000000" font-family="sans-serif" font-size="13" lengthAdjust="spacing" textLength="133" x="235" y="123.1045">current state: unloaded</text><path d="M406,104.6094 L406,130.6094 L546,130.6094 L546,114.6094 L536,104.6094 L406,104.6094 " fill="#FFFAFA" filter="url(#fayknsu7yeig7)" style="stroke:#A80036;stroke-width:1.0;"/><path d="M536,104.6094 L536,114.6094 L546,114.6094 L536,104.6094 " fill="#FFFAFA" style="stroke:#A80036;stroke-width:1.0;"/><text fill="#000000" font-family="sans-serif" font-size="13" lengthAdjust="spacing" textLength="119" x="412" y="123.1045">current state: loaded</text><path d="M576,104.6094 L576,130.6094 L716,130.6094 L716,114.6094 L706,104.6094 L576,104.6094 " fill="#FFFAFA" filter="url(#fayknsu7yeig7)" style="stroke:#A80036;stroke-width:1.0;"/><path d="M706,104.6094 L706,114.6094 L716,114.6094 L706,104.6094 " fill="#FFFAFA" style="stroke:#A80036;stroke-width:1.0;"/><text fill="#000000" font-family="sans-serif" font-size="13" lengthAdjust="spacing" textLength="119" x="582" y="123.1045">current state: loaded</text><path d="M738,104.6094 L738,130.6094 L894,130.6094 L894,114.6094 L884,104.6094 L738,104.6094 " fill="#FFFAFA" filter="url(#fayknsu7yeig7)" style="stroke:#A80036;stroke-width:1.0;"/><path d="M884,104.6094 L884,114.6094 L894,114.6094 L884,104.6094 " fill="#FFFAFA" style="stroke:#A80036;stroke-width:1.0;"/><text fill="#000000" font-family="sans-serif" font-size="13" lengthAdjust="spacing" textLength="135" x="744" y="123.1045">current state: initialized</text><polygon fill="#A80036" points="181.5,158.3125,191.5,162.3125,181.5,166.3125,185.5,162.3125" style="stroke:#A80036;stroke-width:1.0;"/><line style="stroke:#A80036;stroke-width:1.0;" x1="22.5" x2="187.5" y1="162.3125" y2="162.3125"/><text fill="#000000" font-family="sans-serif" font-size="13" lengthAdjust="spacing" textLength="94" x="29.5" y="157.4561">setSystemState</text><text fill="#000000" font-family="sans-serif" font-size="13" font-weight="bold" lengthAdjust="spacing" textLength="49" x="127.5" y="157.4561">running</text><polygon fill="#A80036" points="296,188.6641,306,192.6641,296,196.6641,300,192.6641" style="stroke:#A80036;stroke-width:1.0;"/><line style="stroke:#A80036;stroke-width:1.0;" x1="193.5" x2="302" y1="192.6641" y2="192.6641"/><text fill="#000000" font-family="sans-serif" font-size="13" lengthAdjust="spacing" textLength="24" x="200.5" y="187.8076">load</text><path d="M236,205.6641 L236,231.6641 L376,231.6641 L376,215.6641 L366,205.6641 L236,205.6641 " fill="#FFFAFA" filter="url(#fayknsu7yeig7)" style="stroke:#A80036;stroke-width:1.0;"/><path d="M366,205.6641 L366,215.6641 L376,215.6641 L366,205.6641 " fill="#FFFAFA" style="stroke:#A80036;stroke-width:1.0;"/><text fill="#000000" font-family="sans-serif" font-size="13" lengthAdjust="spacing" textLength="119" x="242" y="224.1592">current state: loaded</text><path d="M406,205.6641 L406,231.6641 L546,231.6641 L546,215.6641 L536,205.6641 L406,205.6641 " fill="#FFFAFA" filter="url(#fayknsu7yeig7)" style="stroke:#A80036;stroke-width:1.0;"/><path d="M536,205.6641 L536,215.6641 L546,215.6641 L536,205.6641 " fill="#FFFAFA" style="stroke:#A80036;stroke-width:1.0;"/><text fill="#000000" font-family="sans-serif" font-size="13" lengthAdjust="spacing" textLength="119" x="412" y="224.1592">current state: loaded</text><path d="M576,205.6641 L576,231.6641 L716,231.6641 L716,215.6641 L706,205.6641 L576,205.6641 " fill="#FFFAFA" filter="url(#fayknsu7yeig7)" style="stroke:#A80036;stroke-width:1.0;"/><path d="M706,205.6641 L706,215.6641 L716,215.6641 L706,205.6641 " fill="#FFFAFA" style="stroke:#A80036;stroke-width:1.0;"/><text fill="#000000" font-family="sans-serif" font-size="13" lengthAdjust="spacing" textLength="119" x="582" y="224.1592">current state: loaded</text><path d="M738,205.6641 L738,231.6641 L894,231.6641 L894,215.6641 L884,205.6641 L738,205.6641 " fill="#FFFAFA" filter="url(#fayknsu7yeig7)" style="stroke:#A80036;stroke-width:1.0;"/><path d="M884,205.6641 L884,215.6641 L894,215.6641 L884,205.6641 " fill="#FFFAFA" style="stroke:#A80036;stroke-width:1.0;"/><text fill="#000000" font-family="sans-serif" font-size="13" lengthAdjust="spacing" textLength="135" x="744" y="224.1592">current state: initialized</text><polygon fill="#A80036" points="296,259.3672,306,263.3672,296,267.3672,300,263.3672" style="stroke:#A80036;stroke-width:1.0;"/><line style="stroke:#A80036;stroke-width:1.0;" x1="193.5" x2="302" y1="263.3672" y2="263.3672"/><text fill="#000000" font-family="sans-serif" font-size="13" lengthAdjust="spacing" textLength="47" x="200.5" y="258.5107">initialize</text><polygon fill="#A80036" points="466,289.7188,476,293.7188,466,297.7188,470,293.7188" style="stroke:#A80036;stroke-width:1.0;"/><line style="stroke:#A80036;stroke-width:1.0;" x1="193.5" x2="472" y1="293.7188" y2="293.7188"/><text fill="#000000" font-family="sans-serif" font-size="13" lengthAdjust="spacing" textLength="47" x="200.5" y="288.8623">initialize</text><polygon fill="#A80036" points="636,341.4219,646,345.4219,636,349.4219,640,345.4219" style="stroke:#A80036;stroke-width:1.0;"/><line style="stroke:#A80036;stroke-width:1.0;" x1="193.5" x2="642" y1="345.4219" y2="345.4219"/><text fill="#000000" font-family="sans-serif" font-size="13" lengthAdjust="spacing" textLength="47" x="200.5" y="340.5654">initialize</text><path d="M653,306.7188 L653,365.7188 L901,365.7188 L901,316.7188 L891,306.7188 L653,306.7188 " fill="#FBFB77" filter="url(#fayknsu7yeig7)" style="stroke:#A80036;stroke-width:1.0;"/><path d="M891,306.7188 L891,316.7188 L901,316.7188 L891,306.7188 " fill="#FBFB77" style="stroke:#A80036;stroke-width:1.0;"/><text fill="#000000" font-family="sans-serif" font-size="13" lengthAdjust="spacing" textLength="227" x="659" y="325.2139">Transition performed regarding priorities</text><text fill="#000000" font-family="sans-serif" font-size="13" lengthAdjust="spacing" textLength="197" x="659" y="341.5654">and execution policy as described</text><a href="single_transition_example.svg" target="_top" title="single_transition_example.svg" xlink:actuate="onRequest" xlink:href="single_transition_example.svg" xlink:show="new" xlink:title="single_transition_example.svg" xlink:type="simple"><text fill="#0000FF" font-family="sans-serif" font-size="13" lengthAdjust="spacing" text-decoration="underline" textLength="25" x="659" y="357.917">here</text></a><path d="M228,379.7734 L228,405.7734 L384,405.7734 L384,389.7734 L374,379.7734 L228,379.7734 " fill="#FFFAFA" filter="url(#fayknsu7yeig7)" style="stroke:#A80036;stroke-width:1.0;"/><path d="M374,379.7734 L374,389.7734 L384,389.7734 L374,379.7734 " fill="#FFFAFA" style="stroke:#A80036;stroke-width:1.0;"/><text fill="#000000" font-family="sans-serif" font-size="13" lengthAdjust="spacing" textLength="135" x="234" y="398.2686">current state: initialized</text><path d="M398,379.7734 L398,405.7734 L554,405.7734 L554,389.7734 L544,379.7734 L398,379.7734 " fill="#FFFAFA" filter="url(#fayknsu7yeig7)" style="stroke:#A80036;stroke-width:1.0;"/><path d="M544,379.7734 L544,389.7734 L554,389.7734 L544,379.7734 " fill="#FFFAFA" style="stroke:#A80036;stroke-width:1.0;"/><text fill="#000000" font-family="sans-serif" font-size="13" lengthAdjust="spacing" textLength="135" x="404" y="398.2686">current state: initialized</text><path d="M568,379.7734 L568,405.7734 L724,405.7734 L724,389.7734 L714,379.7734 L568,379.7734 " fill="#FFFAFA" filter="url(#fayknsu7yeig7)" style="stroke:#A80036;stroke-width:1.0;"/><path d="M714,379.7734 L714,389.7734 L724,389.7734 L714,379.7734 " fill="#FFFAFA" style="stroke:#A80036;stroke-width:1.0;"/><text fill="#000000" font-family="sans-serif" font-size="13" lengthAdjust="spacing" textLength="135" x="574" y="398.2686">current state: initialized</text><path d="M738,379.7734 L738,405.7734 L894,405.7734 L894,389.7734 L884,379.7734 L738,379.7734 " fill="#FFFAFA" filter="url(#fayknsu7yeig7)" style="stroke:#A80036;stroke-width:1.0;"/><path d="M884,379.7734 L884,389.7734 L894,389.7734 L884,379.7734 " fill="#FFFAFA" style="stroke:#A80036;stroke-width:1.0;"/><text fill="#000000" font-family="sans-serif" font-size="13" lengthAdjust="spacing" textLength="135" x="744" y="398.2686">current state: initialized</text><polygon fill="#A80036" points="296,433.4766,306,437.4766,296,441.4766,300,437.4766" style="stroke:#A80036;stroke-width:1.0;"/><line style="stroke:#A80036;stroke-width:1.0;" x1="193.5" x2="302" y1="437.4766" y2="437.4766"/><text fill="#000000" font-family="sans-serif" font-size="13" lengthAdjust="spacing" textLength="26" x="200.5" y="432.6201">start</text><polygon fill="#A80036" points="466,463.8281,476,467.8281,466,471.8281,470,467.8281" style="stroke:#A80036;stroke-width:1.0;"/><line style="stroke:#A80036;stroke-width:1.0;" x1="193.5" x2="472" y1="467.8281" y2="467.8281"/><text fill="#000000" font-family="sans-serif" font-size="13" lengthAdjust="spacing" textLength="26" x="200.5" y="462.9717">start</text><polygon fill="#A80036" points="636,494.1797,646,498.1797,636,502.1797,640,498.1797" style="stroke:#A80036;stroke-width:1.0;"/><line style="stroke:#A80036;stroke-width:1.0;" x1="193.5" x2="642" y1="498.1797" y2="498.1797"/><text fill="#000000" font-family="sans-serif" font-size="13" lengthAdjust="spacing" textLength="26" x="200.5" y="493.3232">start</text><polygon fill="#A80036" points="806,545.8828,816,549.8828,806,553.8828,810,549.8828" style="stroke:#A80036;stroke-width:1.0;"/><line style="stroke:#A80036;stroke-width:1.0;" x1="193.5" x2="812" y1="549.8828" y2="549.8828"/><text fill="#000000" font-family="sans-serif" font-size="13" lengthAdjust="spacing" textLength="26" x="200.5" y="545.0264">start</text><path d="M823,511.1797 L823,570.1797 L1071,570.1797 L1071,521.1797 L1061,511.1797 L823,511.1797 " fill="#FBFB77" filter="url(#fayknsu7yeig7)" style="stroke:#A80036;stroke-width:1.0;"/><path d="M1061,511.1797 L1061,521.1797 L1071,521.1797 L1061,511.1797 " fill="#FBFB77" style="stroke:#A80036;stroke-width:1.0;"/><text fill="#000000" font-family="sans-serif" font-size="13" lengthAdjust="spacing" textLength="227" x="829" y="529.6748">Transition performed regarding priorities</text><text fill="#000000" font-family="sans-serif" font-size="13" lengthAdjust="spacing" textLength="197" x="829" y="546.0264">and execution policy as described</text><a href="single_transition_example.svg" target="_top" title="single_transition_example.svg" xlink:actuate="onRequest" xlink:href="single_transition_example.svg" xlink:show="new" xlink:title="single_transition_example.svg" xlink:type="simple"><text fill="#0000FF" font-family="sans-serif" font-size="13" lengthAdjust="spacing" text-decoration="underline" textLength="25" x="829" y="562.3779">here</text></a><path d="M234,584.2344 L234,610.2344 L378,610.2344 L378,594.2344 L368,584.2344 L234,584.2344 " fill="#FFFAFA" filter="url(#fayknsu7yeig7)" style="stroke:#A80036;stroke-width:1.0;"/><path d="M368,584.2344 L368,594.2344 L378,594.2344 L368,584.2344 " fill="#FFFAFA" style="stroke:#A80036;stroke-width:1.0;"/><text fill="#000000" font-family="sans-serif" font-size="13" lengthAdjust="spacing" textLength="123" x="240" y="602.7295">current state: running</text><path d="M404,584.2344 L404,610.2344 L548,610.2344 L548,594.2344 L538,584.2344 L404,584.2344 " fill="#FFFAFA" filter="url(#fayknsu7yeig7)" style="stroke:#A80036;stroke-width:1.0;"/><path d="M538,584.2344 L538,594.2344 L548,594.2344 L538,584.2344 " fill="#FFFAFA" style="stroke:#A80036;stroke-width:1.0;"/><text fill="#000000" font-family="sans-serif" font-size="13" lengthAdjust="spacing" textLength="123" x="410" y="602.7295">current state: running</text><path d="M574,584.2344 L574,610.2344 L718,610.2344 L718,594.2344 L708,584.2344 L574,584.2344 " fill="#FFFAFA" filter="url(#fayknsu7yeig7)" style="stroke:#A80036;stroke-width:1.0;"/><path d="M708,584.2344 L708,594.2344 L718,594.2344 L708,584.2344 " fill="#FFFAFA" style="stroke:#A80036;stroke-width:1.0;"/><text fill="#000000" font-family="sans-serif" font-size="13" lengthAdjust="spacing" textLength="123" x="580" y="602.7295">current state: running</text><path d="M744,584.2344 L744,610.2344 L888,610.2344 L888,594.2344 L878,584.2344 L744,584.2344 " fill="#FFFAFA" filter="url(#fayknsu7yeig7)" style="stroke:#A80036;stroke-width:1.0;"/><path d="M878,584.2344 L878,594.2344 L888,594.2344 L878,584.2344 " fill="#FFFAFA" style="stroke:#A80036;stroke-width:1.0;"/><text fill="#000000" font-family="sans-serif" font-size="13" lengthAdjust="spacing" textLength="123" x="750" y="602.7295">current state: running</text><polygon fill="#A80036" points="33.5,621.5859,23.5,625.5859,33.5,629.5859,29.5,625.5859" style="stroke:#A80036;stroke-width:1.0;"/><line style="stroke:#A80036;stroke-width:1.0;stroke-dasharray:2.0,2.0;" x1="27.5" x2="192.5" y1="625.5859" y2="625.5859"/><!--SRC=[rPH1JuD048NlyoicyKQ2niAfCVq57aogfwPfjZ3IIM6Np2wrzTUxYDfIfO2ttWZlVRkpxstMRbcZ64i0Ad56yCMIGAd4SSAbqWxd1-keUEIrA3cqbAVZz-eUEwL9fn9rAZ60DexGx4ZEzhcnshpX59DAX3ncdN8qnKhdHgMKmXt-JKuQyXVOODZ9HHUvJYpkm5YpOvNpksUX3ZkSjHBs9xFacb_p6i4Wa4fhrbaG043R7CxQwJHZZGxl2gFho-5elcoT3BT6BUldxCBPni6pA6szO3IM9Az62f-AKAOazRLXAMp4osH1wHHfJqdLc4tEoG6LnPHi8hokmrmih8ToMhcVLLUqLqMPqwtTPRWXeUKIoAzKZp2wwzCKnnP-mevlVSZ6WwhlxTv3udfh7-2A1hdYRzUrNeclzsNqTUZZedzoSG_NF9mFONZsSi87]--></g></svg>