<?xml version="1.0" encoding="us-ascii" standalone="no"?><svg xmlns="http://www.w3.org/2000/svg" xmlns:xlink="http://www.w3.org/1999/xlink" contentStyleType="text/css" height="320px" preserveAspectRatio="none" style="width:801px;height:320px;background:#FFFFFF;" version="1.1" viewBox="0 0 801 320" width="801px" zoomAndPan="magnify"><defs><filter height="300%" id="f9rlqnniekvul" width="300%" x="-1" y="-1"><feGaussianBlur result="blurOut" stdDeviation="2.0"/><feColorMatrix in="blurOut" result="blurOut2" type="matrix" values="0 0 0 0 0 0 0 0 0 0 0 0 0 0 0 0 0 0 .4 0"/><feOffset dx="4.0" dy="4.0" in="blurOut2" result="blurOut3"/><feBlend in="SourceGraphic" in2="blurOut3" mode="normal"/></filter></defs><g><rect fill="none" filter="url(#f9rlqnniekvul)" height="169.5938" style="stroke:#000000;stroke-width:2.0;" width="777" x="10" y="88.9609"/><rect fill="none" filter="url(#f9rlqnniekvul)" height="104.8906" style="stroke:#000000;stroke-width:2.0;" width="757" x="20" y="114.3125"/><line style="stroke:#A80036;stroke-width:1.0;stroke-dasharray:5.0,5.0;" x1="110" x2="110" y1="41.6094" y2="275.5547"/><line style="stroke:#A80036;stroke-width:1.0;stroke-dasharray:5.0,5.0;" x1="427.5" x2="427.5" y1="41.6094" y2="275.5547"/><rect fill="#FEFECE" filter="url(#f9rlqnniekvul)" height="31.6094" style="stroke:#A80036;stroke-width:1.5;" width="156" x="30" y="5"/><text fill="#000000" font-family="sans-serif" font-size="14" lengthAdjust="spacing" textLength="142" x="37" y="26.5332">SystemStateTransition</text><rect fill="#FEFECE" filter="url(#f9rlqnniekvul)" height="31.6094" style="stroke:#A80036;stroke-width:1.5;" width="156" x="30" y="274.5547"/><text fill="#000000" font-family="sans-serif" font-size="14" lengthAdjust="spacing" textLength="142" x="37" y="296.0879">SystemStateTransition</text><rect fill="#FEFECE" filter="url(#f9rlqnniekvul)" height="31.6094" style="stroke:#A80036;stroke-width:1.5;" width="199" x="326.5" y="5"/><text fill="#000000" font-family="sans-serif" font-size="14" lengthAdjust="spacing" textLength="185" x="333.5" y="26.5332">PartProxyTransitionMetaData</text><rect fill="#FEFECE" filter="url(#f9rlqnniekvul)" height="31.6094" style="stroke:#A80036;stroke-width:1.5;" width="199" x="326.5" y="274.5547"/><text fill="#000000" font-family="sans-serif" font-size="14" lengthAdjust="spacing" textLength="185" x="333.5" y="296.0879">PartProxyTransitionMetaData</text><polygon fill="#A80036" points="416,69.9609,426,73.9609,416,77.9609,420,73.9609" style="stroke:#A80036;stroke-width:1.0;"/><line style="stroke:#A80036;stroke-width:1.0;" x1="110" x2="422" y1="73.9609" y2="73.9609"/><text fill="#000000" font-family="sans-serif" font-size="13" lengthAdjust="spacing" textLength="215" x="117" y="69.1045">sort  participants according to priority</text><path d="M10,88.9609 L71,88.9609 L71,97.3125 L61,107.3125 L10,107.3125 L10,88.9609 " fill="#EEEEEE" style="stroke:#000000;stroke-width:1.0;"/><rect fill="none" height="169.5938" style="stroke:#000000;stroke-width:2.0;" width="777" x="10" y="88.9609"/><text fill="#000000" font-family="sans-serif" font-size="13" font-weight="bold" lengthAdjust="spacing" textLength="16" x="25" y="103.4561">alt</text><text fill="#000000" font-family="sans-serif" font-size="11" font-weight="bold" lengthAdjust="spacing" textLength="190" x="86" y="102.3799">[target state Initialized or Running]</text><path d="M20,114.3125 L81,114.3125 L81,122.6641 L71,132.6641 L20,132.6641 L20,114.3125 " fill="#EEEEEE" style="stroke:#000000;stroke-width:1.0;"/><rect fill="none" height="104.8906" style="stroke:#000000;stroke-width:2.0;" width="757" x="20" y="114.3125"/><text fill="#000000" font-family="sans-serif" font-size="13" font-weight="bold" lengthAdjust="spacing" textLength="16" x="35" y="128.8076">alt</text><text fill="#000000" font-family="sans-serif" font-size="11" font-weight="bold" lengthAdjust="spacing" textLength="156" x="96" y="127.7314">[target state &gt; current state]</text><polygon fill="#A80036" points="121,156.0156,111,160.0156,121,164.0156,117,160.0156" style="stroke:#A80036;stroke-width:1.0;"/><line style="stroke:#A80036;stroke-width:1.0;stroke-dasharray:2.0,2.0;" x1="115" x2="427" y1="160.0156" y2="160.0156"/><text fill="#000000" font-family="sans-serif" font-size="13" lengthAdjust="spacing" textLength="294" x="127" y="155.1592">Sorting to decreasing prio - Highest Prio called first</text><path d="M433,137.6641 L433,163.6641 L758,163.6641 L758,147.6641 L748,137.6641 L433,137.6641 " fill="#FBFB77" filter="url(#f9rlqnniekvul)" style="stroke:#A80036;stroke-width:1.0;"/><path d="M748,137.6641 L748,147.6641 L758,147.6641 L748,137.6641 " fill="#FBFB77" style="stroke:#A80036;stroke-width:1.0;"/><text fill="#000000" font-family="sans-serif" font-size="13" lengthAdjust="spacing" textLength="304" x="439" y="156.1592">Init or Start priority used according to state transition</text><line style="stroke:#000000;stroke-width:1.0;stroke-dasharray:2.0,2.0;" x1="20" x2="777" y1="174.0156" y2="174.0156"/><text fill="#000000" font-family="sans-serif" font-size="11" font-weight="bold" lengthAdjust="spacing" textLength="156" x="25" y="185.4346">[target state &lt; current state]</text><polygon fill="#A80036" points="121,207.2031,111,211.2031,121,215.2031,117,211.2031" style="stroke:#A80036;stroke-width:1.0;"/><line style="stroke:#A80036;stroke-width:1.0;stroke-dasharray:2.0,2.0;" x1="115" x2="427" y1="211.2031" y2="211.2031"/><text fill="#000000" font-family="sans-serif" font-size="13" lengthAdjust="spacing" textLength="290" x="127" y="206.3467">Sorting to increasing prio - Highest Prio called last</text><line style="stroke:#000000;stroke-width:1.0;stroke-dasharray:2.0,2.0;" x1="10" x2="787" y1="227.2031" y2="227.2031"/><polygon fill="#A80036" points="121,246.5547,111,250.5547,121,254.5547,117,250.5547" style="stroke:#A80036;stroke-width:1.0;"/><line style="stroke:#A80036;stroke-width:1.0;stroke-dasharray:2.0,2.0;" x1="115" x2="427" y1="250.5547" y2="250.5547"/><text fill="#000000" font-family="sans-serif" font-size="13" lengthAdjust="spacing" textLength="216" x="127" y="245.6982">Sorting according to participant name</text><!--SRC=[hLBDJiCm3BxdAVm2VG4qxSG13aZJoWjOgIaMdLCvhhJoz3XRMLiOi0EvEVdixoVERooWALFOeHf7xb4CwZ4R7Mf3esT5oMoS9FGBH47lD1t7-Vs93E_HC8IhxL1jV-k2EyX93M31aW5ZJDgmj609UkMaR2E4W9s1eRPaa0iDF8fFmuxVgO6ai1z4l2k0ds_OBSH1bMIgmmbLpdNTcwhwGtZjmYUD3KKbpAKgSg621svVANjYfOpOTQxmXJNRXLQIYzexRBugTeeFr-APN8mFsPjNcPmTsVn9dnD8cZBtR8wwJEiCDbyo-CS8M6w9eCCf0HSQmadWJujpE_jwNHRhAdYWK9W-0000]--></g></svg>