<?xml version="1.0" encoding="us-ascii" standalone="no"?><svg xmlns="http://www.w3.org/2000/svg" xmlns:xlink="http://www.w3.org/1999/xlink" contentStyleType="text/css" height="1733px" preserveAspectRatio="none" style="width:952px;height:1733px;background:#FFFFFF;" version="1.1" viewBox="0 0 952 1733" width="952px" zoomAndPan="magnify"><defs><filter height="300%" id="f1wgywe9hz26zv" width="300%" x="-1" y="-1"><feGaussianBlur result="blurOut" stdDeviation="2.0"/><feColorMatrix in="blurOut" result="blurOut2" type="matrix" values="0 0 0 0 0 0 0 0 0 0 0 0 0 0 0 0 0 0 .4 0"/><feOffset dx="4.0" dy="4.0" in="blurOut2" result="blurOut3"/><feBlend in="SourceGraphic" in2="blurOut3" mode="normal"/></filter></defs><g><line style="stroke:#A80036;stroke-width:1.0;stroke-dasharray:5.0,5.0;" x1="22" x2="22" y1="89.6094" y2="1647.7813"/><line style="stroke:#A80036;stroke-width:1.0;stroke-dasharray:5.0,5.0;" x1="104" x2="104" y1="89.6094" y2="1647.7813"/><line style="stroke:#A80036;stroke-width:1.0;stroke-dasharray:5.0,5.0;" x1="218" x2="218" y1="89.6094" y2="1647.7813"/><line style="stroke:#A80036;stroke-width:1.0;stroke-dasharray:5.0,5.0;" x1="425" x2="425" y1="89.6094" y2="1647.7813"/><line style="stroke:#A80036;stroke-width:1.0;stroke-dasharray:5.0,5.0;" x1="632" x2="632" y1="89.6094" y2="1647.7813"/><line style="stroke:#A80036;stroke-width:1.0;stroke-dasharray:5.0,5.0;" x1="839" x2="839" y1="89.6094" y2="1647.7813"/><text fill="#000000" font-family="sans-serif" font-size="14" lengthAdjust="spacing" textLength="29" x="5" y="86.5332">User</text><ellipse cx="22.5" cy="15" fill="#FEFECE" filter="url(#f1wgywe9hz26zv)" rx="8" ry="8" style="stroke:#A80036;stroke-width:2.0;"/><path d="M22.5,23 L22.5,50 M9.5,31 L35.5,31 M22.5,50 L9.5,65 M22.5,50 L35.5,65 " fill="none" filter="url(#f1wgywe9hz26zv)" style="stroke:#A80036;stroke-width:2.0;"/><text fill="#000000" font-family="sans-serif" font-size="14" lengthAdjust="spacing" textLength="29" x="5" y="1661.3145">User</text><ellipse cx="22.5" cy="1674.3906" fill="#FEFECE" filter="url(#f1wgywe9hz26zv)" rx="8" ry="8" style="stroke:#A80036;stroke-width:2.0;"/><path d="M22.5,1682.3906 L22.5,1709.3906 M9.5,1690.3906 L35.5,1690.3906 M22.5,1709.3906 L9.5,1724.3906 M22.5,1709.3906 L35.5,1724.3906 " fill="none" filter="url(#f1wgywe9hz26zv)" style="stroke:#A80036;stroke-width:2.0;"/><rect fill="#FEFECE" filter="url(#f1wgywe9hz26zv)" height="31.6094" style="stroke:#A80036;stroke-width:1.5;" width="104" x="50" y="53"/><text fill="#000000" font-family="sans-serif" font-size="14" lengthAdjust="spacing" textLength="90" x="57" y="74.5332">SystemLibrary</text><rect fill="#FEFECE" filter="url(#f1wgywe9hz26zv)" height="31.6094" style="stroke:#A80036;stroke-width:1.5;" width="104" x="50" y="1646.7813"/><text fill="#000000" font-family="sans-serif" font-size="14" lengthAdjust="spacing" textLength="90" x="57" y="1668.3145">SystemLibrary</text><rect fill="#FEFECE" filter="url(#f1wgywe9hz26zv)" height="31.6094" style="stroke:#A80036;stroke-width:1.5;" width="97" x="168" y="53"/><text fill="#000000" font-family="sans-serif" font-size="14" lengthAdjust="spacing" textLength="83" x="175" y="74.5332">Participant_1</text><rect fill="#FEFECE" filter="url(#f1wgywe9hz26zv)" height="31.6094" style="stroke:#A80036;stroke-width:1.5;" width="97" x="168" y="1646.7813"/><text fill="#000000" font-family="sans-serif" font-size="14" lengthAdjust="spacing" textLength="83" x="175" y="1668.3145">Participant_1</text><rect fill="#FEFECE" filter="url(#f1wgywe9hz26zv)" height="31.6094" style="stroke:#A80036;stroke-width:1.5;" width="97" x="375" y="53"/><text fill="#000000" font-family="sans-serif" font-size="14" lengthAdjust="spacing" textLength="83" x="382" y="74.5332">Participant_2</text><rect fill="#FEFECE" filter="url(#f1wgywe9hz26zv)" height="31.6094" style="stroke:#A80036;stroke-width:1.5;" width="97" x="375" y="1646.7813"/><text fill="#000000" font-family="sans-serif" font-size="14" lengthAdjust="spacing" textLength="83" x="382" y="1668.3145">Participant_2</text><rect fill="#FEFECE" filter="url(#f1wgywe9hz26zv)" height="31.6094" style="stroke:#A80036;stroke-width:1.5;" width="97" x="582" y="53"/><text fill="#000000" font-family="sans-serif" font-size="14" lengthAdjust="spacing" textLength="83" x="589" y="74.5332">Participant_3</text><rect fill="#FEFECE" filter="url(#f1wgywe9hz26zv)" height="31.6094" style="stroke:#A80036;stroke-width:1.5;" width="97" x="582" y="1646.7813"/><text fill="#000000" font-family="sans-serif" font-size="14" lengthAdjust="spacing" textLength="83" x="589" y="1668.3145">Participant_3</text><rect fill="#FEFECE" filter="url(#f1wgywe9hz26zv)" height="31.6094" style="stroke:#A80036;stroke-width:1.5;" width="97" x="789" y="53"/><text fill="#000000" font-family="sans-serif" font-size="14" lengthAdjust="spacing" textLength="83" x="796" y="74.5332">Participant_4</text><rect fill="#FEFECE" filter="url(#f1wgywe9hz26zv)" height="31.6094" style="stroke:#A80036;stroke-width:1.5;" width="97" x="789" y="1646.7813"/><text fill="#000000" font-family="sans-serif" font-size="14" lengthAdjust="spacing" textLength="83" x="796" y="1668.3145">Participant_4</text><path d="M120,104.6094 L120,146.6094 L313,146.6094 L313,114.6094 L303,104.6094 L120,104.6094 " fill="#FFFAFA" filter="url(#f1wgywe9hz26zv)" style="stroke:#A80036;stroke-width:1.0;"/><path d="M303,104.6094 L303,114.6094 L313,114.6094 L303,104.6094 " fill="#FFFAFA" style="stroke:#A80036;stroke-width:1.0;"/><text fill="#000000" font-family="sans-serif" font-size="13" lengthAdjust="spacing" textLength="168" x="126" y="123.1045">init_priority 10 start_priority 5</text><text fill="#000000" font-family="sans-serif" font-size="13" lengthAdjust="spacing" textLength="133" x="130" y="139.4561">current state: unloaded</text><path d="M327,104.6094 L327,146.6094 L520,146.6094 L520,114.6094 L510,104.6094 L327,104.6094 " fill="#FFFAFA" filter="url(#f1wgywe9hz26zv)" style="stroke:#A80036;stroke-width:1.0;"/><path d="M510,104.6094 L510,114.6094 L520,114.6094 L510,104.6094 " fill="#FFFAFA" style="stroke:#A80036;stroke-width:1.0;"/><text fill="#000000" font-family="sans-serif" font-size="13" lengthAdjust="spacing" textLength="168" x="333" y="123.1045">init_priority 10 start_priority 5</text><text fill="#000000" font-family="sans-serif" font-size="13" lengthAdjust="spacing" textLength="133" x="337" y="139.4561">current state: unloaded</text><path d="M534,104.6094 L534,146.6094 L727,146.6094 L727,114.6094 L717,104.6094 L534,104.6094 " fill="#FFFAFA" filter="url(#f1wgywe9hz26zv)" style="stroke:#A80036;stroke-width:1.0;"/><path d="M717,104.6094 L717,114.6094 L727,114.6094 L717,104.6094 " fill="#FFFAFA" style="stroke:#A80036;stroke-width:1.0;"/><text fill="#000000" font-family="sans-serif" font-size="13" lengthAdjust="spacing" textLength="168" x="540" y="123.1045">init_priority 5 start_priority 10</text><text fill="#000000" font-family="sans-serif" font-size="13" lengthAdjust="spacing" textLength="133" x="544" y="139.4561">current state: unloaded</text><path d="M741,104.6094 L741,146.6094 L934,146.6094 L934,114.6094 L924,104.6094 L741,104.6094 " fill="#FFFAFA" filter="url(#f1wgywe9hz26zv)" style="stroke:#A80036;stroke-width:1.0;"/><path d="M924,104.6094 L924,114.6094 L934,114.6094 L924,104.6094 " fill="#FFFAFA" style="stroke:#A80036;stroke-width:1.0;"/><text fill="#000000" font-family="sans-serif" font-size="13" lengthAdjust="spacing" textLength="168" x="747" y="123.1045">init_priority 5 start_priority 10</text><text fill="#000000" font-family="sans-serif" font-size="13" lengthAdjust="spacing" textLength="133" x="751" y="139.4561">current state: unloaded</text><polygon fill="#A80036" points="92,174.6641,102,178.6641,92,182.6641,96,178.6641" style="stroke:#A80036;stroke-width:1.0;"/><line style="stroke:#A80036;stroke-width:1.0;" x1="22.5" x2="98" y1="178.6641" y2="178.6641"/><text fill="#000000" font-family="sans-serif" font-size="13" lengthAdjust="spacing" textLength="24" x="29.5" y="173.8076">load</text><polygon fill="#A80036" points="206.5,218.1914,216.5,222.1914,206.5,226.1914,210.5,222.1914" style="stroke:#A80036;stroke-width:1.0;"/><line style="stroke:#A80036;stroke-width:1.0;" x1="104" x2="212.5" y1="222.1914" y2="222.1914"/><text fill="#000000" font-family="sans-serif" font-size="13" lengthAdjust="spacing" textLength="24" x="111" y="217.335">load</text><path d="M223,191.6641 L223,233.6641 L461,233.6641 L461,201.6641 L451,191.6641 L223,191.6641 " fill="#FBFB77" filter="url(#f1wgywe9hz26zv)" style="stroke:#A80036;stroke-width:1.0;"/><path d="M451,191.6641 L451,201.6641 L461,201.6641 L451,191.6641 " fill="#FBFB77" style="stroke:#A80036;stroke-width:1.0;"/><text fill="#000000" font-family="sans-serif" font-size="13" lengthAdjust="spacing" textLength="215" x="229" y="210.1592">Triggering either parallel or sequential</text><text fill="#000000" font-family="sans-serif" font-size="13" lengthAdjust="spacing" textLength="115" x="229" y="226.5107">according to the set</text><a href="execution_policy.svg" target="_top" title="execution_policy.svg" xlink:actuate="onRequest" xlink:href="execution_policy.svg" xlink:show="new" xlink:title="execution_policy.svg" xlink:type="simple"><text fill="#0000FF" font-family="sans-serif" font-size="13" lengthAdjust="spacing" text-decoration="underline" textLength="98" x="348" y="226.5107">Execution Policy</text></a><polygon fill="#A80036" points="413.5,261.7188,423.5,265.7188,413.5,269.7188,417.5,265.7188" style="stroke:#A80036;stroke-width:1.0;"/><line style="stroke:#A80036;stroke-width:1.0;" x1="104" x2="419.5" y1="265.7188" y2="265.7188"/><text fill="#000000" font-family="sans-serif" font-size="13" lengthAdjust="spacing" textLength="24" x="111" y="260.8623">load</text><polygon fill="#A80036" points="620.5,292.0703,630.5,296.0703,620.5,300.0703,624.5,296.0703" style="stroke:#A80036;stroke-width:1.0;"/><line style="stroke:#A80036;stroke-width:1.0;" x1="104" x2="626.5" y1="296.0703" y2="296.0703"/><text fill="#000000" font-family="sans-serif" font-size="13" lengthAdjust="spacing" textLength="24" x="111" y="291.2139">load</text><polygon fill="#A80036" points="827.5,322.4219,837.5,326.4219,827.5,330.4219,831.5,326.4219" style="stroke:#A80036;stroke-width:1.0;"/><line style="stroke:#A80036;stroke-width:1.0;" x1="104" x2="833.5" y1="326.4219" y2="326.4219"/><text fill="#000000" font-family="sans-serif" font-size="13" lengthAdjust="spacing" textLength="24" x="111" y="321.5654">load</text><polygon fill="#A80036" points="33.5,336.4219,23.5,340.4219,33.5,344.4219,29.5,340.4219" style="stroke:#A80036;stroke-width:1.0;"/><line style="stroke:#A80036;stroke-width:1.0;stroke-dasharray:2.0,2.0;" x1="27.5" x2="103" y1="340.4219" y2="340.4219"/><path d="M146,353.4219 L146,379.4219 L286,379.4219 L286,363.4219 L276,353.4219 L146,353.4219 " fill="#FFFAFA" filter="url(#f1wgywe9hz26zv)" style="stroke:#A80036;stroke-width:1.0;"/><path d="M276,353.4219 L276,363.4219 L286,363.4219 L276,353.4219 " fill="#FFFAFA" style="stroke:#A80036;stroke-width:1.0;"/><text fill="#000000" font-family="sans-serif" font-size="13" lengthAdjust="spacing" textLength="119" x="152" y="371.917">current state: loaded</text><path d="M353,353.4219 L353,379.4219 L493,379.4219 L493,363.4219 L483,353.4219 L353,353.4219 " fill="#FFFAFA" filter="url(#f1wgywe9hz26zv)" style="stroke:#A80036;stroke-width:1.0;"/><path d="M483,353.4219 L483,363.4219 L493,363.4219 L483,353.4219 " fill="#FFFAFA" style="stroke:#A80036;stroke-width:1.0;"/><text fill="#000000" font-family="sans-serif" font-size="13" lengthAdjust="spacing" textLength="119" x="359" y="371.917">current state: loaded</text><path d="M560,353.4219 L560,379.4219 L700,379.4219 L700,363.4219 L690,353.4219 L560,353.4219 " fill="#FFFAFA" filter="url(#f1wgywe9hz26zv)" style="stroke:#A80036;stroke-width:1.0;"/><path d="M690,353.4219 L690,363.4219 L700,363.4219 L690,353.4219 " fill="#FFFAFA" style="stroke:#A80036;stroke-width:1.0;"/><text fill="#000000" font-family="sans-serif" font-size="13" lengthAdjust="spacing" textLength="119" x="566" y="371.917">current state: loaded</text><path d="M767,353.4219 L767,379.4219 L907,379.4219 L907,363.4219 L897,353.4219 L767,353.4219 " fill="#FFFAFA" filter="url(#f1wgywe9hz26zv)" style="stroke:#A80036;stroke-width:1.0;"/><path d="M897,353.4219 L897,363.4219 L907,363.4219 L897,353.4219 " fill="#FFFAFA" style="stroke:#A80036;stroke-width:1.0;"/><text fill="#000000" font-family="sans-serif" font-size="13" lengthAdjust="spacing" textLength="119" x="773" y="371.917">current state: loaded</text><polygon fill="#A80036" points="92,407.125,102,411.125,92,415.125,96,411.125" style="stroke:#A80036;stroke-width:1.0;"/><line style="stroke:#A80036;stroke-width:1.0;" x1="22.5" x2="98" y1="411.125" y2="411.125"/><text fill="#000000" font-family="sans-serif" font-size="13" lengthAdjust="spacing" textLength="47" x="29.5" y="406.2686">initialize</text><polygon fill="#A80036" points="206.5,450.6523,216.5,454.6523,206.5,458.6523,210.5,454.6523" style="stroke:#A80036;stroke-width:1.0;"/><line style="stroke:#A80036;stroke-width:1.0;" x1="104" x2="212.5" y1="454.6523" y2="454.6523"/><text fill="#000000" font-family="sans-serif" font-size="13" lengthAdjust="spacing" textLength="47" x="111" y="449.7959">initialize</text><path d="M223,424.125 L223,466.125 L461,466.125 L461,434.125 L451,424.125 L223,424.125 " fill="#FBFB77" filter="url(#f1wgywe9hz26zv)" style="stroke:#A80036;stroke-width:1.0;"/><path d="M451,424.125 L451,434.125 L461,434.125 L451,424.125 " fill="#FBFB77" style="stroke:#A80036;stroke-width:1.0;"/><text fill="#000000" font-family="sans-serif" font-size="13" lengthAdjust="spacing" textLength="215" x="229" y="442.6201">Triggering either parallel or sequential</text><text fill="#000000" font-family="sans-serif" font-size="13" lengthAdjust="spacing" textLength="115" x="229" y="458.9717">according to the set</text><a href="execution_policy.svg" target="_top" title="execution_policy.svg" xlink:actuate="onRequest" xlink:href="execution_policy.svg" xlink:show="new" xlink:title="execution_policy.svg" xlink:type="simple"><text fill="#0000FF" font-family="sans-serif" font-size="13" lengthAdjust="spacing" text-decoration="underline" textLength="98" x="348" y="458.9717">Execution Policy</text></a><polygon fill="#A80036" points="413.5,515.5313,423.5,519.5313,413.5,523.5313,417.5,519.5313" style="stroke:#A80036;stroke-width:1.0;"/><line style="stroke:#A80036;stroke-width:1.0;" x1="104" x2="419.5" y1="519.5313" y2="519.5313"/><text fill="#000000" font-family="sans-serif" font-size="13" lengthAdjust="spacing" textLength="47" x="111" y="514.6748">initialize</text><path d="M430,480.8281 L430,539.8281 L604,539.8281 L604,490.8281 L594,480.8281 L430,480.8281 " fill="#FBFB77" filter="url(#f1wgywe9hz26zv)" style="stroke:#A80036;stroke-width:1.0;"/><path d="M594,480.8281 L594,490.8281 L604,490.8281 L594,480.8281 " fill="#FBFB77" style="stroke:#A80036;stroke-width:1.0;"/><text fill="#000000" font-family="sans-serif" font-size="13" lengthAdjust="spacing" textLength="140" x="436" y="499.3232">initialize and start called</text><text fill="#000000" font-family="sans-serif" font-size="13" lengthAdjust="spacing" textLength="23" x="436" y="515.6748">with</text><text fill="#FF0000" font-family="sans-serif" font-size="13" lengthAdjust="spacing" textLength="124" x="463" y="515.6748">descending prio order</text><text fill="#FF0000" font-family="sans-serif" font-size="13" font-weight="bold" lengthAdjust="spacing" textLength="153" x="436" y="532.0264">higher Prio-&gt; lower Prio</text><rect fill="#EEEEEE" filter="url(#f1wgywe9hz26zv)" height="3" style="stroke:#EEEEEE;stroke-width:1.0;" width="943" x="0" y="570.0586"/><line style="stroke:#000000;stroke-width:1.0;" x1="0" x2="943" y1="570.0586" y2="570.0586"/><line style="stroke:#000000;stroke-width:1.0;" x1="0" x2="943" y1="573.0586" y2="573.0586"/><rect fill="#EEEEEE" filter="url(#f1wgywe9hz26zv)" height="24.3516" style="stroke:#000000;stroke-width:2.0;" width="251" x="346" y="558.8828"/><text fill="#000000" font-family="sans-serif" font-size="13" font-weight="bold" lengthAdjust="spacing" textLength="233" x="352" y="576.3779">Waits until state transitions complete</text><path d="M138,598.2344 L138,624.2344 L294,624.2344 L294,608.2344 L284,598.2344 L138,598.2344 " fill="#FFFAFA" filter="url(#f1wgywe9hz26zv)" style="stroke:#A80036;stroke-width:1.0;"/><path d="M284,598.2344 L284,608.2344 L294,608.2344 L284,598.2344 " fill="#FFFAFA" style="stroke:#A80036;stroke-width:1.0;"/><text fill="#000000" font-family="sans-serif" font-size="13" lengthAdjust="spacing" textLength="135" x="144" y="616.7295">current state: initialized</text><path d="M345,598.2344 L345,624.2344 L501,624.2344 L501,608.2344 L491,598.2344 L345,598.2344 " fill="#FFFAFA" filter="url(#f1wgywe9hz26zv)" style="stroke:#A80036;stroke-width:1.0;"/><path d="M491,598.2344 L491,608.2344 L501,608.2344 L491,598.2344 " fill="#FFFAFA" style="stroke:#A80036;stroke-width:1.0;"/><text fill="#000000" font-family="sans-serif" font-size="13" lengthAdjust="spacing" textLength="135" x="351" y="616.7295">current state: initialized</text><path d="M560,598.2344 L560,624.2344 L700,624.2344 L700,608.2344 L690,598.2344 L560,598.2344 " fill="#FFFAFA" filter="url(#f1wgywe9hz26zv)" style="stroke:#A80036;stroke-width:1.0;"/><path d="M690,598.2344 L690,608.2344 L700,608.2344 L690,598.2344 " fill="#FFFAFA" style="stroke:#A80036;stroke-width:1.0;"/><text fill="#000000" font-family="sans-serif" font-size="13" lengthAdjust="spacing" textLength="119" x="566" y="616.7295">current state: loaded</text><path d="M767,598.2344 L767,624.2344 L907,624.2344 L907,608.2344 L897,598.2344 L767,598.2344 " fill="#FFFAFA" filter="url(#f1wgywe9hz26zv)" style="stroke:#A80036;stroke-width:1.0;"/><path d="M897,598.2344 L897,608.2344 L907,608.2344 L897,598.2344 " fill="#FFFAFA" style="stroke:#A80036;stroke-width:1.0;"/><text fill="#000000" font-family="sans-serif" font-size="13" lengthAdjust="spacing" textLength="119" x="773" y="616.7295">current state: loaded</text><polygon fill="#A80036" points="620.5,665.1133,630.5,669.1133,620.5,673.1133,624.5,669.1133" style="stroke:#A80036;stroke-width:1.0;"/><line style="stroke:#A80036;stroke-width:1.0;" x1="104" x2="626.5" y1="669.1133" y2="669.1133"/><text fill="#000000" font-family="sans-serif" font-size="13" lengthAdjust="spacing" textLength="47" x="111" y="664.2568">initialize</text><path d="M637,638.5859 L637,680.5859 L875,680.5859 L875,648.5859 L865,638.5859 L637,638.5859 " fill="#FBFB77" filter="url(#f1wgywe9hz26zv)" style="stroke:#A80036;stroke-width:1.0;"/><path d="M865,638.5859 L865,648.5859 L875,648.5859 L865,638.5859 " fill="#FBFB77" style="stroke:#A80036;stroke-width:1.0;"/><text fill="#000000" font-family="sans-serif" font-size="13" lengthAdjust="spacing" textLength="215" x="643" y="657.0811">Triggering either parallel or sequential</text><text fill="#000000" font-family="sans-serif" font-size="13" lengthAdjust="spacing" textLength="115" x="643" y="673.4326">according to the set</text><a href="execution_policy.svg" target="_top" title="execution_policy.svg" xlink:actuate="onRequest" xlink:href="execution_policy.svg" xlink:show="new" xlink:title="execution_policy.svg" xlink:type="simple"><text fill="#0000FF" font-family="sans-serif" font-size="13" lengthAdjust="spacing" text-decoration="underline" textLength="98" x="762" y="673.4326">Execution Policy</text></a><polygon fill="#A80036" points="827.5,708.6406,837.5,712.6406,827.5,716.6406,831.5,712.6406" style="stroke:#A80036;stroke-width:1.0;"/><line style="stroke:#A80036;stroke-width:1.0;" x1="104" x2="833.5" y1="712.6406" y2="712.6406"/><text fill="#000000" font-family="sans-serif" font-size="13" lengthAdjust="spacing" textLength="47" x="111" y="707.7842">initialize</text><path d="M138,725.6406 L138,751.6406 L294,751.6406 L294,735.6406 L284,725.6406 L138,725.6406 " fill="#FFFAFA" filter="url(#f1wgywe9hz26zv)" style="stroke:#A80036;stroke-width:1.0;"/><path d="M284,725.6406 L284,735.6406 L294,735.6406 L284,725.6406 " fill="#FFFAFA" style="stroke:#A80036;stroke-width:1.0;"/><text fill="#000000" font-family="sans-serif" font-size="13" lengthAdjust="spacing" textLength="135" x="144" y="744.1357">current state: initialized</text><path d="M345,725.6406 L345,751.6406 L501,751.6406 L501,735.6406 L491,725.6406 L345,725.6406 " fill="#FFFAFA" filter="url(#f1wgywe9hz26zv)" style="stroke:#A80036;stroke-width:1.0;"/><path d="M491,725.6406 L491,735.6406 L501,735.6406 L491,725.6406 " fill="#FFFAFA" style="stroke:#A80036;stroke-width:1.0;"/><text fill="#000000" font-family="sans-serif" font-size="13" lengthAdjust="spacing" textLength="135" x="351" y="744.1357">current state: initialized</text><path d="M552,725.6406 L552,751.6406 L708,751.6406 L708,735.6406 L698,725.6406 L552,725.6406 " fill="#FFFAFA" filter="url(#f1wgywe9hz26zv)" style="stroke:#A80036;stroke-width:1.0;"/><path d="M698,725.6406 L698,735.6406 L708,735.6406 L698,725.6406 " fill="#FFFAFA" style="stroke:#A80036;stroke-width:1.0;"/><text fill="#000000" font-family="sans-serif" font-size="13" lengthAdjust="spacing" textLength="135" x="558" y="744.1357">current state: initialized</text><path d="M759,725.6406 L759,751.6406 L915,751.6406 L915,735.6406 L905,725.6406 L759,725.6406 " fill="#FFFAFA" filter="url(#f1wgywe9hz26zv)" style="stroke:#A80036;stroke-width:1.0;"/><path d="M905,725.6406 L905,735.6406 L915,735.6406 L905,725.6406 " fill="#FFFAFA" style="stroke:#A80036;stroke-width:1.0;"/><text fill="#000000" font-family="sans-serif" font-size="13" lengthAdjust="spacing" textLength="135" x="765" y="744.1357">current state: initialized</text><rect fill="#EEEEEE" filter="url(#f1wgywe9hz26zv)" height="3" style="stroke:#EEEEEE;stroke-width:1.0;" width="943" x="0" y="782.168"/><line style="stroke:#000000;stroke-width:1.0;" x1="0" x2="943" y1="782.168" y2="782.168"/><line style="stroke:#000000;stroke-width:1.0;" x1="0" x2="943" y1="785.168" y2="785.168"/><rect fill="#EEEEEE" filter="url(#f1wgywe9hz26zv)" height="24.3516" style="stroke:#000000;stroke-width:2.0;" width="196" x="373.5" y="770.9922"/><text fill="#000000" font-family="sans-serif" font-size="13" font-weight="bold" lengthAdjust="spacing" textLength="178" x="379.5" y="788.4873">All participants in initialized</text><polygon fill="#A80036" points="33.5,807.3438,23.5,811.3438,33.5,815.3438,29.5,811.3438" style="stroke:#A80036;stroke-width:1.0;"/><line style="stroke:#A80036;stroke-width:1.0;stroke-dasharray:2.0,2.0;" x1="27.5" x2="103" y1="811.3438" y2="811.3438"/><polygon fill="#A80036" points="92,837.6953,102,841.6953,92,845.6953,96,841.6953" style="stroke:#A80036;stroke-width:1.0;"/><line style="stroke:#A80036;stroke-width:1.0;" x1="22.5" x2="98" y1="841.6953" y2="841.6953"/><text fill="#000000" font-family="sans-serif" font-size="13" lengthAdjust="spacing" textLength="26" x="29.5" y="836.8389">start</text><polygon fill="#A80036" points="620.5,881.2227,630.5,885.2227,620.5,889.2227,624.5,885.2227" style="stroke:#A80036;stroke-width:1.0;"/><line style="stroke:#A80036;stroke-width:1.0;" x1="104" x2="626.5" y1="885.2227" y2="885.2227"/><text fill="#000000" font-family="sans-serif" font-size="13" lengthAdjust="spacing" textLength="26" x="111" y="880.3662">start</text><path d="M637,854.6953 L637,896.6953 L875,896.6953 L875,864.6953 L865,854.6953 L637,854.6953 " fill="#FBFB77" filter="url(#f1wgywe9hz26zv)" style="stroke:#A80036;stroke-width:1.0;"/><path d="M865,854.6953 L865,864.6953 L875,864.6953 L865,854.6953 " fill="#FBFB77" style="stroke:#A80036;stroke-width:1.0;"/><text fill="#000000" font-family="sans-serif" font-size="13" lengthAdjust="spacing" textLength="215" x="643" y="873.1904">Triggering either parallel or sequential</text><text fill="#000000" font-family="sans-serif" font-size="13" lengthAdjust="spacing" textLength="115" x="643" y="889.542">according to the set</text><a href="execution_policy.svg" target="_top" title="execution_policy.svg" xlink:actuate="onRequest" xlink:href="execution_policy.svg" xlink:show="new" xlink:title="execution_policy.svg" xlink:type="simple"><text fill="#0000FF" font-family="sans-serif" font-size="13" lengthAdjust="spacing" text-decoration="underline" textLength="98" x="762" y="889.542">Execution Policy</text></a><polygon fill="#A80036" points="827.5,924.75,837.5,928.75,827.5,932.75,831.5,928.75" style="stroke:#A80036;stroke-width:1.0;"/><line style="stroke:#A80036;stroke-width:1.0;" x1="104" x2="833.5" y1="928.75" y2="928.75"/><text fill="#000000" font-family="sans-serif" font-size="13" lengthAdjust="spacing" textLength="26" x="111" y="923.8936">start</text><rect fill="#EEEEEE" filter="url(#f1wgywe9hz26zv)" height="3" style="stroke:#EEEEEE;stroke-width:1.0;" width="943" x="0" y="957.9258"/><line style="stroke:#000000;stroke-width:1.0;" x1="0" x2="943" y1="957.9258" y2="957.9258"/><line style="stroke:#000000;stroke-width:1.0;" x1="0" x2="943" y1="960.9258" y2="960.9258"/><rect fill="#EEEEEE" filter="url(#f1wgywe9hz26zv)" height="24.3516" style="stroke:#000000;stroke-width:2.0;" width="251" x="346" y="946.75"/><text fill="#000000" font-family="sans-serif" font-size="13" font-weight="bold" lengthAdjust="spacing" textLength="233" x="352" y="964.2451">Waits until state transitions complete</text><path d="M138,986.1016 L138,1012.1016 L294,1012.1016 L294,996.1016 L284,986.1016 L138,986.1016 " fill="#FFFAFA" filter="url(#f1wgywe9hz26zv)" style="stroke:#A80036;stroke-width:1.0;"/><path d="M284,986.1016 L284,996.1016 L294,996.1016 L284,986.1016 " fill="#FFFAFA" style="stroke:#A80036;stroke-width:1.0;"/><text fill="#000000" font-family="sans-serif" font-size="13" lengthAdjust="spacing" textLength="135" x="144" y="1004.5967">current state: initialized</text><path d="M345,986.1016 L345,1012.1016 L501,1012.1016 L501,996.1016 L491,986.1016 L345,986.1016 " fill="#FFFAFA" filter="url(#f1wgywe9hz26zv)" style="stroke:#A80036;stroke-width:1.0;"/><path d="M491,986.1016 L491,996.1016 L501,996.1016 L491,986.1016 " fill="#FFFAFA" style="stroke:#A80036;stroke-width:1.0;"/><text fill="#000000" font-family="sans-serif" font-size="13" lengthAdjust="spacing" textLength="135" x="351" y="1004.5967">current state: initialized</text><path d="M558,986.1016 L558,1012.1016 L702,1012.1016 L702,996.1016 L692,986.1016 L558,986.1016 " fill="#FFFAFA" filter="url(#f1wgywe9hz26zv)" style="stroke:#A80036;stroke-width:1.0;"/><path d="M692,986.1016 L692,996.1016 L702,996.1016 L692,986.1016 " fill="#FFFAFA" style="stroke:#A80036;stroke-width:1.0;"/><text fill="#000000" font-family="sans-serif" font-size="13" lengthAdjust="spacing" textLength="123" x="564" y="1004.5967">current state: running</text><path d="M765,986.1016 L765,1012.1016 L909,1012.1016 L909,996.1016 L899,986.1016 L765,986.1016 " fill="#FFFAFA" filter="url(#f1wgywe9hz26zv)" style="stroke:#A80036;stroke-width:1.0;"/><path d="M899,986.1016 L899,996.1016 L909,996.1016 L899,986.1016 " fill="#FFFAFA" style="stroke:#A80036;stroke-width:1.0;"/><text fill="#000000" font-family="sans-serif" font-size="13" lengthAdjust="spacing" textLength="123" x="771" y="1004.5967">current state: running</text><polygon fill="#A80036" points="206.5,1052.9805,216.5,1056.9805,206.5,1060.9805,210.5,1056.9805" style="stroke:#A80036;stroke-width:1.0;"/><line style="stroke:#A80036;stroke-width:1.0;" x1="104" x2="212.5" y1="1056.9805" y2="1056.9805"/><text fill="#000000" font-family="sans-serif" font-size="13" lengthAdjust="spacing" textLength="26" x="111" y="1052.124">start</text><path d="M223,1026.4531 L223,1068.4531 L461,1068.4531 L461,1036.4531 L451,1026.4531 L223,1026.4531 " fill="#FBFB77" filter="url(#f1wgywe9hz26zv)" style="stroke:#A80036;stroke-width:1.0;"/><path d="M451,1026.4531 L451,1036.4531 L461,1036.4531 L451,1026.4531 " fill="#FBFB77" style="stroke:#A80036;stroke-width:1.0;"/><text fill="#000000" font-family="sans-serif" font-size="13" lengthAdjust="spacing" textLength="215" x="229" y="1044.9482">Triggering either parallel or sequential</text><text fill="#000000" font-family="sans-serif" font-size="13" lengthAdjust="spacing" textLength="115" x="229" y="1061.2998">according to the set</text><a href="execution_policy.svg" target="_top" title="execution_policy.svg" xlink:actuate="onRequest" xlink:href="execution_policy.svg" xlink:show="new" xlink:title="execution_policy.svg" xlink:type="simple"><text fill="#0000FF" font-family="sans-serif" font-size="13" lengthAdjust="spacing" text-decoration="underline" textLength="98" x="348" y="1061.2998">Execution Policy</text></a><polygon fill="#A80036" points="413.5,1096.5078,423.5,1100.5078,413.5,1104.5078,417.5,1100.5078" style="stroke:#A80036;stroke-width:1.0;"/><line style="stroke:#A80036;stroke-width:1.0;" x1="104" x2="419.5" y1="1100.5078" y2="1100.5078"/><text fill="#000000" font-family="sans-serif" font-size="13" lengthAdjust="spacing" textLength="26" x="111" y="1095.6514">start</text><path d="M144,1113.5078 L144,1139.5078 L288,1139.5078 L288,1123.5078 L278,1113.5078 L144,1113.5078 " fill="#FFFAFA" filter="url(#f1wgywe9hz26zv)" style="stroke:#A80036;stroke-width:1.0;"/><path d="M278,1113.5078 L278,1123.5078 L288,1123.5078 L278,1113.5078 " fill="#FFFAFA" style="stroke:#A80036;stroke-width:1.0;"/><text fill="#000000" font-family="sans-serif" font-size="13" lengthAdjust="spacing" textLength="123" x="150" y="1132.0029">current state: running</text><path d="M351,1113.5078 L351,1139.5078 L495,1139.5078 L495,1123.5078 L485,1113.5078 L351,1113.5078 " fill="#FFFAFA" filter="url(#f1wgywe9hz26zv)" style="stroke:#A80036;stroke-width:1.0;"/><path d="M485,1113.5078 L485,1123.5078 L495,1123.5078 L485,1113.5078 " fill="#FFFAFA" style="stroke:#A80036;stroke-width:1.0;"/><text fill="#000000" font-family="sans-serif" font-size="13" lengthAdjust="spacing" textLength="123" x="357" y="1132.0029">current state: running</text><path d="M558,1113.5078 L558,1139.5078 L702,1139.5078 L702,1123.5078 L692,1113.5078 L558,1113.5078 " fill="#FFFAFA" filter="url(#f1wgywe9hz26zv)" style="stroke:#A80036;stroke-width:1.0;"/><path d="M692,1113.5078 L692,1123.5078 L702,1123.5078 L692,1113.5078 " fill="#FFFAFA" style="stroke:#A80036;stroke-width:1.0;"/><text fill="#000000" font-family="sans-serif" font-size="13" lengthAdjust="spacing" textLength="123" x="564" y="1132.0029">current state: running</text><path d="M765,1113.5078 L765,1139.5078 L909,1139.5078 L909,1123.5078 L899,1113.5078 L765,1113.5078 " fill="#FFFAFA" filter="url(#f1wgywe9hz26zv)" style="stroke:#A80036;stroke-width:1.0;"/><path d="M899,1113.5078 L899,1123.5078 L909,1123.5078 L899,1113.5078 " fill="#FFFAFA" style="stroke:#A80036;stroke-width:1.0;"/><text fill="#000000" font-family="sans-serif" font-size="13" lengthAdjust="spacing" textLength="123" x="771" y="1132.0029">current state: running</text><rect fill="#EEEEEE" filter="url(#f1wgywe9hz26zv)" height="3" style="stroke:#EEEEEE;stroke-width:1.0;" width="943" x="0" y="1170.0352"/><line style="stroke:#000000;stroke-width:1.0;" x1="0" x2="943" y1="1170.0352" y2="1170.0352"/><line style="stroke:#000000;stroke-width:1.0;" x1="0" x2="943" y1="1173.0352" y2="1173.0352"/><rect fill="#EEEEEE" filter="url(#f1wgywe9hz26zv)" height="24.3516" style="stroke:#000000;stroke-width:2.0;" width="182" x="380.5" y="1158.8594"/><text fill="#000000" font-family="sans-serif" font-size="13" font-weight="bold" lengthAdjust="spacing" textLength="164" x="386.5" y="1176.3545">All participants in running</text><polygon fill="#A80036" points="33.5,1195.2109,23.5,1199.2109,33.5,1203.2109,29.5,1199.2109" style="stroke:#A80036;stroke-width:1.0;"/><line style="stroke:#A80036;stroke-width:1.0;stroke-dasharray:2.0,2.0;" x1="27.5" x2="103" y1="1199.2109" y2="1199.2109"/><polygon fill="#A80036" points="92,1225.5625,102,1229.5625,92,1233.5625,96,1229.5625" style="stroke:#A80036;stroke-width:1.0;"/><line style="stroke:#A80036;stroke-width:1.0;" x1="22.5" x2="98" y1="1229.5625" y2="1229.5625"/><text fill="#000000" font-family="sans-serif" font-size="13" lengthAdjust="spacing" textLength="25" x="29.5" y="1224.7061">stop</text><polygon fill="#A80036" points="206.5,1282.2656,216.5,1286.2656,206.5,1290.2656,210.5,1286.2656" style="stroke:#A80036;stroke-width:1.0;"/><line style="stroke:#A80036;stroke-width:1.0;" x1="104" x2="212.5" y1="1286.2656" y2="1286.2656"/><text fill="#000000" font-family="sans-serif" font-size="13" lengthAdjust="spacing" textLength="25" x="111" y="1281.4092">stop</text><path d="M223,1242.5625 L223,1284.5625 L461,1284.5625 L461,1252.5625 L451,1242.5625 L223,1242.5625 " fill="#FBFB77" filter="url(#f1wgywe9hz26zv)" style="stroke:#A80036;stroke-width:1.0;"/><path d="M451,1242.5625 L451,1252.5625 L461,1252.5625 L451,1242.5625 " fill="#FBFB77" style="stroke:#A80036;stroke-width:1.0;"/><text fill="#000000" font-family="sans-serif" font-size="13" lengthAdjust="spacing" textLength="215" x="229" y="1261.0576">Triggering either parallel or sequential</text><text fill="#000000" font-family="sans-serif" font-size="13" lengthAdjust="spacing" textLength="115" x="229" y="1277.4092">according to the set</text><a href="execution_policy.svg" target="_top" title="execution_policy.svg" xlink:actuate="onRequest" xlink:href="execution_policy.svg" xlink:show="new" xlink:title="execution_policy.svg" xlink:type="simple"><text fill="#0000FF" font-family="sans-serif" font-size="13" lengthAdjust="spacing" text-decoration="underline" textLength="98" x="348" y="1277.4092">Execution Policy</text></a><path d="M223,1242.5625 L223,1284.5625 L461,1284.5625 L461,1252.5625 L451,1242.5625 L223,1242.5625 " fill="#FBFB77" filter="url(#f1wgywe9hz26zv)" style="stroke:#A80036;stroke-width:1.0;"/><path d="M451,1242.5625 L451,1252.5625 L461,1252.5625 L451,1242.5625 " fill="#FBFB77" style="stroke:#A80036;stroke-width:1.0;"/><text fill="#000000" font-family="sans-serif" font-size="13" lengthAdjust="spacing" textLength="215" x="229" y="1261.0576">Triggering either parallel or sequential</text><text fill="#000000" font-family="sans-serif" font-size="13" lengthAdjust="spacing" textLength="115" x="229" y="1277.4092">according to the set</text><a href="execution_policy.svg" target="_top" title="execution_policy.svg" xlink:actuate="onRequest" xlink:href="execution_policy.svg" xlink:show="new" xlink:title="execution_policy.svg" xlink:type="simple"><text fill="#0000FF" font-family="sans-serif" font-size="13" lengthAdjust="spacing" text-decoration="underline" textLength="98" x="348" y="1277.4092">Execution Policy</text></a><polygon fill="#A80036" points="413.5,1333.9688,423.5,1337.9688,413.5,1341.9688,417.5,1337.9688" style="stroke:#A80036;stroke-width:1.0;"/><line style="stroke:#A80036;stroke-width:1.0;" x1="104" x2="419.5" y1="1337.9688" y2="1337.9688"/><text fill="#000000" font-family="sans-serif" font-size="13" lengthAdjust="spacing" textLength="25" x="111" y="1333.1123">stop</text><path d="M430,1299.2656 L430,1358.2656 L606,1358.2656 L606,1309.2656 L596,1299.2656 L430,1299.2656 " fill="#FBFB77" filter="url(#f1wgywe9hz26zv)" style="stroke:#A80036;stroke-width:1.0;"/><path d="M596,1299.2656 L596,1309.2656 L606,1309.2656 L596,1299.2656 " fill="#FBFB77" style="stroke:#A80036;stroke-width:1.0;"/><text fill="#000000" font-family="sans-serif" font-size="13" lengthAdjust="spacing" textLength="155" x="436" y="1317.7607">Stop and deinitialize called</text><text fill="#000000" font-family="sans-serif" font-size="13" lengthAdjust="spacing" textLength="23" x="436" y="1334.1123">with</text><text fill="#FF0000" font-family="sans-serif" font-size="13" lengthAdjust="spacing" textLength="117" x="463" y="1334.1123">ascending prio order</text><text fill="#FF0000" font-family="sans-serif" font-size="13" font-weight="bold" lengthAdjust="spacing" textLength="153" x="436" y="1350.4639">lower Prio-&gt; higher Prio</text><rect fill="#EEEEEE" filter="url(#f1wgywe9hz26zv)" height="3" style="stroke:#EEEEEE;stroke-width:1.0;" width="943" x="0" y="1388.4961"/><line style="stroke:#000000;stroke-width:1.0;" x1="0" x2="943" y1="1388.4961" y2="1388.4961"/><line style="stroke:#000000;stroke-width:1.0;" x1="0" x2="943" y1="1391.4961" y2="1391.4961"/><rect fill="#EEEEEE" filter="url(#f1wgywe9hz26zv)" height="24.3516" style="stroke:#000000;stroke-width:2.0;" width="251" x="346" y="1377.3203"/><text fill="#000000" font-family="sans-serif" font-size="13" font-weight="bold" lengthAdjust="spacing" textLength="233" x="352" y="1394.8154">Waits until state transitions complete</text><path d="M138,1416.6719 L138,1442.6719 L294,1442.6719 L294,1426.6719 L284,1416.6719 L138,1416.6719 " fill="#FFFAFA" filter="url(#f1wgywe9hz26zv)" style="stroke:#A80036;stroke-width:1.0;"/><path d="M284,1416.6719 L284,1426.6719 L294,1426.6719 L284,1416.6719 " fill="#FFFAFA" style="stroke:#A80036;stroke-width:1.0;"/><text fill="#000000" font-family="sans-serif" font-size="13" lengthAdjust="spacing" textLength="135" x="144" y="1435.167">current state: initialized</text><path d="M345,1416.6719 L345,1442.6719 L501,1442.6719 L501,1426.6719 L491,1416.6719 L345,1416.6719 " fill="#FFFAFA" filter="url(#f1wgywe9hz26zv)" style="stroke:#A80036;stroke-width:1.0;"/><path d="M491,1416.6719 L491,1426.6719 L501,1426.6719 L491,1416.6719 " fill="#FFFAFA" style="stroke:#A80036;stroke-width:1.0;"/><text fill="#000000" font-family="sans-serif" font-size="13" lengthAdjust="spacing" textLength="135" x="351" y="1435.167">current state: initialized</text><path d="M558,1416.6719 L558,1442.6719 L702,1442.6719 L702,1426.6719 L692,1416.6719 L558,1416.6719 " fill="#FFFAFA" filter="url(#f1wgywe9hz26zv)" style="stroke:#A80036;stroke-width:1.0;"/><path d="M692,1416.6719 L692,1426.6719 L702,1426.6719 L692,1416.6719 " fill="#FFFAFA" style="stroke:#A80036;stroke-width:1.0;"/><text fill="#000000" font-family="sans-serif" font-size="13" lengthAdjust="spacing" textLength="123" x="564" y="1435.167">current state: running</text><path d="M765,1416.6719 L765,1442.6719 L909,1442.6719 L909,1426.6719 L899,1416.6719 L765,1416.6719 " fill="#FFFAFA" filter="url(#f1wgywe9hz26zv)" style="stroke:#A80036;stroke-width:1.0;"/><path d="M899,1416.6719 L899,1426.6719 L909,1426.6719 L899,1416.6719 " fill="#FFFAFA" style="stroke:#A80036;stroke-width:1.0;"/><text fill="#000000" font-family="sans-serif" font-size="13" lengthAdjust="spacing" textLength="123" x="771" y="1435.167">current state: running</text><polygon fill="#A80036" points="620.5,1483.5508,630.5,1487.5508,620.5,1491.5508,624.5,1487.5508" style="stroke:#A80036;stroke-width:1.0;"/><line style="stroke:#A80036;stroke-width:1.0;" x1="104" x2="626.5" y1="1487.5508" y2="1487.5508"/><text fill="#000000" font-family="sans-serif" font-size="13" lengthAdjust="spacing" textLength="25" x="111" y="1482.6943">stop</text><path d="M637,1457.0234 L637,1499.0234 L875,1499.0234 L875,1467.0234 L865,1457.0234 L637,1457.0234 " fill="#FBFB77" filter="url(#f1wgywe9hz26zv)" style="stroke:#A80036;stroke-width:1.0;"/><path d="M865,1457.0234 L865,1467.0234 L875,1467.0234 L865,1457.0234 " fill="#FBFB77" style="stroke:#A80036;stroke-width:1.0;"/><text fill="#000000" font-family="sans-serif" font-size="13" lengthAdjust="spacing" textLength="215" x="643" y="1475.5186">Triggering either parallel or sequential</text><text fill="#000000" font-family="sans-serif" font-size="13" lengthAdjust="spacing" textLength="115" x="643" y="1491.8701">according to the set</text><a href="execution_policy.svg" target="_top" title="execution_policy.svg" xlink:actuate="onRequest" xlink:href="execution_policy.svg" xlink:show="new" xlink:title="execution_policy.svg" xlink:type="simple"><text fill="#0000FF" font-family="sans-serif" font-size="13" lengthAdjust="spacing" text-decoration="underline" textLength="98" x="762" y="1491.8701">Execution Policy</text></a><polygon fill="#A80036" points="827.5,1527.0781,837.5,1531.0781,827.5,1535.0781,831.5,1531.0781" style="stroke:#A80036;stroke-width:1.0;"/><line style="stroke:#A80036;stroke-width:1.0;" x1="104" x2="833.5" y1="1531.0781" y2="1531.0781"/><text fill="#000000" font-family="sans-serif" font-size="13" lengthAdjust="spacing" textLength="25" x="111" y="1526.2217">stop</text><path d="M138,1544.0781 L138,1570.0781 L294,1570.0781 L294,1554.0781 L284,1544.0781 L138,1544.0781 " fill="#FFFAFA" filter="url(#f1wgywe9hz26zv)" style="stroke:#A80036;stroke-width:1.0;"/><path d="M284,1544.0781 L284,1554.0781 L294,1554.0781 L284,1544.0781 " fill="#FFFAFA" style="stroke:#A80036;stroke-width:1.0;"/><text fill="#000000" font-family="sans-serif" font-size="13" lengthAdjust="spacing" textLength="135" x="144" y="1562.5732">current state: initialized</text><path d="M345,1544.0781 L345,1570.0781 L501,1570.0781 L501,1554.0781 L491,1544.0781 L345,1544.0781 " fill="#FFFAFA" filter="url(#f1wgywe9hz26zv)" style="stroke:#A80036;stroke-width:1.0;"/><path d="M491,1544.0781 L491,1554.0781 L501,1554.0781 L491,1544.0781 " fill="#FFFAFA" style="stroke:#A80036;stroke-width:1.0;"/><text fill="#000000" font-family="sans-serif" font-size="13" lengthAdjust="spacing" textLength="135" x="351" y="1562.5732">current state: initialized</text><path d="M552,1544.0781 L552,1570.0781 L708,1570.0781 L708,1554.0781 L698,1544.0781 L552,1544.0781 " fill="#FFFAFA" filter="url(#f1wgywe9hz26zv)" style="stroke:#A80036;stroke-width:1.0;"/><path d="M698,1544.0781 L698,1554.0781 L708,1554.0781 L698,1544.0781 " fill="#FFFAFA" style="stroke:#A80036;stroke-width:1.0;"/><text fill="#000000" font-family="sans-serif" font-size="13" lengthAdjust="spacing" textLength="135" x="558" y="1562.5732">current state: initialized</text><path d="M759,1544.0781 L759,1570.0781 L915,1570.0781 L915,1554.0781 L905,1544.0781 L759,1544.0781 " fill="#FFFAFA" filter="url(#f1wgywe9hz26zv)" style="stroke:#A80036;stroke-width:1.0;"/><path d="M905,1544.0781 L905,1554.0781 L915,1554.0781 L905,1544.0781 " fill="#FFFAFA" style="stroke:#A80036;stroke-width:1.0;"/><text fill="#000000" font-family="sans-serif" font-size="13" lengthAdjust="spacing" textLength="135" x="765" y="1562.5732">current state: initialized</text><rect fill="#EEEEEE" filter="url(#f1wgywe9hz26zv)" height="3" style="stroke:#EEEEEE;stroke-width:1.0;" width="943" x="0" y="1600.6055"/><line style="stroke:#000000;stroke-width:1.0;" x1="0" x2="943" y1="1600.6055" y2="1600.6055"/><line style="stroke:#000000;stroke-width:1.0;" x1="0" x2="943" y1="1603.6055" y2="1603.6055"/><rect fill="#EEEEEE" filter="url(#f1wgywe9hz26zv)" height="24.3516" style="stroke:#000000;stroke-width:2.0;" width="196" x="373.5" y="1589.4297"/><text fill="#000000" font-family="sans-serif" font-size="13" font-weight="bold" lengthAdjust="spacing" textLength="178" x="379.5" y="1606.9248">All participants in initialized</text><polygon fill="#A80036" points="33.5,1625.7813,23.5,1629.7813,33.5,1633.7813,29.5,1629.7813" style="stroke:#A80036;stroke-width:1.0;"/><line style="stroke:#A80036;stroke-width:1.0;stroke-dasharray:2.0,2.0;" x1="27.5" x2="103" y1="1629.7813" y2="1629.7813"/><!--SRC=[vLPDRzim3BthLn3OBK3MrN4lGHgWXzrsAD0DEtH5eDb48aoLF4bkbltwKNOCVynVpTOcsKw9oKVgcNoKQRy91KPRP8n7JXluPD6mX1id8f5mvU1kPnq-VX1V3JSxLdFTblzNbz3f2ZeziqvFo1XJsY7e9pIDWzvOfRSm1w64MoL6Q2FS3YxVWNM4AorNy4L1b1g3b9ny3kUGAgbvZ36xWFRqGPx-px93P_fPU_ghPdOwxm3ouL_9phm6fijQuwdStajTgPkdotfpzh2CdX7hZMCVwMUDHgWre70ROamzvrAY19ARnUyfSH1SaluYRMAFSne8I3u7z_Vu0wFK2QrMYPOYshsrJsjuNnZXDZC-F31KiJzrW62m9zWBceq1XKL5VBLWCPqs1gLVllDczSVAiZrkXE2UTrxO7zQb4QyxwgNuYIEKKW4VKIz3ScbdMLg1gpYVBuWypPXjYJOi8Ys9hy5u6QEDw3JFr4yWlKQCPd6H0PPiCgb0DvJSTu9Wn4JgxVwXG4ycfSwlh-4p5yxIu3eXymQ1CrnPuT_KGgGV4uba9EJWPTheS_b-Wvhi3HuK9XoepCwumT4-0zc5lxCyYzQDEJeS4-p5VICbLDO3Iu0QFQ_ghhkt_NRAffGDAoJ7dR0uSeB_wWLWKgMeXCzNK14u-EKvxGO7DOBZMpPKj-3Gm1ViLCUSx_szCzuvv3fXOoH0i2CguAJ5Lo_D7JrdMqwCbRMdOzdXetUTShiX2fN5vt_QTLxugfiTN-V3dxA2t-itx7mNd5y0]--></g></svg>