<?xml version="1.0" encoding="us-ascii" standalone="no"?><svg xmlns="http://www.w3.org/2000/svg" xmlns:xlink="http://www.w3.org/1999/xlink" contentStyleType="text/css" height="535px" preserveAspectRatio="none" style="width:559px;height:535px;background:#FFFFFF;" version="1.1" viewBox="0 0 559 535" width="559px" zoomAndPan="magnify"><defs><filter height="300%" id="f15collj303n8v" width="300%" x="-1" y="-1"><feGaussianBlur result="blurOut" stdDeviation="2.0"/><feColorMatrix in="blurOut" result="blurOut2" type="matrix" values="0 0 0 0 0 0 0 0 0 0 0 0 0 0 0 0 0 0 .4 0"/><feOffset dx="4.0" dy="4.0" in="blurOut2" result="blurOut3"/><feBlend in="SourceGraphic" in2="blurOut3" mode="normal"/></filter></defs><g><rect fill="none" filter="url(#f15collj303n8v)" height="81.0547" style="stroke:#000000;stroke-width:2.0;" width="398.5" x="10" y="133.3125"/><rect fill="none" filter="url(#f15collj303n8v)" height="81.0547" style="stroke:#000000;stroke-width:2.0;" width="398.5" x="10" y="392.4766"/><line style="stroke:#A80036;stroke-width:1.0;stroke-dasharray:5.0,5.0;" x1="52" x2="52" y1="41.6094" y2="490.5313"/><line style="stroke:#A80036;stroke-width:1.0;stroke-dasharray:5.0,5.0;" x1="297.5" x2="297.5" y1="41.6094" y2="490.5313"/><rect fill="#FEFECE" filter="url(#f15collj303n8v)" height="31.6094" style="stroke:#A80036;stroke-width:1.5;" width="60" x="20" y="5"/><text fill="#000000" font-family="sans-serif" font-size="14" lengthAdjust="spacing" textLength="46" x="27" y="26.5332">System</text><rect fill="#FEFECE" filter="url(#f15collj303n8v)" height="31.6094" style="stroke:#A80036;stroke-width:1.5;" width="60" x="20" y="489.5313"/><text fill="#000000" font-family="sans-serif" font-size="14" lengthAdjust="spacing" textLength="46" x="27" y="511.0645">System</text><rect fill="#FEFECE" filter="url(#f15collj303n8v)" height="31.6094" style="stroke:#A80036;stroke-width:1.5;" width="197" x="197.5" y="5"/><text fill="#000000" font-family="sans-serif" font-size="14" lengthAdjust="spacing" textLength="183" x="204.5" y="26.5332">StateTransitionErrorHandling</text><rect fill="#FEFECE" filter="url(#f15collj303n8v)" height="31.6094" style="stroke:#A80036;stroke-width:1.5;" width="197" x="197.5" y="489.5313"/><text fill="#000000" font-family="sans-serif" font-size="14" lengthAdjust="spacing" textLength="183" x="204.5" y="511.0645">StateTransitionErrorHandling</text><rect fill="#EEEEEE" filter="url(#f15collj303n8v)" height="3" style="stroke:#EEEEEE;stroke-width:1.0;" width="550" x="0" y="72.7852"/><line style="stroke:#000000;stroke-width:1.0;" x1="0" x2="550" y1="72.7852" y2="72.7852"/><line style="stroke:#000000;stroke-width:1.0;" x1="0" x2="550" y1="75.7852" y2="75.7852"/><rect fill="#EEEEEE" filter="url(#f15collj303n8v)" height="24.3516" style="stroke:#000000;stroke-width:2.0;" width="189" x="180.5" y="61.6094"/><text fill="#000000" font-family="sans-serif" font-size="13" font-weight="bold" lengthAdjust="spacing" textLength="171" x="186.5" y="79.1045">throwOnInvalidTargetState</text><polygon fill="#A80036" points="286,114.3125,296,118.3125,286,122.3125,290,118.3125" style="stroke:#A80036;stroke-width:1.0;"/><line style="stroke:#A80036;stroke-width:1.0;" x1="52" x2="292" y1="118.3125" y2="118.3125"/><text fill="#000000" font-family="sans-serif" font-size="13" lengthAdjust="spacing" textLength="222" x="59" y="113.4561">throwOnInvalidTargetState(targetState)</text><path d="M10,133.3125 L71,133.3125 L71,141.6641 L61,151.6641 L10,151.6641 L10,133.3125 " fill="#EEEEEE" style="stroke:#000000;stroke-width:1.0;"/><rect fill="none" height="81.0547" style="stroke:#000000;stroke-width:2.0;" width="398.5" x="10" y="133.3125"/><text fill="#000000" font-family="sans-serif" font-size="13" font-weight="bold" lengthAdjust="spacing" textLength="16" x="25" y="147.8076">alt</text><text fill="#000000" font-family="sans-serif" font-size="11" font-weight="bold" lengthAdjust="spacing" textLength="143" x="86" y="146.7314">[targetState == undefined]</text><polygon fill="#A80036" points="63,170.0156,53,174.0156,63,178.0156,59,174.0156" style="stroke:#A80036;stroke-width:1.0;"/><line style="stroke:#A80036;stroke-width:1.0;stroke-dasharray:2.0,2.0;" x1="57" x2="297" y1="174.0156" y2="174.0156"/><text fill="#000000" font-family="sans-serif" font-size="13" lengthAdjust="spacing" textLength="56" x="69" y="169.1592">exception</text><line style="stroke:#000000;stroke-width:1.0;stroke-dasharray:2.0,2.0;" x1="10" x2="408.5" y1="183.0156" y2="183.0156"/><polygon fill="#A80036" points="63,202.3672,53,206.3672,63,210.3672,59,206.3672" style="stroke:#A80036;stroke-width:1.0;"/><line style="stroke:#A80036;stroke-width:1.0;stroke-dasharray:2.0,2.0;" x1="57" x2="297" y1="206.3672" y2="206.3672"/><text fill="#000000" font-family="sans-serif" font-size="13" lengthAdjust="spacing" textLength="49" x="69" y="201.5107">continue</text><rect fill="#EEEEEE" filter="url(#f15collj303n8v)" height="3" style="stroke:#EEEEEE;stroke-width:1.0;" width="550" x="0" y="242.543"/><line style="stroke:#000000;stroke-width:1.0;" x1="0" x2="550" y1="242.543" y2="242.543"/><line style="stroke:#000000;stroke-width:1.0;" x1="0" x2="550" y1="245.543" y2="245.543"/><rect fill="#EEEEEE" filter="url(#f15collj303n8v)" height="24.3516" style="stroke:#000000;stroke-width:2.0;" width="235" x="157.5" y="231.3672"/><text fill="#000000" font-family="sans-serif" font-size="13" font-weight="bold" lengthAdjust="spacing" textLength="217" x="163.5" y="248.8623">checkParticipantsBeforeTransition</text><polygon fill="#A80036" points="286,284.0703,296,288.0703,286,292.0703,290,288.0703" style="stroke:#A80036;stroke-width:1.0;"/><line style="stroke:#A80036;stroke-width:1.0;" x1="52" x2="292" y1="288.0703" y2="288.0703"/><text fill="#000000" font-family="sans-serif" font-size="13" lengthAdjust="spacing" textLength="197" x="59" y="283.2139">checkParticipantsBeforeTransition</text><path d="M51,301.0703 L51,376.0703 L541,376.0703 L541,311.0703 L531,301.0703 L51,301.0703 " fill="#FBFB77" filter="url(#f15collj303n8v)" style="stroke:#A80036;stroke-width:1.0;"/><path d="M531,301.0703 L531,311.0703 L541,311.0703 L531,301.0703 " fill="#FBFB77" style="stroke:#A80036;stroke-width:1.0;"/><text fill="#000000" font-family="sans-serif" font-size="13" lengthAdjust="spacing" textLength="305" x="57" y="319.5654">Checks if any participant is undefined or unreachable</text><text fill="#000000" font-family="sans-serif" font-size="13" lengthAdjust="spacing" textLength="469" x="57" y="335.917">boost::algorithm::any_of(part_states, unreachable == state || undefined == state);</text><text fill="#000000" font-family="sans-serif" font-size="13" lengthAdjust="spacing" textLength="222" x="57" y="352.2686">Checks if system has any participants</text><text fill="#000000" font-family="sans-serif" font-size="13" lengthAdjust="spacing" textLength="145" x="57" y="368.6201">part_states_map.empty()</text><path d="M10,392.4766 L71,392.4766 L71,400.8281 L61,410.8281 L10,410.8281 L10,392.4766 " fill="#EEEEEE" style="stroke:#000000;stroke-width:1.0;"/><rect fill="none" height="81.0547" style="stroke:#000000;stroke-width:2.0;" width="398.5" x="10" y="392.4766"/><text fill="#000000" font-family="sans-serif" font-size="13" font-weight="bold" lengthAdjust="spacing" textLength="16" x="25" y="406.9717">alt</text><text fill="#000000" font-family="sans-serif" font-size="11" font-weight="bold" lengthAdjust="spacing" textLength="166" x="86" y="405.8955">[all participants are reachable]</text><polygon fill="#A80036" points="63,429.1797,53,433.1797,63,437.1797,59,433.1797" style="stroke:#A80036;stroke-width:1.0;"/><line style="stroke:#A80036;stroke-width:1.0;stroke-dasharray:2.0,2.0;" x1="57" x2="297" y1="433.1797" y2="433.1797"/><text fill="#000000" font-family="sans-serif" font-size="13" lengthAdjust="spacing" textLength="49" x="69" y="428.3232">continue</text><line style="stroke:#000000;stroke-width:1.0;stroke-dasharray:2.0,2.0;" x1="10" x2="408.5" y1="442.1797" y2="442.1797"/><polygon fill="#A80036" points="63,461.5313,53,465.5313,63,469.5313,59,465.5313" style="stroke:#A80036;stroke-width:1.0;"/><line style="stroke:#A80036;stroke-width:1.0;stroke-dasharray:2.0,2.0;" x1="57" x2="297" y1="465.5313" y2="465.5313"/><text fill="#000000" font-family="sans-serif" font-size="13" lengthAdjust="spacing" textLength="56" x="69" y="460.6748">exception</text><!--SRC=[dPB1JiCm38RlVWeVDudn08Do02712IHsdxpMNQEbJkLuWqfxU9eDQ8V4nfP3v3ZoP_ktuye9QeWCq92Qorr3OlZMHkFwq6LaF5EIwCm5ULGD-aHIU2TBW2n3gpIylyYpRCYxOaQwPDi5OPR17eYJkwCSdFu96LblZm786zf12bnBmQKJBW2xyvNmTZ8vaH7v8-ScVG3xJeVpWlCWvcJDm5BWJeQyudprsWiNxxaCEa0aEVwjnqaQW8Ik_x1XFJwYXqIAw4eaQN4uMHTxxJ1ezr2clAA5PrY446qw9RyCwgogErFQUIX72J2FAM6y6aQaIUpSkDqEiD_UySsWaBWNeQBukwO80_wyfkQQwyRQqJZfd1hURm1vVn25f8nzyPUEylmr6EnGjmVfmC_r2G00]--></g></svg>