<?xml version="1.0" encoding="us-ascii" standalone="no"?><svg xmlns="http://www.w3.org/2000/svg" xmlns:xlink="http://www.w3.org/1999/xlink" contentStyleType="text/css" height="1242px" preserveAspectRatio="none" style="width:1050px;height:1242px;background:#FFFFFF;" version="1.1" viewBox="0 0 1050 1242" width="1050px" zoomAndPan="magnify"><defs><filter height="300%" id="f1fp1g5zxcw3sw" width="300%" x="-1" y="-1"><feGaussianBlur result="blurOut" stdDeviation="2.0"/><feColorMatrix in="blurOut" result="blurOut2" type="matrix" values="0 0 0 0 0 0 0 0 0 0 0 0 0 0 0 0 0 0 .4 0"/><feOffset dx="4.0" dy="4.0" in="blurOut2" result="blurOut3"/><feBlend in="SourceGraphic" in2="blurOut3" mode="normal"/></filter></defs><g><rect fill="none" filter="url(#f1fp1g5zxcw3sw)" height="501.9219" style="stroke:#000000;stroke-width:2.0;" width="876.5" x="155" y="610.2891"/><rect fill="none" filter="url(#f1fp1g5zxcw3sw)" height="119.0547" style="stroke:#000000;stroke-width:2.0;" width="585.5" x="165" y="986.1563"/><line style="stroke:#A80036;stroke-width:1.0;stroke-dasharray:5.0,5.0;" x1="147" x2="147" y1="89.6094" y2="1157.2109"/><line style="stroke:#A80036;stroke-width:1.0;stroke-dasharray:5.0,5.0;" x1="207" x2="207" y1="89.6094" y2="1157.2109"/><line style="stroke:#A80036;stroke-width:1.0;stroke-dasharray:5.0,5.0;" x1="329" x2="329" y1="89.6094" y2="1157.2109"/><line style="stroke:#A80036;stroke-width:1.0;stroke-dasharray:5.0,5.0;" x1="638.5" x2="638.5" y1="89.6094" y2="1157.2109"/><line style="stroke:#A80036;stroke-width:1.0;stroke-dasharray:5.0,5.0;" x1="808.5" x2="808.5" y1="89.6094" y2="1157.2109"/><line style="stroke:#A80036;stroke-width:1.0;stroke-dasharray:5.0,5.0;" x1="948.5" x2="948.5" y1="89.6094" y2="1157.2109"/><text fill="#000000" font-family="sans-serif" font-size="14" lengthAdjust="spacing" textLength="29" x="130" y="86.5332">User</text><ellipse cx="147.5" cy="15" fill="#FEFECE" filter="url(#f1fp1g5zxcw3sw)" rx="8" ry="8" style="stroke:#A80036;stroke-width:2.0;"/><path d="M147.5,23 L147.5,50 M134.5,31 L160.5,31 M147.5,50 L134.5,65 M147.5,50 L160.5,65 " fill="none" filter="url(#f1fp1g5zxcw3sw)" style="stroke:#A80036;stroke-width:2.0;"/><text fill="#000000" font-family="sans-serif" font-size="14" lengthAdjust="spacing" textLength="29" x="130" y="1170.7441">User</text><ellipse cx="147.5" cy="1183.8203" fill="#FEFECE" filter="url(#f1fp1g5zxcw3sw)" rx="8" ry="8" style="stroke:#A80036;stroke-width:2.0;"/><path d="M147.5,1191.8203 L147.5,1218.8203 M134.5,1199.8203 L160.5,1199.8203 M147.5,1218.8203 L134.5,1233.8203 M147.5,1218.8203 L160.5,1233.8203 " fill="none" filter="url(#f1fp1g5zxcw3sw)" style="stroke:#A80036;stroke-width:2.0;"/><rect fill="#FEFECE" filter="url(#f1fp1g5zxcw3sw)" height="31.6094" style="stroke:#A80036;stroke-width:1.5;" width="60" x="175" y="53"/><text fill="#000000" font-family="sans-serif" font-size="14" lengthAdjust="spacing" textLength="46" x="182" y="74.5332">System</text><rect fill="#FEFECE" filter="url(#f1fp1g5zxcw3sw)" height="31.6094" style="stroke:#A80036;stroke-width:1.5;" width="60" x="175" y="1156.2109"/><text fill="#000000" font-family="sans-serif" font-size="14" lengthAdjust="spacing" textLength="46" x="182" y="1177.7441">System</text><rect fill="#FEFECE" filter="url(#f1fp1g5zxcw3sw)" height="31.6094" style="stroke:#A80036;stroke-width:1.5;" width="156" x="249" y="53"/><text fill="#000000" font-family="sans-serif" font-size="14" lengthAdjust="spacing" textLength="142" x="256" y="74.5332">SystemStateTransition</text><rect fill="#FEFECE" filter="url(#f1fp1g5zxcw3sw)" height="31.6094" style="stroke:#A80036;stroke-width:1.5;" width="156" x="249" y="1156.2109"/><text fill="#000000" font-family="sans-serif" font-size="14" lengthAdjust="spacing" textLength="142" x="256" y="1177.7441">SystemStateTransition</text><rect fill="#FEFECE" filter="url(#f1fp1g5zxcw3sw)" height="31.6094" style="stroke:#A80036;stroke-width:1.5;" width="199" x="537.5" y="53"/><text fill="#000000" font-family="sans-serif" font-size="14" lengthAdjust="spacing" textLength="185" x="544.5" y="74.5332">PartProxyTransitionMetaData</text><rect fill="#FEFECE" filter="url(#f1fp1g5zxcw3sw)" height="31.6094" style="stroke:#A80036;stroke-width:1.5;" width="199" x="537.5" y="1156.2109"/><text fill="#000000" font-family="sans-serif" font-size="14" lengthAdjust="spacing" textLength="185" x="544.5" y="1177.7441">PartProxyTransitionMetaData</text><rect fill="#FEFECE" filter="url(#f1fp1g5zxcw3sw)" height="31.6094" style="stroke:#A80036;stroke-width:1.5;" width="112" x="750.5" y="53"/><text fill="#000000" font-family="sans-serif" font-size="14" lengthAdjust="spacing" textLength="98" x="757.5" y="74.5332">ExecutionPolicy</text><rect fill="#FEFECE" filter="url(#f1fp1g5zxcw3sw)" height="31.6094" style="stroke:#A80036;stroke-width:1.5;" width="112" x="750.5" y="1156.2109"/><text fill="#000000" font-family="sans-serif" font-size="14" lengthAdjust="spacing" textLength="98" x="757.5" y="1177.7441">ExecutionPolicy</text><rect fill="#FEFECE" filter="url(#f1fp1g5zxcw3sw)" height="31.6094" style="stroke:#A80036;stroke-width:1.5;" width="141" x="876.5" y="53"/><text fill="#000000" font-family="sans-serif" font-size="14" lengthAdjust="spacing" textLength="127" x="883.5" y="74.5332">ThrowOnErrorPolicy</text><rect fill="#FEFECE" filter="url(#f1fp1g5zxcw3sw)" height="31.6094" style="stroke:#A80036;stroke-width:1.5;" width="141" x="876.5" y="1156.2109"/><text fill="#000000" font-family="sans-serif" font-size="14" lengthAdjust="spacing" textLength="127" x="883.5" y="1177.7441">ThrowOnErrorPolicy</text><polygon fill="#A80036" points="195,131.1367,205,135.1367,195,139.1367,199,135.1367" style="stroke:#A80036;stroke-width:1.0;"/><line style="stroke:#A80036;stroke-width:1.0;" x1="147.5" x2="201" y1="135.1367" y2="135.1367"/><text fill="#000000" font-family="sans-serif" font-size="13" lengthAdjust="spacing" textLength="24" x="154.5" y="130.2803">load</text><path d="M5,104.6094 L5,146.6094 L139,146.6094 L139,114.6094 L129,104.6094 L5,104.6094 " fill="#FBFB77" filter="url(#f1fp1g5zxcw3sw)" style="stroke:#A80036;stroke-width:1.0;"/><path d="M129,104.6094 L129,114.6094 L139,114.6094 L129,104.6094 " fill="#FBFB77" style="stroke:#A80036;stroke-width:1.0;"/><text fill="#000000" font-family="sans-serif" font-size="13" lengthAdjust="spacing" textLength="113" x="11" y="123.1045">load, initialize, start</text><text fill="#000000" font-family="sans-serif" font-size="13" lengthAdjust="spacing" textLength="51" x="11" y="139.4561">stop, etc</text><rect fill="#EEEEEE" filter="url(#f1fp1g5zxcw3sw)" height="3" style="stroke:#EEEEEE;stroke-width:1.0;" width="1041.5" x="0" y="177.4883"/><line style="stroke:#000000;stroke-width:1.0;" x1="0" x2="1041.5" y1="177.4883" y2="177.4883"/><line style="stroke:#000000;stroke-width:1.0;" x1="0" x2="1041.5" y1="180.4883" y2="180.4883"/><rect fill="#EEEEEE" filter="url(#f1fp1g5zxcw3sw)" height="24.3516" style="stroke:#000000;stroke-width:2.0;" width="189" x="426.25" y="166.3125"/><text fill="#000000" font-family="sans-serif" font-size="13" font-weight="bold" lengthAdjust="spacing" textLength="171" x="432.25" y="183.8076">System::runStateTransition</text><path d="M85,205.6641 L85,313.6641 L324,313.6641 L324,215.6641 L314,205.6641 L85,205.6641 " fill="#FBFB77" filter="url(#f1fp1g5zxcw3sw)" style="stroke:#A80036;stroke-width:1.0;"/><path d="M314,205.6641 L314,215.6641 L324,215.6641 L314,205.6641 " fill="#FBFB77" style="stroke:#A80036;stroke-width:1.0;"/><text fill="#000000" font-family="sans-serif" font-size="13" lengthAdjust="spacing" textLength="218" x="91" y="224.1592">runStateTransition(transition_function,</text><text fill="#000000" font-family="sans-serif" font-size="13" lengthAdjust="spacing" textLength="60" x="199" y="240.5107">state_info,</text><text fill="#000000" font-family="sans-serif" font-size="13" lengthAdjust="spacing" textLength="71" x="199" y="256.8623">prio_sorting,</text><text fill="#000000" font-family="sans-serif" font-size="13" lengthAdjust="spacing" textLength="77" x="199" y="273.2139">prio_function,</text><text fill="#000000" font-family="sans-serif" font-size="13" lengthAdjust="spacing" textLength="101" x="199" y="289.5654">execution_policy,</text><text fill="#000000" font-family="sans-serif" font-size="13" lengthAdjust="spacing" textLength="103" x="199" y="305.917">participant_range)</text><polygon fill="#A80036" points="317,341.125,327,345.125,317,349.125,321,345.125" style="stroke:#A80036;stroke-width:1.0;"/><line style="stroke:#A80036;stroke-width:1.0;" x1="207" x2="323" y1="345.125" y2="345.125"/><text fill="#000000" font-family="sans-serif" font-size="13" lengthAdjust="spacing" textLength="46" x="214" y="340.2686">execute</text><line style="stroke:#A80036;stroke-width:1.0;" x1="329" x2="371" y1="375.4766" y2="375.4766"/><line style="stroke:#A80036;stroke-width:1.0;" x1="371" x2="371" y1="375.4766" y2="388.4766"/><line style="stroke:#A80036;stroke-width:1.0;" x1="330" x2="371" y1="388.4766" y2="388.4766"/><polygon fill="#A80036" points="340,384.4766,330,388.4766,340,392.4766,336,388.4766" style="stroke:#A80036;stroke-width:1.0;"/><text fill="#000000" font-family="sans-serif" font-size="13" lengthAdjust="spacing" textLength="130" x="336" y="370.6201">getTransitionMetaData</text><path d="M225,401.4766 L225,476.4766 L428,476.4766 L428,411.4766 L418,401.4766 L225,401.4766 " fill="#FBFB77" filter="url(#f1fp1g5zxcw3sw)" style="stroke:#A80036;stroke-width:1.0;"/><path d="M418,401.4766 L418,411.4766 L428,411.4766 L418,401.4766 " fill="#FBFB77" style="stroke:#A80036;stroke-width:1.0;"/><text fill="#000000" font-family="sans-serif" font-size="13" lengthAdjust="spacing" textLength="105" x="231" y="419.9717">Creates metaData</text><text fill="#000000" font-family="sans-serif" font-size="13" lengthAdjust="spacing" textLength="182" x="231" y="436.3232">Stores priority -&gt; prio_function()</text><text fill="#000000" font-family="sans-serif" font-size="13" lengthAdjust="spacing" textLength="122" x="231" y="452.6748">execution_policy and</text><text fill="#000000" font-family="sans-serif" font-size="13" lengthAdjust="spacing" textLength="153" x="231" y="469.0264">priority sorting (operator &lt;)</text><polygon fill="#A80036" points="627,504.2344,637,508.2344,627,512.2344,631,508.2344" style="stroke:#A80036;stroke-width:1.0;"/><line style="stroke:#A80036;stroke-width:1.0;" x1="329" x2="633" y1="508.2344" y2="508.2344"/><text fill="#000000" font-family="sans-serif" font-size="13" lengthAdjust="spacing" textLength="172" x="336" y="503.3779">sort  participants according to</text><a href="prio_sorting.svg" target="_top" title="Prio Sorting Algorithm" xlink:actuate="onRequest" xlink:href="prio_sorting.svg" xlink:show="new" xlink:title="Prio Sorting Algorithm" xlink:type="simple"><text fill="#0000FF" font-family="sans-serif" font-size="13" lengthAdjust="spacing" text-decoration="underline" textLength="39" x="512" y="503.3779">priority</text></a><path d="M543,521.2344 L543,563.2344 L730,563.2344 L730,531.2344 L720,521.2344 L543,521.2344 " fill="#FBFB77" filter="url(#f1fp1g5zxcw3sw)" style="stroke:#A80036;stroke-width:1.0;"/><path d="M720,521.2344 L720,531.2344 L730,531.2344 L720,521.2344 " fill="#FBFB77" style="stroke:#A80036;stroke-width:1.0;"/><text fill="#000000" font-family="sans-serif" font-size="13" lengthAdjust="spacing" textLength="125" x="549" y="539.7295">Uses sorting_function</text><text fill="#000000" font-family="sans-serif" font-size="13" lengthAdjust="spacing" textLength="166" x="549" y="556.0811">boost::range::sort(metaData)</text><polygon fill="#A80036" points="340,591.2891,330,595.2891,340,599.2891,336,595.2891" style="stroke:#A80036;stroke-width:1.0;"/><line style="stroke:#A80036;stroke-width:1.0;stroke-dasharray:2.0,2.0;" x1="334" x2="638" y1="595.2891" y2="595.2891"/><text fill="#000000" font-family="sans-serif" font-size="13" lengthAdjust="spacing" textLength="81" x="346" y="590.4326">proxies_range</text><path d="M155,610.2891 L228,610.2891 L228,618.6406 L218,628.6406 L155,628.6406 L155,610.2891 " fill="#EEEEEE" style="stroke:#000000;stroke-width:1.0;"/><rect fill="none" height="501.9219" style="stroke:#000000;stroke-width:2.0;" width="876.5" x="155" y="610.2891"/><text fill="#000000" font-family="sans-serif" font-size="13" font-weight="bold" lengthAdjust="spacing" textLength="28" x="170" y="624.7842">loop</text><text fill="#000000" font-family="sans-serif" font-size="11" font-weight="bold" lengthAdjust="spacing" textLength="212" x="243" y="623.708">[while not all participants transitioned]</text><rect fill="#EEEEEE" filter="url(#f1fp1g5zxcw3sw)" height="3" style="stroke:#EEEEEE;stroke-width:1.0;" width="1041.5" x="0" y="649.8164"/><line style="stroke:#000000;stroke-width:1.0;" x1="0" x2="1041.5" y1="649.8164" y2="649.8164"/><line style="stroke:#000000;stroke-width:1.0;" x1="0" x2="1041.5" y1="652.8164" y2="652.8164"/><rect fill="#EEEEEE" filter="url(#f1fp1g5zxcw3sw)" height="24.3516" style="stroke:#000000;stroke-width:2.0;" width="131" x="455.25" y="638.6406"/><text fill="#000000" font-family="sans-serif" font-size="13" font-weight="bold" lengthAdjust="spacing" textLength="113" x="461.25" y="656.1357">performTransition</text><polygon fill="#A80036" points="627,691.3438,637,695.3438,627,699.3438,631,695.3438" style="stroke:#A80036;stroke-width:1.0;"/><line style="stroke:#A80036;stroke-width:1.0;" x1="329" x2="633" y1="695.3438" y2="695.3438"/><text fill="#000000" font-family="sans-serif" font-size="13" lengthAdjust="spacing" textLength="286" x="336" y="690.4873">Get participants with the highest or lowest priority</text><path d="M519,708.3438 L519,734.3438 L755,734.3438 L755,718.3438 L745,708.3438 L519,708.3438 " fill="#FBFB77" filter="url(#f1fp1g5zxcw3sw)" style="stroke:#A80036;stroke-width:1.0;"/><path d="M745,708.3438 L745,718.3438 L755,718.3438 L745,708.3438 " fill="#FBFB77" style="stroke:#A80036;stroke-width:1.0;"/><text fill="#000000" font-family="sans-serif" font-size="13" lengthAdjust="spacing" textLength="215" x="525" y="726.8389">boost::range::partition(proxies_range)</text><polygon fill="#A80036" points="340,762.0469,330,766.0469,340,770.0469,336,766.0469" style="stroke:#A80036;stroke-width:1.0;"/><line style="stroke:#A80036;stroke-width:1.0;stroke-dasharray:2.0,2.0;" x1="334" x2="638" y1="766.0469" y2="766.0469"/><text fill="#000000" font-family="sans-serif" font-size="13" lengthAdjust="spacing" textLength="67" x="346" y="761.1904">participants</text><line style="stroke:#A80036;stroke-width:1.0;" x1="329" x2="371" y1="796.3984" y2="796.3984"/><line style="stroke:#A80036;stroke-width:1.0;" x1="371" x2="371" y1="796.3984" y2="809.3984"/><line style="stroke:#A80036;stroke-width:1.0;" x1="330" x2="371" y1="809.3984" y2="809.3984"/><polygon fill="#A80036" points="340,805.3984,330,809.3984,340,813.3984,336,809.3984" style="stroke:#A80036;stroke-width:1.0;"/><text fill="#000000" font-family="sans-serif" font-size="13" lengthAdjust="spacing" textLength="112" x="336" y="791.542">transition_functions</text><path d="M334,822.3984 L334,848.3984 L510,848.3984 L510,832.3984 L500,822.3984 L334,822.3984 " fill="#FBFB77" filter="url(#f1fp1g5zxcw3sw)" style="stroke:#A80036;stroke-width:1.0;"/><path d="M500,822.3984 L500,832.3984 L510,832.3984 L500,822.3984 " fill="#FBFB77" style="stroke:#A80036;stroke-width:1.0;"/><text fill="#000000" font-family="sans-serif" font-size="13" lengthAdjust="spacing" textLength="155" x="340" y="840.8936">std::transform(participants)</text><polygon fill="#A80036" points="796.5,876.1016,806.5,880.1016,796.5,884.1016,800.5,880.1016" style="stroke:#A80036;stroke-width:1.0;"/><line style="stroke:#A80036;stroke-width:1.0;" x1="329" x2="802.5" y1="880.1016" y2="880.1016"/><text fill="#000000" font-family="sans-serif" font-size="13" lengthAdjust="spacing" textLength="145" x="336" y="875.2451">Run transition with policy</text><a href="execution_policy.svg" target="_top" title="Execution Policy" xlink:actuate="onRequest" xlink:href="execution_policy.svg" xlink:show="new" xlink:title="Execution Policy" xlink:type="simple"><text fill="#0000FF" font-family="sans-serif" font-size="13" lengthAdjust="spacing" text-decoration="underline" textLength="62" x="485" y="875.2451">std::invoke</text></a><text fill="#000000" font-family="sans-serif" font-size="13" lengthAdjust="spacing" textLength="225" x="547" y="875.2451">(execution_policy, transition_functions)</text><polygon fill="#A80036" points="340,906.4531,330,910.4531,340,914.4531,336,910.4531" style="stroke:#A80036;stroke-width:1.0;"/><line style="stroke:#A80036;stroke-width:1.0;stroke-dasharray:2.0,2.0;" x1="334" x2="807.5" y1="910.4531" y2="910.4531"/><text fill="#000000" font-family="sans-serif" font-size="13" lengthAdjust="spacing" textLength="95" x="346" y="905.5967">execution_result</text><polygon fill="#A80036" points="937,936.8047,947,940.8047,937,944.8047,941,940.8047" style="stroke:#A80036;stroke-width:1.0;"/><line style="stroke:#A80036;stroke-width:1.0;" x1="329" x2="943" y1="940.8047" y2="940.8047"/><a href="error_handling.svg" target="_top" title="Error Handling" xlink:actuate="onRequest" xlink:href="error_handling.svg" xlink:show="new" xlink:title="Error Handling" xlink:type="simple"><text fill="#0000FF" font-family="sans-serif" font-size="13" lengthAdjust="spacing" text-decoration="underline" textLength="78" x="336" y="935.9482">error handling</text></a><text fill="#000000" font-family="sans-serif" font-size="13" lengthAdjust="spacing" textLength="120" x="414" y="935.9482">(transition_functions)</text><polygon fill="#A80036" points="340,967.1563,330,971.1563,340,975.1563,336,971.1563" style="stroke:#A80036;stroke-width:1.0;"/><line style="stroke:#A80036;stroke-width:1.0;stroke-dasharray:2.0,2.0;" x1="334" x2="948" y1="971.1563" y2="971.1563"/><text fill="#000000" font-family="sans-serif" font-size="13" lengthAdjust="spacing" textLength="15" x="346" y="966.2998">ret</text><path d="M165,986.1563 L226,986.1563 L226,994.5078 L216,1004.5078 L165,1004.5078 L165,986.1563 " fill="#EEEEEE" style="stroke:#000000;stroke-width:1.0;"/><rect fill="none" height="119.0547" style="stroke:#000000;stroke-width:2.0;" width="585.5" x="165" y="986.1563"/><text fill="#000000" font-family="sans-serif" font-size="13" font-weight="bold" lengthAdjust="spacing" textLength="16" x="180" y="1000.6514">alt</text><text fill="#000000" font-family="sans-serif" font-size="11" font-weight="bold" lengthAdjust="spacing" textLength="63" x="241" y="999.5752">[ret is true]</text><polygon fill="#A80036" points="627,1022.8594,637,1026.8594,627,1030.8594,631,1026.8594" style="stroke:#A80036;stroke-width:1.0;"/><line style="stroke:#A80036;stroke-width:1.0;" x1="329" x2="633" y1="1026.8594" y2="1026.8594"/><text fill="#000000" font-family="sans-serif" font-size="13" lengthAdjust="spacing" textLength="188" x="336" y="1022.0029">Remove transitioned participants</text><path d="M334,1039.8594 L334,1065.8594 L631,1065.8594 L631,1049.8594 L621,1039.8594 L334,1039.8594 " fill="#FBFB77" filter="url(#f1fp1g5zxcw3sw)" style="stroke:#A80036;stroke-width:1.0;"/><path d="M621,1039.8594 L621,1049.8594 L631,1049.8594 L621,1039.8594 " fill="#FBFB77" style="stroke:#A80036;stroke-width:1.0;"/><text fill="#000000" font-family="sans-serif" font-size="13" lengthAdjust="spacing" textLength="276" x="340" y="1058.3545">boost::range::erase(proxies_range, participants)</text><polygon fill="#A80036" points="340,1077.2109,330,1081.2109,340,1085.2109,336,1081.2109" style="stroke:#A80036;stroke-width:1.0;"/><line style="stroke:#A80036;stroke-width:1.0;stroke-dasharray:2.0,2.0;" x1="334" x2="638" y1="1081.2109" y2="1081.2109"/><line style="stroke:#000000;stroke-width:1.0;stroke-dasharray:2.0,2.0;" x1="165" x2="750.5" y1="1090.2109" y2="1090.2109"/><polygon fill="#A80036" points="218,1093.2109,208,1097.2109,218,1101.2109,214,1097.2109" style="stroke:#A80036;stroke-width:1.0;"/><line style="stroke:#A80036;stroke-width:1.0;stroke-dasharray:2.0,2.0;" x1="212" x2="328" y1="1097.2109" y2="1097.2109"/><polygon fill="#A80036" points="218,1121.2109,208,1125.2109,218,1129.2109,214,1125.2109" style="stroke:#A80036;stroke-width:1.0;"/><line style="stroke:#A80036;stroke-width:1.0;stroke-dasharray:2.0,2.0;" x1="212" x2="328" y1="1125.2109" y2="1125.2109"/><polygon fill="#A80036" points="158.5,1135.2109,148.5,1139.2109,158.5,1143.2109,154.5,1139.2109" style="stroke:#A80036;stroke-width:1.0;"/><line style="stroke:#A80036;stroke-width:1.0;stroke-dasharray:2.0,2.0;" x1="152.5" x2="206" y1="1139.2109" y2="1139.2109"/><!--SRC=[dLPDZnen3BtdL_W84lG7Z9QLgdQrlLH5PNj22AM3OQ8DoIWniBJYlzUPJsQO0SeULfd4iVsU_HpykpBWh4SXOx8EVdbq8fMELAnIQGXcHq-uxTYQaIHySz9uHSgQXiMKrrDdFuxr-NSa-LMIRDYzV62y2wTJgrLyR9oz9SuUVfWNvwmhZaN83iRFHGOGWRPo9OInXA1nJI9yZq0P3Ycr-eCZyCG-XIURZW0f5cXMmLo8oQHm4qLkPrfeO38ftDezXon8kBGRKBLShdSc3ekHWFu_7-ulbLdRgsQfKtRfBRDXDhSDxugC9TVBD6Fpkjkw44j6kC5XJLn1VbM6DdLH4QeoRHjSkRb1wcYPTY7QhVV58Mzus9ONPjpA_1t8SOgE8MA3g073QT41qgn4TQ6W7WOsHIU3C9xE6EZ7TQNn6Ltmsk3MWunZwrOX55cOpy_h_idlDt-dl06p8flFUXFIIxQd2jfYSSREDTcnT7m9g-91_BRM4miWb3YAml6W9B76sutsQJo-0JVb4uK-Rw2isrYVDeL3eZG2kmQfTPEEMax8kWuQPVxNrcqRqinSXNyFrk4LgHdsmAG29GY9sYJe2RZWsXx2gYGwYtSVrS6oIMmMB6ky1YV3pBIa-GQgE_W-WtJ3s_YvJu4T0ytNs1tpq_S0vEDj5KMPYr2qmNb6_mMMIzXw6pYrdpjpbbvUj4AyytbRpvbwAX-GEpdb2Igpj- -uM0mkPc8d_E6DgbncMllbCRJJbCEz0tJ7gyVk65tuNYOyetGv6J8J-5PidI0pWTA4mJq2fJk-Gwfpbvh21gYWrXrMhyX3MWnLnIqhgg7yoqw-km4ljSVpssDJToEuRCnsSpuinBpDjM-xoUxr9ywnHPYuK3sm_VRvxw3wNFm3]--></g></svg>