<?xml version="1.0" encoding="us-ascii" standalone="no"?><svg xmlns="http://www.w3.org/2000/svg" xmlns:xlink="http://www.w3.org/1999/xlink" contentStyleType="text/css" height="803px" preserveAspectRatio="none" style="width:1432px;height:803px;background:#FFFFFF;" version="1.1" viewBox="0 0 1432 803" width="1432px" zoomAndPan="magnify"><defs><filter height="300%" id="f17xac7zfdejpk" width="300%" x="-1" y="-1"><feGaussianBlur result="blurOut" stdDeviation="2.0"/><feColorMatrix in="blurOut" result="blurOut2" type="matrix" values="0 0 0 0 0 0 0 0 0 0 0 0 0 0 0 0 0 0 .4 0"/><feOffset dx="4.0" dy="4.0" in="blurOut2" result="blurOut3"/><feBlend in="SourceGraphic" in2="blurOut3" mode="normal"/></filter></defs><g><rect fill="none" filter="url(#f17xac7zfdejpk)" height="458.9219" style="stroke:#000000;stroke-width:2.0;" width="1408" x="10" y="242.0156"/><line style="stroke:#A80036;stroke-width:1.0;stroke-dasharray:5.0,5.0;" x1="37" x2="37" y1="89.6094" y2="717.9375"/><line style="stroke:#A80036;stroke-width:1.0;stroke-dasharray:5.0,5.0;" x1="232.5" x2="232.5" y1="89.6094" y2="717.9375"/><line style="stroke:#A80036;stroke-width:1.0;stroke-dasharray:5.0,5.0;" x1="354.5" x2="354.5" y1="89.6094" y2="717.9375"/><line style="stroke:#A80036;stroke-width:1.0;stroke-dasharray:5.0,5.0;" x1="490.5" x2="490.5" y1="89.6094" y2="717.9375"/><line style="stroke:#A80036;stroke-width:1.0;stroke-dasharray:5.0,5.0;" x1="646.5" x2="646.5" y1="89.6094" y2="717.9375"/><line style="stroke:#A80036;stroke-width:1.0;stroke-dasharray:5.0,5.0;" x1="828.5" x2="828.5" y1="89.6094" y2="717.9375"/><line style="stroke:#A80036;stroke-width:1.0;stroke-dasharray:5.0,5.0;" x1="996.5" x2="996.5" y1="89.6094" y2="717.9375"/><text fill="#000000" font-family="sans-serif" font-size="14" lengthAdjust="spacing" textLength="29" x="20" y="86.5332">User</text><ellipse cx="37.5" cy="15" fill="#FEFECE" filter="url(#f17xac7zfdejpk)" rx="8" ry="8" style="stroke:#A80036;stroke-width:2.0;"/><path d="M37.5,23 L37.5,50 M24.5,31 L50.5,31 M37.5,50 L24.5,65 M37.5,50 L50.5,65 " fill="none" filter="url(#f17xac7zfdejpk)" style="stroke:#A80036;stroke-width:2.0;"/><text fill="#000000" font-family="sans-serif" font-size="14" lengthAdjust="spacing" textLength="29" x="20" y="731.4707">User</text><ellipse cx="37.5" cy="744.5469" fill="#FEFECE" filter="url(#f17xac7zfdejpk)" rx="8" ry="8" style="stroke:#A80036;stroke-width:2.0;"/><path d="M37.5,752.5469 L37.5,779.5469 M24.5,760.5469 L50.5,760.5469 M37.5,779.5469 L24.5,794.5469 M37.5,779.5469 L50.5,794.5469 " fill="none" filter="url(#f17xac7zfdejpk)" style="stroke:#A80036;stroke-width:2.0;"/><rect fill="#FEFECE" filter="url(#f17xac7zfdejpk)" height="31.6094" style="stroke:#A80036;stroke-width:1.5;" width="60" x="200.5" y="53"/><text fill="#000000" font-family="sans-serif" font-size="14" lengthAdjust="spacing" textLength="46" x="207.5" y="74.5332">System</text><rect fill="#FEFECE" filter="url(#f17xac7zfdejpk)" height="31.6094" style="stroke:#A80036;stroke-width:1.5;" width="60" x="200.5" y="716.9375"/><text fill="#000000" font-family="sans-serif" font-size="14" lengthAdjust="spacing" textLength="46" x="207.5" y="738.4707">System</text><rect fill="#FEFECE" filter="url(#f17xac7zfdejpk)" height="31.6094" style="stroke:#A80036;stroke-width:1.5;" width="156" x="274.5" y="53"/><text fill="#000000" font-family="sans-serif" font-size="14" lengthAdjust="spacing" textLength="142" x="281.5" y="74.5332">SystemStateTransition</text><rect fill="#FEFECE" filter="url(#f17xac7zfdejpk)" height="31.6094" style="stroke:#A80036;stroke-width:1.5;" width="156" x="274.5" y="716.9375"/><text fill="#000000" font-family="sans-serif" font-size="14" lengthAdjust="spacing" textLength="142" x="281.5" y="738.4707">SystemStateTransition</text><rect fill="#FEFECE" filter="url(#f17xac7zfdejpk)" height="31.6094" style="stroke:#A80036;stroke-width:1.5;" width="88" x="444.5" y="53"/><text fill="#000000" font-family="sans-serif" font-size="14" lengthAdjust="spacing" textLength="74" x="451.5" y="74.5332">Participants</text><rect fill="#FEFECE" filter="url(#f17xac7zfdejpk)" height="31.6094" style="stroke:#A80036;stroke-width:1.5;" width="88" x="444.5" y="716.9375"/><text fill="#000000" font-family="sans-serif" font-size="14" lengthAdjust="spacing" textLength="74" x="451.5" y="738.4707">Participants</text><rect fill="#FEFECE" filter="url(#f17xac7zfdejpk)" height="31.6094" style="stroke:#A80036;stroke-width:1.5;" width="197" x="546.5" y="53"/><text fill="#000000" font-family="sans-serif" font-size="14" lengthAdjust="spacing" textLength="183" x="553.5" y="74.5332">StateTransitionErrorHandling</text><rect fill="#FEFECE" filter="url(#f17xac7zfdejpk)" height="31.6094" style="stroke:#A80036;stroke-width:1.5;" width="197" x="546.5" y="716.9375"/><text fill="#000000" font-family="sans-serif" font-size="14" lengthAdjust="spacing" textLength="183" x="553.5" y="738.4707">StateTransitionErrorHandling</text><rect fill="#FEFECE" filter="url(#f17xac7zfdejpk)" height="31.6094" style="stroke:#A80036;stroke-width:1.5;" width="139" x="757.5" y="53"/><text fill="#000000" font-family="sans-serif" font-size="14" lengthAdjust="spacing" textLength="125" x="764.5" y="74.5332">TransitionController</text><rect fill="#FEFECE" filter="url(#f17xac7zfdejpk)" height="31.6094" style="stroke:#A80036;stroke-width:1.5;" width="139" x="757.5" y="716.9375"/><text fill="#000000" font-family="sans-serif" font-size="14" lengthAdjust="spacing" textLength="125" x="764.5" y="738.4707">TransitionController</text><rect fill="#FEFECE" filter="url(#f17xac7zfdejpk)" height="31.6094" style="stroke:#A80036;stroke-width:1.5;" width="169" x="910.5" y="53"/><text fill="#000000" font-family="sans-serif" font-size="14" lengthAdjust="spacing" textLength="155" x="917.5" y="74.5332">TransitionFunctionMatrix</text><rect fill="#FEFECE" filter="url(#f17xac7zfdejpk)" height="31.6094" style="stroke:#A80036;stroke-width:1.5;" width="169" x="910.5" y="716.9375"/><text fill="#000000" font-family="sans-serif" font-size="14" lengthAdjust="spacing" textLength="155" x="917.5" y="738.4707">TransitionFunctionMatrix</text><polygon fill="#A80036" points="220.5,117.9609,230.5,121.9609,220.5,125.9609,224.5,121.9609" style="stroke:#A80036;stroke-width:1.0;"/><line style="stroke:#A80036;stroke-width:1.0;" x1="37.5" x2="226.5" y1="121.9609" y2="121.9609"/><text fill="#000000" font-family="sans-serif" font-size="13" lengthAdjust="spacing" textLength="171" x="44.5" y="117.1045">setSystemState(target_state)</text><polygon fill="#A80036" points="635,148.3125,645,152.3125,635,156.3125,639,152.3125" style="stroke:#A80036;stroke-width:1.0;"/><line style="stroke:#A80036;stroke-width:1.0;" x1="232.5" x2="641" y1="152.3125" y2="152.3125"/><a href="state_transition_error_handling.svg" target="_top" title="state_transition_error_handling.svg" xlink:actuate="onRequest" xlink:href="state_transition_error_handling.svg" xlink:show="new" xlink:title="state_transition_error_handling.svg" xlink:type="simple"><text fill="#0000FF" font-family="sans-serif" font-size="13" lengthAdjust="spacing" text-decoration="underline" textLength="222" x="239.5" y="147.4561">throwOnInvalidTargetState(targetState)</text></a><polygon fill="#A80036" points="243.5,162.3125,233.5,166.3125,243.5,170.3125,239.5,166.3125" style="stroke:#A80036;stroke-width:1.0;"/><line style="stroke:#A80036;stroke-width:1.0;stroke-dasharray:2.0,2.0;" x1="237.5" x2="646" y1="166.3125" y2="166.3125"/><polygon fill="#A80036" points="478.5,192.6641,488.5,196.6641,478.5,200.6641,482.5,196.6641" style="stroke:#A80036;stroke-width:1.0;"/><line style="stroke:#A80036;stroke-width:1.0;" x1="232.5" x2="484.5" y1="196.6641" y2="196.6641"/><text fill="#000000" font-family="sans-serif" font-size="13" lengthAdjust="spacing" textLength="125" x="239.5" y="191.8076">getParticipantsStates</text><polygon fill="#A80036" points="243.5,223.0156,233.5,227.0156,243.5,231.0156,239.5,227.0156" style="stroke:#A80036;stroke-width:1.0;"/><line style="stroke:#A80036;stroke-width:1.0;stroke-dasharray:2.0,2.0;" x1="237.5" x2="489.5" y1="227.0156" y2="227.0156"/><text fill="#000000" font-family="sans-serif" font-size="13" lengthAdjust="spacing" textLength="36" x="249.5" y="222.1592">states</text><path d="M10,242.0156 L71,242.0156 L71,250.3672 L61,260.3672 L10,260.3672 L10,242.0156 " fill="#EEEEEE" style="stroke:#000000;stroke-width:1.0;"/><rect fill="none" height="458.9219" style="stroke:#000000;stroke-width:2.0;" width="1408" x="10" y="242.0156"/><text fill="#000000" font-family="sans-serif" font-size="13" font-weight="bold" lengthAdjust="spacing" textLength="16" x="25" y="256.5107">alt</text><text fill="#000000" font-family="sans-serif" font-size="11" font-weight="bold" lengthAdjust="spacing" textLength="233" x="86" y="255.4346">[all participants have state == target_state]</text><polygon fill="#A80036" points="48.5,262.3672,38.5,266.3672,48.5,270.3672,44.5,266.3672" style="stroke:#A80036;stroke-width:1.0;"/><line style="stroke:#A80036;stroke-width:1.0;stroke-dasharray:2.0,2.0;" x1="42.5" x2="231.5" y1="266.3672" y2="266.3672"/><line style="stroke:#000000;stroke-width:1.0;stroke-dasharray:2.0,2.0;" x1="10" x2="1418" y1="275.3672" y2="275.3672"/><polygon fill="#A80036" points="635,299.7188,645,303.7188,635,307.7188,639,303.7188" style="stroke:#A80036;stroke-width:1.0;"/><line style="stroke:#A80036;stroke-width:1.0;" x1="232.5" x2="641" y1="303.7188" y2="303.7188"/><a href="state_transition_error_handling.svg" target="_top" title="state_transition_error_handling.svg" xlink:actuate="onRequest" xlink:href="state_transition_error_handling.svg" xlink:show="new" xlink:title="state_transition_error_handling.svg" xlink:type="simple"><text fill="#0000FF" font-family="sans-serif" font-size="13" lengthAdjust="spacing" text-decoration="underline" textLength="197" x="239.5" y="298.8623">checkParticipantsBeforeTransition</text></a><path d="M652,281.3672 L652,307.3672 L901,307.3672 L901,291.3672 L891,281.3672 L652,281.3672 " fill="#FBFB77" filter="url(#f17xac7zfdejpk)" style="stroke:#A80036;stroke-width:1.0;"/><path d="M891,281.3672 L891,291.3672 L901,291.3672 L891,281.3672 " fill="#FBFB77" style="stroke:#A80036;stroke-width:1.0;"/><text fill="#000000" font-family="sans-serif" font-size="13" lengthAdjust="spacing" textLength="228" x="658" y="299.8623">Throws if any participant is unreachable</text><polygon fill="#A80036" points="243.5,318.7188,233.5,322.7188,243.5,326.7188,239.5,322.7188" style="stroke:#A80036;stroke-width:1.0;"/><line style="stroke:#A80036;stroke-width:1.0;stroke-dasharray:2.0,2.0;" x1="237.5" x2="646" y1="322.7188" y2="322.7188"/><polygon fill="#A80036" points="817,349.0703,827,353.0703,817,357.0703,821,353.0703" style="stroke:#A80036;stroke-width:1.0;"/><line style="stroke:#A80036;stroke-width:1.0;" x1="232.5" x2="823" y1="353.0703" y2="353.0703"/><a href="transition_controller.svg" target="_top" title="transition_controller.svg" xlink:actuate="onRequest" xlink:href="transition_controller.svg" xlink:show="new" xlink:title="transition_controller.svg" xlink:type="simple"><text fill="#0000FF" font-family="sans-serif" font-size="13" lengthAdjust="spacing" text-decoration="underline" textLength="144" x="239.5" y="348.2139">participantStateToTrigger</text></a><polygon fill="#A80036" points="243.5,379.4219,233.5,383.4219,243.5,387.4219,239.5,383.4219" style="stroke:#A80036;stroke-width:1.0;"/><line style="stroke:#A80036;stroke-width:1.0;stroke-dasharray:2.0,2.0;" x1="237.5" x2="828" y1="383.4219" y2="383.4219"/><text fill="#000000" font-family="sans-serif" font-size="13" lengthAdjust="spacing" textLength="139" x="249.5" y="378.5654">state_to_transition_from</text><polygon fill="#A80036" points="817,409.7734,827,413.7734,817,417.7734,821,413.7734" style="stroke:#A80036;stroke-width:1.0;"/><line style="stroke:#A80036;stroke-width:1.0;" x1="232.5" x2="823" y1="413.7734" y2="413.7734"/><text fill="#000000" font-family="sans-serif" font-size="13" lengthAdjust="spacing" textLength="275" x="239.5" y="408.917">getParticipantsInState(state_to_transition_from)</text><polygon fill="#A80036" points="243.5,440.125,233.5,444.125,243.5,448.125,239.5,444.125" style="stroke:#A80036;stroke-width:1.0;"/><line style="stroke:#A80036;stroke-width:1.0;stroke-dasharray:2.0,2.0;" x1="237.5" x2="828" y1="444.125" y2="444.125"/><text fill="#000000" font-family="sans-serif" font-size="13" lengthAdjust="spacing" textLength="81" x="249.5" y="439.2686">participant list</text><polygon fill="#A80036" points="817,470.4766,827,474.4766,817,478.4766,821,474.4766" style="stroke:#A80036;stroke-width:1.0;"/><line style="stroke:#A80036;stroke-width:1.0;" x1="232.5" x2="823" y1="474.4766" y2="474.4766"/><a href="transition_controller.svg" target="_top" title="transition_controller.svg" xlink:actuate="onRequest" xlink:href="transition_controller.svg" xlink:show="new" xlink:title="transition_controller.svg" xlink:type="simple"><text fill="#0000FF" font-family="sans-serif" font-size="13" lengthAdjust="spacing" text-decoration="underline" textLength="145" x="239.5" y="469.6201">getNextParticipantsState</text></a><polygon fill="#A80036" points="243.5,500.8281,233.5,504.8281,243.5,508.8281,239.5,504.8281" style="stroke:#A80036;stroke-width:1.0;"/><line style="stroke:#A80036;stroke-width:1.0;stroke-dasharray:2.0,2.0;" x1="237.5" x2="828" y1="504.8281" y2="504.8281"/><text fill="#000000" font-family="sans-serif" font-size="13" lengthAdjust="spacing" textLength="125" x="249.5" y="499.9717">state_to_transition_to</text><polygon fill="#A80036" points="985,531.1797,995,535.1797,985,539.1797,989,535.1797" style="stroke:#A80036;stroke-width:1.0;"/><line style="stroke:#A80036;stroke-width:1.0;" x1="232.5" x2="991" y1="535.1797" y2="535.1797"/><text fill="#000000" font-family="sans-serif" font-size="13" lengthAdjust="spacing" textLength="280" x="239.5" y="530.3232">[state_to_transition_from, state_to_transition_to]</text><polygon fill="#A80036" points="243.5,582.8828,233.5,586.8828,243.5,590.8828,239.5,586.8828" style="stroke:#A80036;stroke-width:1.0;"/><line style="stroke:#A80036;stroke-width:1.0;stroke-dasharray:2.0,2.0;" x1="237.5" x2="996" y1="586.8828" y2="586.8828"/><text fill="#000000" font-family="sans-serif" font-size="13" lengthAdjust="spacing" textLength="105" x="249.5" y="582.0264">transition_function</text><path d="M1002,548.1797 L1002,607.1797 L1399,607.1797 L1399,558.1797 L1389,548.1797 L1002,548.1797 " fill="#FBFB77" filter="url(#f17xac7zfdejpk)" style="stroke:#A80036;stroke-width:1.0;"/><path d="M1389,548.1797 L1389,558.1797 L1399,558.1797 L1389,548.1797 " fill="#FBFB77" style="stroke:#A80036;stroke-width:1.0;"/><text fill="#000000" font-family="sans-serif" font-size="13" lengthAdjust="spacing" textLength="283" x="1008" y="566.6748">Get the action that we should call so that we can</text><text fill="#000000" font-family="sans-serif" font-size="13" lengthAdjust="spacing" textLength="369" x="1008" y="583.0264">transition from state_to_transition_from to state_to_transition_to</text><text fill="#000000" font-family="sans-serif" font-size="13" lengthAdjust="spacing" textLength="376" x="1008" y="599.3779">transition_matrix[state_to_transition_from][state_to_transition_to]</text><polygon fill="#A80036" points="478.5,634.5859,488.5,638.5859,478.5,642.5859,482.5,638.5859" style="stroke:#A80036;stroke-width:1.0;"/><line style="stroke:#A80036;stroke-width:1.0;" x1="232.5" x2="484.5" y1="638.5859" y2="638.5859"/><text fill="#000000" font-family="sans-serif" font-size="13" lengthAdjust="spacing" textLength="105" x="239.5" y="633.7295">transition_function</text><polygon fill="#A80036" points="243.5,661.7617,233.5,665.7617,243.5,669.7617,239.5,665.7617" style="stroke:#A80036;stroke-width:1.0;"/><line style="stroke:#A80036;stroke-width:1.0;stroke-dasharray:2.0,2.0;" x1="237.5" x2="489.5" y1="665.7617" y2="665.7617"/><path d="M495,651.5859 L495,677.5859 L848,677.5859 L848,661.5859 L838,651.5859 L495,651.5859 " fill="#FBFB77" filter="url(#f17xac7zfdejpk)" style="stroke:#A80036;stroke-width:1.0;"/><path d="M838,651.5859 L838,661.5859 L848,661.5859 L838,651.5859 " fill="#FBFB77" style="stroke:#A80036;stroke-width:1.0;"/><text fill="#000000" font-family="sans-serif" font-size="13" lengthAdjust="spacing" textLength="332" x="501" y="670.0811">Performs the RPC calls to the participants' state machine</text><polygon fill="#A80036" points="48.5,688.9375,38.5,692.9375,48.5,696.9375,44.5,692.9375" style="stroke:#A80036;stroke-width:1.0;"/><line style="stroke:#A80036;stroke-width:1.0;stroke-dasharray:2.0,2.0;" x1="42.5" x2="231.5" y1="692.9375" y2="692.9375"/><!--SRC=[jLJ1Rjim3BthAtZh0YpxW67TOKMtzh0jMBDJ41YgpDX2PIcGcBJz-qcoOSjEP6GewaiKwV7nyOcYUv8Qh778k21ZuQz3o_RSaXHoppN1mwiZRCviFH0dN5kkdIHfz0Yn6jPk73eEkhNMs3kkIoLrDG8Ec1kZoHgb9he6mFU35k7t9oShNnWB9S3oQoSJFeD3IYH_86uhfCA5Fmi6_kkG8MP6dsVQR69KGJsYm00fwWxpoHqheDgQvz_wNX-vakKwfajJn_LYkqrpVrakvyq9M3O8JHtsmZnhkXEP74ku9tZN0XXN15mfsAV7DJzYYu3hQqZjYYgYlr5lsnge7Bw7ZQ96yPJg_eOxOnFQpi7mQUF5MbdLr6-jmoqua3lW-ZKj4AI3WxR8HSqV5VO1gCj0y_-tCgxzNEV6cfDgHNyIAqt4jTdCsjTIeJtjaGnxvwT9BTrPqrocRT8zzxhjrXpfua9HgUTAEdgxKLxeBtmvRVKt-KGcAsmyMeAud2SVCzGpmax8KyhkRAx1Vo3vKOF08z8lES6pVxYrEQWIH7ZMplJRWcleGuTC4CHdsmV8p5asfYgQM4ZMekrcpgBq1KxkOpAxSZPbfjsSXIkqVgGqBlhuPtKJNNEXwh2H3iMhRY0sVcf8VNved9-EkcJ_0000]--></g></svg>