<?xml version="1.0" encoding="us-ascii" standalone="no"?><svg xmlns="http://www.w3.org/2000/svg" xmlns:xlink="http://www.w3.org/1999/xlink" contentStyleType="text/css" height="637px" preserveAspectRatio="none" style="width:825px;height:637px;background:#FFFFFF;" version="1.1" viewBox="0 0 825 637" width="825px" zoomAndPan="magnify"><defs><filter height="300%" id="f1cn0gpp2j1l21" width="300%" x="-1" y="-1"><feGaussianBlur result="blurOut" stdDeviation="2.0"/><feColorMatrix in="blurOut" result="blurOut2" type="matrix" values="0 0 0 0 0 0 0 0 0 0 0 0 0 0 0 0 0 0 .4 0"/><feOffset dx="4.0" dy="4.0" in="blurOut2" result="blurOut3"/><feBlend in="SourceGraphic" in2="blurOut3" mode="normal"/></filter></defs><g><rect fill="none" filter="url(#f1cn0gpp2j1l21)" height="157.2422" style="stroke:#000000;stroke-width:2.0;" width="576" x="10" y="233.3672"/><line style="stroke:#A80036;stroke-width:1.0;stroke-dasharray:5.0,5.0;" x1="52" x2="52" y1="41.6094" y2="593.3672"/><line style="stroke:#A80036;stroke-width:1.0;stroke-dasharray:5.0,5.0;" x1="296.5" x2="296.5" y1="41.6094" y2="593.3672"/><line style="stroke:#A80036;stroke-width:1.0;stroke-dasharray:5.0,5.0;" x1="619.5" x2="619.5" y1="41.6094" y2="593.3672"/><rect fill="#FEFECE" filter="url(#f1cn0gpp2j1l21)" height="31.6094" style="stroke:#A80036;stroke-width:1.5;" width="60" x="20" y="5"/><text fill="#000000" font-family="sans-serif" font-size="14" lengthAdjust="spacing" textLength="46" x="27" y="26.5332">System</text><rect fill="#FEFECE" filter="url(#f1cn0gpp2j1l21)" height="31.6094" style="stroke:#A80036;stroke-width:1.5;" width="60" x="20" y="592.3672"/><text fill="#000000" font-family="sans-serif" font-size="14" lengthAdjust="spacing" textLength="46" x="27" y="613.9004">System</text><rect fill="#FEFECE" filter="url(#f1cn0gpp2j1l21)" height="31.6094" style="stroke:#A80036;stroke-width:1.5;" width="139" x="225.5" y="5"/><text fill="#000000" font-family="sans-serif" font-size="14" lengthAdjust="spacing" textLength="125" x="232.5" y="26.5332">TransitionController</text><rect fill="#FEFECE" filter="url(#f1cn0gpp2j1l21)" height="31.6094" style="stroke:#A80036;stroke-width:1.5;" width="139" x="225.5" y="592.3672"/><text fill="#000000" font-family="sans-serif" font-size="14" lengthAdjust="spacing" textLength="125" x="232.5" y="613.9004">TransitionController</text><rect fill="#FEFECE" filter="url(#f1cn0gpp2j1l21)" height="31.6094" style="stroke:#A80036;stroke-width:1.5;" width="77" x="579.5" y="5"/><text fill="#000000" font-family="sans-serif" font-size="14" lengthAdjust="spacing" textLength="63" x="586.5" y="26.5332">StateTree</text><rect fill="#FEFECE" filter="url(#f1cn0gpp2j1l21)" height="31.6094" style="stroke:#A80036;stroke-width:1.5;" width="77" x="579.5" y="592.3672"/><text fill="#000000" font-family="sans-serif" font-size="14" lengthAdjust="spacing" textLength="63" x="586.5" y="613.9004">StateTree</text><rect fill="#EEEEEE" filter="url(#f1cn0gpp2j1l21)" height="3" style="stroke:#EEEEEE;stroke-width:1.0;" width="816" x="0" y="72.7852"/><line style="stroke:#000000;stroke-width:1.0;" x1="0" x2="816" y1="72.7852" y2="72.7852"/><line style="stroke:#000000;stroke-width:1.0;" x1="0" x2="816" y1="75.7852" y2="75.7852"/><rect fill="#EEEEEE" filter="url(#f1cn0gpp2j1l21)" height="24.3516" style="stroke:#000000;stroke-width:2.0;" width="181" x="317.5" y="61.6094"/><text fill="#000000" font-family="sans-serif" font-size="13" font-weight="bold" lengthAdjust="spacing" textLength="163" x="323.5" y="79.1045">participantStateToTrigger</text><polygon fill="#A80036" points="285,114.3125,295,118.3125,285,122.3125,289,118.3125" style="stroke:#A80036;stroke-width:1.0;"/><line style="stroke:#A80036;stroke-width:1.0;" x1="52" x2="291" y1="118.3125" y2="118.3125"/><text fill="#000000" font-family="sans-serif" font-size="13" lengthAdjust="spacing" textLength="221" x="59" y="113.4561">participantStateToTrigger(target_state)</text><line style="stroke:#A80036;stroke-width:1.0;" x1="297" x2="339" y1="148.6641" y2="148.6641"/><line style="stroke:#A80036;stroke-width:1.0;" x1="339" x2="339" y1="148.6641" y2="161.6641"/><line style="stroke:#A80036;stroke-width:1.0;" x1="298" x2="339" y1="161.6641" y2="161.6641"/><polygon fill="#A80036" points="308,157.6641,298,161.6641,308,165.6641,304,161.6641" style="stroke:#A80036;stroke-width:1.0;"/><text fill="#000000" font-family="sans-serif" font-size="13" lengthAdjust="spacing" textLength="152" x="304" y="143.8076">getParticipantStateSorting</text><path d="M42,174.6641 L42,216.6641 L548,216.6641 L548,184.6641 L538,174.6641 L42,174.6641 " fill="#FBFB77" filter="url(#f1cn0gpp2j1l21)" style="stroke:#A80036;stroke-width:1.0;"/><path d="M538,174.6641 L538,184.6641 L548,184.6641 L538,174.6641 " fill="#FBFB77" style="stroke:#A80036;stroke-width:1.0;"/><text fill="#000000" font-family="sans-serif" font-size="13" lengthAdjust="spacing" textLength="146" x="48" y="193.1592">[min_state, max_state] =</text><text fill="#000000" font-family="sans-serif" font-size="13" lengthAdjust="spacing" textLength="453" x="80" y="209.5107">boost::minmax_element(states.begin(), states.end(), StartFromLowestState{});</text><path d="M10,233.3672 L71,233.3672 L71,241.7188 L61,251.7188 L10,251.7188 L10,233.3672 " fill="#EEEEEE" style="stroke:#000000;stroke-width:1.0;"/><rect fill="none" height="157.2422" style="stroke:#000000;stroke-width:2.0;" width="576" x="10" y="233.3672"/><text fill="#000000" font-family="sans-serif" font-size="13" font-weight="bold" lengthAdjust="spacing" textLength="16" x="25" y="247.8623">alt</text><text fill="#000000" font-family="sans-serif" font-size="11" font-weight="bold" lengthAdjust="spacing" textLength="150" x="86" y="246.7861">[max_state &lt;= target_state]</text><polygon fill="#A80036" points="63,275.0703,53,279.0703,63,283.0703,59,279.0703" style="stroke:#A80036;stroke-width:1.0;"/><line style="stroke:#A80036;stroke-width:1.0;stroke-dasharray:2.0,2.0;" x1="57" x2="296" y1="279.0703" y2="279.0703"/><text fill="#000000" font-family="sans-serif" font-size="13" lengthAdjust="spacing" textLength="207" x="69" y="274.2139">start from participant in lowest state</text><path d="M302,256.7188 L302,282.7188 L567,282.7188 L567,266.7188 L557,256.7188 L302,256.7188 " fill="#FBFB77" filter="url(#f1cn0gpp2j1l21)" style="stroke:#A80036;stroke-width:1.0;"/><path d="M557,256.7188 L557,266.7188 L567,266.7188 L557,256.7188 " fill="#FBFB77" style="stroke:#A80036;stroke-width:1.0;"/><text fill="#000000" font-family="sans-serif" font-size="13" lengthAdjust="spacing" textLength="244" x="308" y="275.2139">all participants below or equal target_state</text><line style="stroke:#000000;stroke-width:1.0;stroke-dasharray:2.0,2.0;" x1="10" x2="586" y1="293.0703" y2="293.0703"/><text fill="#000000" font-family="sans-serif" font-size="11" font-weight="bold" lengthAdjust="spacing" textLength="148" x="15" y="304.4893">[target_state &lt;= min_state]</text><polygon fill="#A80036" points="63,331.2578,53,335.2578,63,339.2578,59,335.2578" style="stroke:#A80036;stroke-width:1.0;"/><line style="stroke:#A80036;stroke-width:1.0;stroke-dasharray:2.0,2.0;" x1="57" x2="296" y1="335.2578" y2="335.2578"/><text fill="#000000" font-family="sans-serif" font-size="13" lengthAdjust="spacing" textLength="212" x="69" y="330.4014">start from participant in highest state</text><path d="M302,312.9063 L302,338.9063 L567,338.9063 L567,322.9063 L557,312.9063 L302,312.9063 " fill="#FBFB77" filter="url(#f1cn0gpp2j1l21)" style="stroke:#A80036;stroke-width:1.0;"/><path d="M557,312.9063 L557,322.9063 L567,322.9063 L557,312.9063 " fill="#FBFB77" style="stroke:#A80036;stroke-width:1.0;"/><text fill="#000000" font-family="sans-serif" font-size="13" lengthAdjust="spacing" textLength="244" x="308" y="331.4014">all participants above or equal target_state</text><line style="stroke:#000000;stroke-width:1.0;stroke-dasharray:2.0,2.0;" x1="10" x2="586" y1="349.2578" y2="349.2578"/><polygon fill="#A80036" points="63,373.6094,53,377.6094,63,381.6094,59,377.6094" style="stroke:#A80036;stroke-width:1.0;"/><line style="stroke:#A80036;stroke-width:1.0;stroke-dasharray:2.0,2.0;" x1="57" x2="296" y1="377.6094" y2="377.6094"/><text fill="#000000" font-family="sans-serif" font-size="13" lengthAdjust="spacing" textLength="212" x="69" y="372.7529">start from participant in highest state</text><path d="M302,355.2578 L302,381.2578 L552,381.2578 L552,365.2578 L542,355.2578 L302,355.2578 " fill="#FBFB77" filter="url(#f1cn0gpp2j1l21)" style="stroke:#A80036;stroke-width:1.0;"/><path d="M542,355.2578 L542,365.2578 L552,365.2578 L542,355.2578 " fill="#FBFB77" style="stroke:#A80036;stroke-width:1.0;"/><text fill="#000000" font-family="sans-serif" font-size="13" lengthAdjust="spacing" textLength="229" x="308" y="373.7529">participants above or below target_state</text><rect fill="#EEEEEE" filter="url(#f1cn0gpp2j1l21)" height="3" style="stroke:#EEEEEE;stroke-width:1.0;" width="816" x="0" y="418.7852"/><line style="stroke:#000000;stroke-width:1.0;" x1="0" x2="816" y1="418.7852" y2="418.7852"/><line style="stroke:#000000;stroke-width:1.0;" x1="0" x2="816" y1="421.7852" y2="421.7852"/><rect fill="#EEEEEE" filter="url(#f1cn0gpp2j1l21)" height="24.3516" style="stroke:#000000;stroke-width:2.0;" width="175" x="320.5" y="407.6094"/><text fill="#000000" font-family="sans-serif" font-size="13" font-weight="bold" lengthAdjust="spacing" textLength="157" x="326.5" y="425.1045">getNextParticipantsState</text><polygon fill="#A80036" points="608,460.3125,618,464.3125,608,468.3125,612,464.3125" style="stroke:#A80036;stroke-width:1.0;"/><line style="stroke:#A80036;stroke-width:1.0;" x1="297" x2="614" y1="464.3125" y2="464.3125"/><text fill="#000000" font-family="sans-serif" font-size="13" lengthAdjust="spacing" textLength="293" x="304" y="459.4561">getStateTransitionPath(current_state, target_state)</text><path d="M428,477.3125 L428,503.3125 L807,503.3125 L807,487.3125 L797,477.3125 L428,477.3125 " fill="#FBFB77" filter="url(#f1cn0gpp2j1l21)" style="stroke:#A80036;stroke-width:1.0;"/><path d="M797,477.3125 L797,487.3125 L807,487.3125 L797,477.3125 " fill="#FBFB77" style="stroke:#A80036;stroke-width:1.0;"/><text fill="#000000" font-family="sans-serif" font-size="13" lengthAdjust="spacing" textLength="358" x="434" y="495.8076">States modeled as tree and path is found using BFS Algorithn</text><polygon fill="#A80036" points="308,531.0156,298,535.0156,308,539.0156,304,535.0156" style="stroke:#A80036;stroke-width:1.0;"/><line style="stroke:#A80036;stroke-width:1.0;stroke-dasharray:2.0,2.0;" x1="302" x2="619" y1="535.0156" y2="535.0156"/><text fill="#000000" font-family="sans-serif" font-size="13" lengthAdjust="spacing" textLength="299" x="314" y="530.1592">[current_state, stateA, stateB, stateC, target_state]</text><polygon fill="#A80036" points="63,566.3672,53,570.3672,63,574.3672,59,570.3672" style="stroke:#A80036;stroke-width:1.0;"/><line style="stroke:#A80036;stroke-width:1.0;stroke-dasharray:2.0,2.0;" x1="57" x2="296" y1="570.3672" y2="570.3672"/><text fill="#000000" font-family="sans-serif" font-size="13" lengthAdjust="spacing" textLength="38" x="69" y="565.5107">stateA</text><path d="M302,548.0156 L302,574.0156 L685,574.0156 L685,558.0156 L675,548.0156 L302,548.0156 " fill="#FBFB77" filter="url(#f1cn0gpp2j1l21)" style="stroke:#A80036;stroke-width:1.0;"/><path d="M675,548.0156 L675,558.0156 L685,558.0156 L675,548.0156 " fill="#FBFB77" style="stroke:#A80036;stroke-width:1.0;"/><text fill="#000000" font-family="sans-serif" font-size="13" lengthAdjust="spacing" textLength="362" x="308" y="566.5107">Returns the next state that is on the path to reach target_state</text><!--SRC=[hPFDJkCm4CVlVeevjXBT1yYIbG294q9esnj2o6s7nCBnTEt90aAy-uxjq2JG8D2IYpEU3__yzqouDmuy1LHgfpsRZTbfnx1y2epDQ6lbjGk63RapSkp9MlJZ7DQCAuzIgYnXuCaEMdbJLUYXB9NAzM7nws1PAARJPwnzXNmRukvSgOFvqtKbzUfDwIM9xIgb7342_PMuWtUzRepBnnv1en_pxmsK2hflJHIuA2Gikj5YWuvdAIpyM6Dbt6n-19sDRXij8V1yxgcve0SC6UZvPVvJYJ_og7tr_aTRxW7Wk8IX93ckq_TuiPWI8iI3uKvE7ceDqWqsaMJEL2pf8khNN82sTXWVO8qI3-G1_xJQZb0Kse2IFy8JtBsE_urQ2zGNMFLQNlS3rYpnzmADY2PmiePZ7BUDBnadIJOlyN7OjY6rYGnIweh94TWFPExxpdoDlT9SppQjzzAahsqzdgr-7lQLYlmReA6jDFWMT02E9sZXtKb5C07kg1Mh3J9KS7g-X1DRaJTSEpKnhb7g8Upr6woqd7JhQRUUZN5lrAVUJUge_aNKR-JMExb3ZU14v1mYfkPu4tB9aox611xrfdxtJlsO_WC0]--></g></svg>